<svg id="Layer_1" data-name="Layer 1" xmlns="http://www.w3.org/2000/svg" viewBox="0 0 512 323"><defs><style>.cls-1{fill:#e0dfe0;fill-rule:evenodd;}.cls-2{fill:#fbb040;}.cls-3{fill:#1b75bc;}</style></defs><title>cash on delivery</title><path class="cls-1" d="M501.41,15.44H34.11c-9.1,0-14.8,1.4-17.9,4.3-2.7,3.3-4,8.7-4,16.7v280.3c0,14.3,7.4,21.7,21.9,21.7h467.3c15.2,0,22.8-7.4,22.8-21.7V36.34C524.21,22.24,516.61,15.44,501.41,15.44Z" transform="translate(-12.21 -15.44)"/><path class="cls-2" d="M123.48,50.08q4,.49,7.25,1.11l5.58,1.1a19.86,19.86,0,0,0,3.74.5q0,.85.06,2.94c0,1.39.11,3,.19,4.79s.22,3.7.43,5.7.47,3.91.8,5.71a3.12,3.12,0,0,1-2.21,1.41,2.15,2.15,0,0,1-2.46-.55q-2.46-8.6-8.28-13.07t-14.79-4.48a25.16,25.16,0,0,0-10.19,2.21,26,26,0,0,0-9,6.69,35.22,35.22,0,0,0-6.51,11.23,45.84,45.84,0,0,0-2.51,15.95A48.85,48.85,0,0,0,88,107.53a37.79,37.79,0,0,0,6.45,11.78,26.05,26.05,0,0,0,9.2,7.18,25.44,25.44,0,0,0,10.74,2.39,24.41,24.41,0,0,0,9.76-1.78,25.21,25.21,0,0,0,7.12-4.54,26.13,26.13,0,0,0,5-6.14,45.21,45.21,0,0,0,3.19-6.56,2.46,2.46,0,0,1,2.45-.49,3.28,3.28,0,0,1,2.21,1.35,79.11,79.11,0,0,1-2.08,12,34.67,34.67,0,0,1-2.58,7.24q-5.16,1.47-11.35,3a56.14,56.14,0,0,1-13.57,1.54,75.69,75.69,0,0,1-17.67-2.09,39.64,39.64,0,0,1-15.34-7.24,47.37,47.37,0,0,1-6.14-5.71,34.16,34.16,0,0,1-4.91-7.12,40.06,40.06,0,0,1-3.31-8.77A42.39,42.39,0,0,1,65.92,93a43.56,43.56,0,0,1,4.3-19.27,35.51,35.51,0,0,1,4.66-7.3,47.31,47.31,0,0,1,5.89-5.95,43.89,43.89,0,0,1,15.47-8.23,63,63,0,0,1,18.53-2.7A74,74,0,0,1,123.48,50.08Z" transform="translate(-12.21 -15.44)"/><path class="cls-2" d="M191.11,115.75a19.53,19.53,0,0,0,.37,5.22,9,9,0,0,0,1.35,3.19,5.19,5.19,0,0,0,1.84,1.65,4.36,4.36,0,0,0,2,.5,7.69,7.69,0,0,0,2.14-.31,11.72,11.72,0,0,0,2.52-1.17,1.66,1.66,0,0,1,1.29,1,2.53,2.53,0,0,1,.18,1.78,17.15,17.15,0,0,1-1.9,1.84,23.8,23.8,0,0,1-3.13,2.21,19.9,19.9,0,0,1-4.17,1.84,16.73,16.73,0,0,1-5,.73,12.73,12.73,0,0,1-5.52-1.1,22.5,22.5,0,0,1-4.79-3.19,4.12,4.12,0,0,0-2-1,5.15,5.15,0,0,0-2.58,1.35,37.54,37.54,0,0,1-4.29,2.57,13.09,13.09,0,0,1-6.14,1.35,16.56,16.56,0,0,1-5.15-.79,13,13,0,0,1-4.36-2.4,11.9,11.9,0,0,1-3.07-4,12.85,12.85,0,0,1-1.17-5.7,10.4,10.4,0,0,1,3-7.68q3-3,9.76-5.09,3.55-1.11,6.26-1.9l5.28-1.54a5,5,0,0,0,2.27-1.1,2.7,2.7,0,0,0,.67-1.35c.08-.65.14-1.33.19-2s.06-1.41.06-2.14a19.51,19.51,0,0,0-.37-3.62,11.61,11.61,0,0,0-1.23-3.44A7.8,7.8,0,0,0,173.19,89a5.5,5.5,0,0,0-3.31-1,6,6,0,0,0-4,1.53q-1.78,1.54-2.39,5.47a5.59,5.59,0,0,1-.68,2.39,5,5,0,0,1-1.41,1.53,11.76,11.76,0,0,1-1.9,1c-.78.32-1.58.63-2.4.92a18.6,18.6,0,0,1-2.45.67,10.55,10.55,0,0,1-2.09.25,2.48,2.48,0,0,1-2.21-.92,3.79,3.79,0,0,1-.61-2.15,8.91,8.91,0,0,1,1.84-5.09,19.83,19.83,0,0,1,4-4.36,41.56,41.56,0,0,1,3.81-2.58,33,33,0,0,1,4.91-2.45,35.08,35.08,0,0,1,5.7-1.78,28.25,28.25,0,0,1,6.2-.68c5.16,0,9.14,1.37,12,4.11s4.07,7.31,3.74,13.69Zm-14.73-3.19a7,7,0,0,0,0-1.9c-.08-.29-.36-.39-.86-.31a17.4,17.4,0,0,0-7.18,2.45,6.74,6.74,0,0,0-3.13,6.14,7.84,7.84,0,0,0,1.85,5.16,5.57,5.57,0,0,0,4.41,2.21c1.89,0,3.13-.54,3.75-1.6a8.92,8.92,0,0,0,.92-4.42Z" transform="translate(-12.21 -15.44)"/><path class="cls-2" d="M204.86,130.48a17.66,17.66,0,0,1-1.6-5.71,38.79,38.79,0,0,1-.37-8.16,2.39,2.39,0,0,1,2.09-1,2.28,2.28,0,0,1,2.09.79,24.78,24.78,0,0,0,1.78,4,21.83,21.83,0,0,0,2.76,4,15.1,15.1,0,0,0,3.62,3.07,8.24,8.24,0,0,0,4.36,1.23,6.61,6.61,0,0,0,4.6-1.6,6.11,6.11,0,0,0,1.78-4.78,7.12,7.12,0,0,0-2.46-5.53,22.41,22.41,0,0,0-5.64-3.68,34.11,34.11,0,0,1-9.15-6.38,12.44,12.44,0,0,1-3.49-9.09,15,15,0,0,1,1.53-7A13.89,13.89,0,0,1,211,85.68a19.35,19.35,0,0,1,6.26-3,28.27,28.27,0,0,1,7.49-1,35.51,35.51,0,0,1,8.41.92,16,16,0,0,1,4.72,1.66,22.76,22.76,0,0,1,1.35,5.4,46.47,46.47,0,0,1,.5,6.87,1.11,1.11,0,0,1-.74.74,4.68,4.68,0,0,1-1.29.31,3.65,3.65,0,0,1-1.35-.13,2,2,0,0,1-.92-.43c-1.23-3.68-2.62-6.21-4.17-7.61a7.87,7.87,0,0,0-5.4-2.08,6.73,6.73,0,0,0-4.42,1.41,4.86,4.86,0,0,0-1.72,4,5.51,5.51,0,0,0,1.84,3.93,24,24,0,0,0,6,3.92,30,30,0,0,1,9.89,7.06,14.8,14.8,0,0,1,3.62,10.13,16.22,16.22,0,0,1-1.78,7.24,15,15,0,0,1-4.48,5.09,20.72,20.72,0,0,1-6.57,3.07,30.59,30.59,0,0,1-8.16,1Q209.76,134.28,204.86,130.48Z" transform="translate(-12.21 -15.44)"/><path class="cls-2" d="M253.71,64.32a36.66,36.66,0,0,0-.25-5.15,3.88,3.88,0,0,0-2.21-2.58l-2.08-1.23a3,3,0,0,1,0-3.68,71.58,71.58,0,0,0,8.77-2.88q4.85-1.9,10-4a2.58,2.58,0,0,1,2.09.86c-.16,2.53-.27,5.17-.31,7.91s-.06,6.08-.06,10V86.17c0,1,.29,1.47.86,1.47a9.06,9.06,0,0,0,2-1,32.4,32.4,0,0,1,5.7-3.19,19.88,19.88,0,0,1,8.41-1.72A17.37,17.37,0,0,1,293.35,83a13.52,13.52,0,0,1,4.85,3.31,13.94,13.94,0,0,1,2.88,4.91,18.1,18.1,0,0,1,1,6v21.11c0,2.13.06,3.82.18,5.09a9.4,9.4,0,0,0,.67,3,2.65,2.65,0,0,0,1.48,1.41,13.36,13.36,0,0,0,2.57.61l2,.25a2.76,2.76,0,0,1,.74,2.21,2.19,2.19,0,0,1-.86,2.08q-3-.24-6.69-.3t-8.16-.07c-2.63,0-5.14,0-7.55.07s-4.32.14-5.71.3a2.19,2.19,0,0,1-.86-2.08,2.76,2.76,0,0,1,.74-2.21l2.21-.37a7.81,7.81,0,0,0,1.71-.55,2.26,2.26,0,0,0,1-1.17,8.11,8.11,0,0,0,.49-2.33q.12-1.47.12-4V98.93a8.77,8.77,0,0,0-2-5.76q-2-2.46-6.56-2.46a9,9,0,0,0-4.36,1,8,8,0,0,0-2.52,2,8,8,0,0,0-1,4.54v22q0,2.58.12,4a7.75,7.75,0,0,0,.5,2.33,2.2,2.2,0,0,0,1,1.17,7.75,7.75,0,0,0,1.72.55l2.21.37a2.76,2.76,0,0,1,.73,2.21,2.19,2.19,0,0,1-.86,2.08c-2-.16-4-.26-6.07-.3s-4.61-.07-7.55-.07c-2.54,0-5,0-7.49.07s-4.74.14-6.87.3a2.19,2.19,0,0,1-.86-2.08,2.72,2.72,0,0,1,.74-2.21l2.21-.25a11.9,11.9,0,0,0,2.39-.61,2.69,2.69,0,0,0,1.41-1.41,8.33,8.33,0,0,0,.61-3c.08-1.27.13-3,.13-5.09Z" transform="translate(-12.21 -15.44)"/><path class="cls-2" d="M370.74,132.69A25.71,25.71,0,0,1,362,128a22.94,22.94,0,0,1-6-7.85A25.33,25.33,0,0,1,353.74,109,25.91,25.91,0,0,1,356,97.28a25.51,25.51,0,0,1,6.32-8.53,27,27,0,0,1,9.08-5.22,32.7,32.7,0,0,1,20.93-.12,25.34,25.34,0,0,1,8.77,5,24.29,24.29,0,0,1,6.08,8.22,26.71,26.71,0,0,1,2.27,11.29,28.09,28.09,0,0,1-2.27,11.73,23.19,23.19,0,0,1-6.14,8.22,25.66,25.66,0,0,1-9,4.85,36.47,36.47,0,0,1-10.8,1.59A34.2,34.2,0,0,1,370.74,132.69Zm3.55-40.87q-2.88,4.41-2.88,14.48a50.62,50.62,0,0,0,.74,8.9,28.77,28.77,0,0,0,2.14,7.12,12.7,12.7,0,0,0,3.5,4.66,7.46,7.46,0,0,0,4.79,1.66,7,7,0,0,0,4.48-1.41,9.45,9.45,0,0,0,2.82-3.93,22.68,22.68,0,0,0,1.47-6,62.33,62.33,0,0,0,.43-7.67,60.93,60.93,0,0,0-.79-8.53,31.82,31.82,0,0,0-2-7,13.79,13.79,0,0,0-3.19-4.85,6.48,6.48,0,0,0-4.6-1.78Q377.18,87.4,374.29,91.82Z" transform="translate(-12.21 -15.44)"/><path class="cls-2" d="M423.57,99.79a32.26,32.26,0,0,0-.3-5.21,3.79,3.79,0,0,0-2-2.64l-1.72-1.11a2,2,0,0,1-.73-1.84,2.27,2.27,0,0,1,.73-1.84q2.09-.62,4.73-1.47c1.76-.57,3.48-1.19,5.15-1.84s3.26-1.31,4.73-2A26.59,26.59,0,0,0,437.69,80a2.91,2.91,0,0,1,2.21,1.11,29.09,29.09,0,0,1-.19,3.13c-.12,1.18-.18,2-.18,2.39,0,.66.2,1,.61,1a2.39,2.39,0,0,0,1.05-.37,12.4,12.4,0,0,1,1.29-.61c.65-.41,1.49-.9,2.51-1.47a27,27,0,0,1,3.44-1.6,38,38,0,0,1,4-1.29,16.59,16.59,0,0,1,4.17-.55A16.92,16.92,0,0,1,463.28,83a13.62,13.62,0,0,1,4.79,3.31A14.1,14.1,0,0,1,471,91.2a18.36,18.36,0,0,1,1,6v21.11c0,2.13,0,3.82.13,5.09a7.43,7.43,0,0,0,.67,3,2.94,2.94,0,0,0,1.47,1.41,12.36,12.36,0,0,0,2.64.61l2,.25a2.76,2.76,0,0,1,.73,2.21,2.19,2.19,0,0,1-.86,2.08q-2.82-.24-6.62-.3t-8.23-.07c-2.45,0-4.83,0-7.12.07s-4.33.14-6.13.3c-.58-.32-.86-1-.86-2.08a2.76,2.76,0,0,1,.73-2.21l2.21-.37a7.75,7.75,0,0,0,1.72-.55,2.2,2.2,0,0,0,1-1.17,7.48,7.48,0,0,0,.49-2.33c.08-1,.13-2.33.13-4V99.43a9.77,9.77,0,0,0-2-6.2q-2-2.52-6.63-2.52a8.94,8.94,0,0,0-4.35,1,7.86,7.86,0,0,0-2.52,2,3.17,3.17,0,0,0-.8,1.78,18.41,18.41,0,0,0-.18,2.76v22q0,2.46.06,4a7.39,7.39,0,0,0,.43,2.45,2.38,2.38,0,0,0,1,1.29,5.31,5.31,0,0,0,2,.49l2,.25a2.76,2.76,0,0,1,.74,2.21,2.19,2.19,0,0,1-.86,2.08q-2.94-.24-6.08-.3c-2.08,0-4.6-.07-7.54-.07q-3.93,0-7.61.07t-6.88.3a2.19,2.19,0,0,1-.86-2.08,2.76,2.76,0,0,1,.74-2.21l2-.25a13.3,13.3,0,0,0,2.58-.61,2.6,2.6,0,0,0,1.47-1.41,9.1,9.1,0,0,0,.68-3c.12-1.27.18-3,.18-5.09Z" transform="translate(-12.21 -15.44)"/><path class="cls-2" d="M65.91,218.73q0-4.42-.12-7.12a15.69,15.69,0,0,0-.67-4.3A4,4,0,0,0,63.34,205a9.35,9.35,0,0,0-3.32-.92l-2.33-.24A1.35,1.35,0,0,1,57,203a5,5,0,0,1-.19-1.41c0-1.14.37-1.8,1.11-2q7.73-.5,15.4-.8t17.49-.31a119.44,119.44,0,0,1,15,.92,68.41,68.41,0,0,1,13.62,3.13,38.61,38.61,0,0,1,10.68,5.9,37.71,37.71,0,0,1,7.85,8.34,35.28,35.28,0,0,1,4.79,10.13,40,40,0,0,1,1.6,11.23q0,12.65-5.59,21.91a39.55,39.55,0,0,1-16.39,14.79,49.45,49.45,0,0,1-13.93,4.48,102.31,102.31,0,0,1-17.12,1.29c-2.86,0-5.75-.13-8.65-.37s-5.46-.37-7.67-.37q-8.72,0-19.15.37c-.49-.33-.74-1.06-.74-2.21a2.6,2.6,0,0,1,.74-2.09l3.81-.61a17.46,17.46,0,0,0,3.31-.86,3.65,3.65,0,0,0,1.9-1.78,9.86,9.86,0,0,0,.86-3.74q.18-2.46.18-6.75Zm17.56,38.9a79.7,79.7,0,0,0,.37,8.53,8.75,8.75,0,0,0,2.08,5.22q3.56,3.56,10.19,3.56a26.22,26.22,0,0,0,13.44-3.19,25.54,25.54,0,0,0,8.77-8.35,36.14,36.14,0,0,0,4.79-11.47,55.44,55.44,0,0,0,1.47-12.58q0-16.57-8.59-25.9t-25.28-9.33q-5.16,0-6.38,1.6a4.44,4.44,0,0,0-.74,2.51c-.08,1.19-.12,2.72-.12,4.6Z" transform="translate(-12.21 -15.44)"/><path class="cls-2" d="M171.35,250.76a5.27,5.27,0,0,0-2.58.37c-.33.24-.49.86-.49,1.84a20.85,20.85,0,0,0,1.1,6.69,18.06,18.06,0,0,0,3.26,5.83,15.45,15.45,0,0,0,5.4,4.11,17.37,17.37,0,0,0,7.55,1.54,23.43,23.43,0,0,0,2.82-.19,9.93,9.93,0,0,0,2.94-.86,12.09,12.09,0,0,0,3-2,13.55,13.55,0,0,0,2.7-3.38,2.72,2.72,0,0,1,3.19,2.83,25.77,25.77,0,0,1-4.54,6.56,26.21,26.21,0,0,1-5.4,4.3,21.81,21.81,0,0,1-5.83,2.39,24.13,24.13,0,0,1-5.71.74,27.68,27.68,0,0,1-11-2,23.68,23.68,0,0,1-8-5.46,22.77,22.77,0,0,1-4.91-8,27.52,27.52,0,0,1-1.66-9.57,29.43,29.43,0,0,1,2-10.8,25.73,25.73,0,0,1,5.52-8.72,26.58,26.58,0,0,1,8.41-5.83A25.92,25.92,0,0,1,179.69,229a23.57,23.57,0,0,1,8.47,1.41,17.35,17.35,0,0,1,6.14,3.86A16.79,16.79,0,0,1,198,240a17.86,17.86,0,0,1,1.29,6.75,5.26,5.26,0,0,1-.73,2.95c-.5.73-1.72,1.1-3.69,1.1Zm8.1-5.4a15.78,15.78,0,0,0,2.64-.24,6.75,6.75,0,0,0,2.39-.86,1.53,1.53,0,0,0,.68-1.11,8.3,8.3,0,0,0,.18-1.72,7.05,7.05,0,0,0-1.66-4.91,6.21,6.21,0,0,0-4.85-1.84,8.32,8.32,0,0,0-3.62.86,11.41,11.41,0,0,0-3.07,2.15,11.68,11.68,0,0,0-2.08,2.82,6.56,6.56,0,0,0-.8,3,1.48,1.48,0,0,0,1.35,1.53,21,21,0,0,0,4.3.31Z" transform="translate(-12.21 -15.44)"/><path class="cls-2" d="M210.13,211.61a37.18,37.18,0,0,0-.24-5.16,3.87,3.87,0,0,0-2.21-2.57l-2.09-1.23a3.08,3.08,0,0,1,0-3.68,79,79,0,0,0,9-2.95q5.1-2,9.76-3.93a2.61,2.61,0,0,1,2.09.86q-.26,3.81-.31,7.92t-.06,10v54.74q0,3.19.12,5.1a8.44,8.44,0,0,0,.61,2.94,2.61,2.61,0,0,0,1.42,1.41,12,12,0,0,0,2.63.62l2.09.24a2.77,2.77,0,0,1,.74,2.21,2.21,2.21,0,0,1-.86,2.09q-3.08-.25-6.81-.31t-7.92-.06q-3.93,0-7.73.06t-7,.31a2.21,2.21,0,0,1-.86-2.09,2.77,2.77,0,0,1,.74-2.21l2.33-.24a6.94,6.94,0,0,0,2.39-.56,2.87,2.87,0,0,0,1.42-1.47,8.44,8.44,0,0,0,.61-2.94q.12-1.9.12-5.1Z" transform="translate(-12.21 -15.44)"/><path class="cls-2" d="M261.19,265.61q0,3.19.12,5.1a9.67,9.67,0,0,0,.56,2.94,2.58,2.58,0,0,0,1.35,1.47,7.24,7.24,0,0,0,2.51.56l2.34.24a2.77,2.77,0,0,1,.73,2.21,2.21,2.21,0,0,1-.86,2.09q-3.19-.25-6.81-.31t-7.92-.06q-4.17,0-7.91.06t-6.81.31c-.58-.33-.86-1-.86-2.09a2.77,2.77,0,0,1,.73-2.21l2.33-.24a7,7,0,0,0,2.4-.56,2.89,2.89,0,0,0,1.41-1.47,8.22,8.22,0,0,0,.61-2.94c.08-1.27.13-3,.13-5.1V247.08a32.22,32.22,0,0,0-.31-5.22,3.83,3.83,0,0,0-2-2.64l-1.71-1.1a2,2,0,0,1-.74-1.84,2.23,2.23,0,0,1,.74-1.84q2.09-.62,4.72-1.48t5.16-1.84c1.67-.65,3.25-1.3,4.72-2a27.82,27.82,0,0,0,3.56-1.84,2.93,2.93,0,0,1,2.21,1.1c-.16,1.89-.27,4.09-.31,6.63s-.06,5.2-.06,8Zm-1.41-61.67a8.61,8.61,0,0,1,2.39,6.19q0,4.55-2.88,6.75a10.12,10.12,0,0,1-6.32,2.21,8.16,8.16,0,0,1-6.32-2.45,8.83,8.83,0,0,1-2.27-6.26,8.31,8.31,0,0,1,2.76-6.44,9.26,9.26,0,0,1,6.44-2.52A8.15,8.15,0,0,1,259.78,203.94Z" transform="translate(-12.21 -15.44)"/><path class="cls-2" d="M269.41,234.68a3.45,3.45,0,0,1-.86-2.21,1.93,1.93,0,0,1,1.23-2.08q3.44.24,6.88.3c2.29.05,5.07.06,8.34.06q3.44,0,6.81-.12l6.82-.24c.57.32.85,1.06.85,2.21a2.87,2.87,0,0,1-.61,2.08l-2,.49c-.74.25-1.27.43-1.6.56a.66.66,0,0,0-.49.67,8.1,8.1,0,0,0,.31,1.72,24.2,24.2,0,0,0,.8,2.58q1.83,5.15,3.8,9.88t3.93,9.14q2.08-4.67,4.23-9.57T312,239.59a9.33,9.33,0,0,0,.56-1.72,7,7,0,0,0,.18-1.35q0-.74-2.94-1.47l-1.72-.37c-.58-.32-.86-1.06-.86-2.21a2.24,2.24,0,0,1,1-2.08c2,.16,3.68.26,5.15.3s3.11.06,4.91.06q3,0,5.22-.12l4.24-.24a2.27,2.27,0,0,1,1,2.08c0,1.15-.25,1.89-.74,2.21l-2.09.37a7.7,7.7,0,0,0-4,1.84,17.74,17.74,0,0,0-3.14,4.91q-4.78,9.57-9,19.27t-8.53,19.64a3.88,3.88,0,0,1-2.82.86,5,5,0,0,1-2.95-.86q-2.44-5.77-4.29-10.07t-3.68-8.4q-1.84-4.11-3.87-8.59T278.74,243c-.73-1.55-1.37-2.78-1.9-3.68a15.7,15.7,0,0,0-1.47-2.15,4.35,4.35,0,0,0-1.48-1.17,18.25,18.25,0,0,0-1.9-.73Z" transform="translate(-12.21 -15.44)"/><path class="cls-2" d="M348.21,250.76a5.29,5.29,0,0,0-2.58.37c-.32.24-.49.86-.49,1.84a20.59,20.59,0,0,0,1.11,6.69,18,18,0,0,0,3.25,5.83,15.45,15.45,0,0,0,5.4,4.11,17.4,17.4,0,0,0,7.55,1.54,23.3,23.3,0,0,0,2.82-.19,10.08,10.08,0,0,0,3-.86,12.24,12.24,0,0,0,2.94-2,13.33,13.33,0,0,0,2.7-3.38,2.72,2.72,0,0,1,3.19,2.83,25.77,25.77,0,0,1-4.54,6.56,26.21,26.21,0,0,1-5.4,4.3,21.67,21.67,0,0,1-5.83,2.39,24.07,24.07,0,0,1-5.71.74,27.68,27.68,0,0,1-11-2,23.68,23.68,0,0,1-8-5.46,22.92,22.92,0,0,1-4.91-8,27.74,27.74,0,0,1-1.65-9.57,29.43,29.43,0,0,1,2-10.8,26,26,0,0,1,5.52-8.72,26.8,26.8,0,0,1,8.41-5.83A25.94,25.94,0,0,1,356.56,229a23.61,23.61,0,0,1,8.47,1.41,17.31,17.31,0,0,1,6.13,3.86,16.82,16.82,0,0,1,3.75,5.65,17.86,17.86,0,0,1,1.29,6.75,5.26,5.26,0,0,1-.74,2.95c-.49.73-1.72,1.1-3.68,1.1Zm8.1-5.4a15.78,15.78,0,0,0,2.64-.24,6.68,6.68,0,0,0,2.39-.86,1.51,1.51,0,0,0,.68-1.11,8.3,8.3,0,0,0,.18-1.72,7.1,7.1,0,0,0-1.65-4.91,6.24,6.24,0,0,0-4.85-1.84,8.26,8.26,0,0,0-3.62.86,11.26,11.26,0,0,0-3.07,2.15,11.46,11.46,0,0,0-2.09,2.82,6.56,6.56,0,0,0-.8,3,1.48,1.48,0,0,0,1.35,1.53,21,21,0,0,0,4.3.31Z" transform="translate(-12.21 -15.44)"/><path class="cls-2" d="M388,247.32a30.87,30.87,0,0,0-.31-5.21,3.78,3.78,0,0,0-2-2.64l-1.72-1.11a2,2,0,0,1-.74-1.84,2.27,2.27,0,0,1,.74-1.84q2.08-.62,4.6-1.47c1.68-.57,3.33-1.21,5-1.9s3.19-1.39,4.67-2.09,2.7-1.33,3.68-1.9a3,3,0,0,1,2.21,1.1c-.17,1.23-.29,2.27-.37,3.13s-.12,1.58-.12,2.15.41,1.15,1.22,1.47a21.37,21.37,0,0,0,2.52-1.78c.86-.69,1.78-1.37,2.76-2a17.35,17.35,0,0,1,3.13-1.66,9.52,9.52,0,0,1,3.62-.67,6.81,6.81,0,0,1,4.6,1.9,6.74,6.74,0,0,1,2.15,5.34c0,2.86-.82,4.91-2.45,6.13a8.81,8.81,0,0,1-5.4,1.85,7,7,0,0,1-4.79-2.21A12.59,12.59,0,0,0,407.8,240a5.18,5.18,0,0,0-1.53-.37q-2.34,0-2.34,7.37v18.9c0,2.13.05,3.82.13,5.09a9.55,9.55,0,0,0,.55,2.95,2.47,2.47,0,0,0,1.35,1.41,8.88,8.88,0,0,0,2.52.49l3.92.37a3,3,0,0,1,.74,2.21,2.19,2.19,0,0,1-.86,2.08c-2.94-.16-5.73-.26-8.35-.3s-5.36-.06-8.22-.06c-2.54,0-5.07,0-7.61.06s-4.83.14-6.87.3c-.58-.32-.86-1-.86-2.08a3,3,0,0,1,.73-2.21l2.34-.25a8.2,8.2,0,0,0,2.39-.49,2.63,2.63,0,0,0,1.41-1.41,8.65,8.65,0,0,0,.62-3c.08-1.31.12-3,.12-5.15Z" transform="translate(-12.21 -15.44)"/><path class="cls-2" d="M422.47,234.68a2.88,2.88,0,0,1-.68-2.27,2.13,2.13,0,0,1,1-2q3.32.24,7.31.3c2.66.05,5.62.06,8.9.06q6.87,0,13.74-.36a2.12,2.12,0,0,1,1,2,2.88,2.88,0,0,1-.67,2.27l-2.45.49a28.07,28.07,0,0,0-3.2,1c-.32.17-.49.62-.49,1.36a12.39,12.39,0,0,0,1,3.68q1,2.58,2.71,7.24c.32.9.73,2,1.22,3.25s1,2.58,1.54,3.93l1.53,3.87q.74,1.83,1.23,2.94c.65-1.31,1.29-2.64,1.9-4s1.25-2.72,1.9-4.11l2.21-5c1.31-2.86,2.4-5.48,3.25-7.86a18.87,18.87,0,0,0,1.29-4.54c0-.41-.26-.75-.79-1a7.62,7.62,0,0,0-1.91-.68l-2.45-.49a3.31,3.31,0,0,1-.61-2.33c0-1.14.32-1.8,1-2,1.39.16,3,.26,4.91.3s4.21.06,7,.06c3.19,0,6.39-.12,9.58-.36a3,3,0,0,1,1.1,2,2.2,2.2,0,0,1-.86,2.27l-2.33.25a11.41,11.41,0,0,0-3.31.92,6.1,6.1,0,0,0-2.34,1.78q-1,1.47-3.06,5c-1.4,2.38-2.79,5-4.18,7.86L462,263.89q-1.73,3.32-4.18,8.47T452.66,283q-2.7,5.52-5.16,10.8t-4.17,8.72a15.63,15.63,0,0,1-4.54,6.07,10.48,10.48,0,0,1-6,2,10,10,0,0,1-4-.68,6.31,6.31,0,0,1-2.4-1.72,5.62,5.62,0,0,1-1.16-2.33,11.09,11.09,0,0,1-.31-2.64,6.11,6.11,0,0,1,1.84-4.6,7.11,7.11,0,0,1,5.16-1.78h2.94a8.57,8.57,0,0,0,3.62-.67,7,7,0,0,0,2.4-1.91,22.65,22.65,0,0,0,1.84-3.07c.57-1.14,1.14-2.37,1.72-3.68A19.86,19.86,0,0,0,445.6,285a7.44,7.44,0,0,0,.55-2.57,15.29,15.29,0,0,0-.43-3.19,42.22,42.22,0,0,0-1.9-5.77L432,243.76a31.73,31.73,0,0,0-3.07-6.32,6.27,6.27,0,0,0-4.3-2.39Z" transform="translate(-12.21 -15.44)"/><path class="cls-3" d="M120.17,48.49q4,.49,7.25,1.1c2.12.42,4,.78,5.58,1.11a19.69,19.69,0,0,0,3.74.49c0,.57,0,1.56.07,3s.1,3,.18,4.78.22,3.71.43,5.71.47,3.91.8,5.71A3.18,3.18,0,0,1,136,71.75a2.17,2.17,0,0,1-2.46-.55q-2.45-8.6-8.28-13.07t-14.79-4.48a25.15,25.15,0,0,0-10.19,2.2,26.21,26.21,0,0,0-9,6.69,35.33,35.33,0,0,0-6.51,11.23,45.9,45.9,0,0,0-2.51,16,49,49,0,0,0,2.45,16.2,37.68,37.68,0,0,0,6.45,11.78,26,26,0,0,0,9.2,7.19,25.59,25.59,0,0,0,10.74,2.39,24.41,24.41,0,0,0,9.76-1.78A25.43,25.43,0,0,0,128,121a26.33,26.33,0,0,0,5-6.14,45.8,45.8,0,0,0,3.19-6.57,2.49,2.49,0,0,1,2.45-.49,3.36,3.36,0,0,1,2.21,1.35,78.67,78.67,0,0,1-2.08,12,34.24,34.24,0,0,1-2.58,7.24q-5.16,1.47-11.35,3a56.65,56.65,0,0,1-13.57,1.53,75.68,75.68,0,0,1-17.67-2.08,39.78,39.78,0,0,1-15.34-7.24,47.37,47.37,0,0,1-6.14-5.71,34.43,34.43,0,0,1-4.91-7.12A40.14,40.14,0,0,1,63.84,102a42.31,42.31,0,0,1-1.23-10.55,43.56,43.56,0,0,1,4.3-19.27,35.24,35.24,0,0,1,4.66-7.3,47.39,47.39,0,0,1,5.89-6A43.87,43.87,0,0,1,92.93,50.7,63,63,0,0,1,111.46,48,72,72,0,0,1,120.17,48.49Z" transform="translate(-12.21 -15.44)"/><path class="cls-3" d="M187.8,114.16a19.49,19.49,0,0,0,.37,5.21,9,9,0,0,0,1.35,3.19,5.33,5.33,0,0,0,1.84,1.66,4.35,4.35,0,0,0,2,.49,7.34,7.34,0,0,0,2.14-.31,11.61,11.61,0,0,0,2.52-1.16,1.66,1.66,0,0,1,1.29,1,2.49,2.49,0,0,1,.18,1.78,16.29,16.29,0,0,1-1.9,1.84,22.89,22.89,0,0,1-3.13,2.21,19.4,19.4,0,0,1-4.17,1.84,16.73,16.73,0,0,1-5,.74,12.73,12.73,0,0,1-5.52-1.11,21.76,21.76,0,0,1-4.79-3.19,4.22,4.22,0,0,0-2-1,5.15,5.15,0,0,0-2.58,1.35,36.07,36.07,0,0,1-4.29,2.58,13.09,13.09,0,0,1-6.14,1.35,16.57,16.57,0,0,1-5.15-.8,12.94,12.94,0,0,1-4.36-2.39,12.1,12.1,0,0,1-3.07-4,12.9,12.9,0,0,1-1.17-5.71,10.38,10.38,0,0,1,3-7.67q3-3,9.76-5.09c2.37-.74,4.46-1.37,6.26-1.91l5.28-1.53a5.08,5.08,0,0,0,2.27-1.1,2.7,2.7,0,0,0,.67-1.35c.08-.66.14-1.33.19-2s.06-1.41.06-2.15a19.59,19.59,0,0,0-.37-3.62,11.71,11.71,0,0,0-1.23-3.44,7.67,7.67,0,0,0-2.21-2.51,5.43,5.43,0,0,0-3.31-1,6,6,0,0,0-4,1.53q-1.79,1.53-2.39,5.46a5.68,5.68,0,0,1-.68,2.4,5.16,5.16,0,0,1-1.41,1.53,11,11,0,0,1-1.9,1c-.78.33-1.58.64-2.4.92a18.66,18.66,0,0,1-2.45.68,11.23,11.23,0,0,1-2.09.24,2.45,2.45,0,0,1-2.21-.92,3.77,3.77,0,0,1-.61-2.15A8.94,8.94,0,0,1,148.28,92a20.06,20.06,0,0,1,4.05-4.36,43.78,43.78,0,0,1,3.81-2.57,34.06,34.06,0,0,1,4.91-2.46,36.09,36.09,0,0,1,5.7-1.78,28.25,28.25,0,0,1,6.2-.67c5.16,0,9.14,1.37,12,4.11S189,91.57,188.66,98ZM173.07,111a7,7,0,0,0,0-1.9c-.08-.28-.36-.39-.86-.31a17.27,17.27,0,0,0-7.18,2.46,6.74,6.74,0,0,0-3.13,6.14,7.79,7.79,0,0,0,1.85,5.15,5.57,5.57,0,0,0,4.41,2.21c1.89,0,3.13-.53,3.75-1.59a9,9,0,0,0,.92-4.42Z" transform="translate(-12.21 -15.44)"/><path class="cls-3" d="M201.55,128.88a17.5,17.5,0,0,1-1.6-5.7,38.86,38.86,0,0,1-.37-8.17,2.41,2.41,0,0,1,2.09-1,2.28,2.28,0,0,1,2.09.8,24.78,24.78,0,0,0,1.78,4,21.83,21.83,0,0,0,2.76,4,15.34,15.34,0,0,0,3.62,3.07,8.32,8.32,0,0,0,4.36,1.22,6.65,6.65,0,0,0,4.6-1.59,6.14,6.14,0,0,0,1.78-4.79,7.1,7.1,0,0,0-2.46-5.52,22.44,22.44,0,0,0-5.64-3.69,33.89,33.89,0,0,1-9.15-6.38A12.41,12.41,0,0,1,201.92,96a15,15,0,0,1,1.53-7,14,14,0,0,1,4.23-4.91,19.34,19.34,0,0,1,6.26-2.94,27.87,27.87,0,0,1,7.49-1,35,35,0,0,1,8.41.92,15.78,15.78,0,0,1,4.72,1.65,23,23,0,0,1,1.35,5.4,46.61,46.61,0,0,1,.5,6.88,1.1,1.1,0,0,1-.74.73,4.35,4.35,0,0,1-1.29.31,3.87,3.87,0,0,1-1.35-.12,2.12,2.12,0,0,1-.92-.43q-1.85-5.52-4.17-7.61a7.88,7.88,0,0,0-5.4-2.09,6.73,6.73,0,0,0-4.42,1.41,4.87,4.87,0,0,0-1.72,4,5.5,5.5,0,0,0,1.84,3.93,23.7,23.7,0,0,0,6,3.93,29.9,29.9,0,0,1,9.89,7.06,14.77,14.77,0,0,1,3.62,10.12,16.19,16.19,0,0,1-1.78,7.24,15,15,0,0,1-4.48,5.1,20.94,20.94,0,0,1-6.57,3.07,30.59,30.59,0,0,1-8.16,1Q206.45,132.69,201.55,128.88Z" transform="translate(-12.21 -15.44)"/><path class="cls-3" d="M250.4,62.73a36.73,36.73,0,0,0-.25-5.16A3.84,3.84,0,0,0,247.94,55l-2.08-1.23a3,3,0,0,1,0-3.68,73.54,73.54,0,0,0,8.77-2.89q4.85-1.91,10-4a2.61,2.61,0,0,1,2.09.86c-.16,2.54-.27,5.18-.31,7.92s-.06,6.07-.06,10V84.58c0,1,.29,1.47.86,1.47a9.64,9.64,0,0,0,2-1,31.16,31.16,0,0,1,5.7-3.19,19.88,19.88,0,0,1,8.41-1.72A17.55,17.55,0,0,1,290,81.38a13.54,13.54,0,0,1,4.85,3.32,13.94,13.94,0,0,1,2.88,4.91,18,18,0,0,1,1,6v21.11q0,3.19.18,5.1a9.26,9.26,0,0,0,.67,2.94,2.59,2.59,0,0,0,1.48,1.41,13.27,13.27,0,0,0,2.57.62l2,.24a2.77,2.77,0,0,1,.74,2.21,2.21,2.21,0,0,1-.86,2.09q-3-.26-6.69-.31t-8.16-.06c-2.63,0-5.14,0-7.55.06s-4.32.14-5.71.31a2.21,2.21,0,0,1-.86-2.09,2.77,2.77,0,0,1,.74-2.21l2.21-.37a7.31,7.31,0,0,0,1.71-.55,2.19,2.19,0,0,0,1-1.16,8.19,8.19,0,0,0,.49-2.34q.12-1.47.12-4.05V97.34a8.8,8.8,0,0,0-2-5.77q-2-2.44-6.56-2.45a8.87,8.87,0,0,0-4.36,1,7.8,7.8,0,0,0-2.51,2,7.91,7.91,0,0,0-1,4.54v22q0,2.58.12,4.05A7.82,7.82,0,0,0,267,125a2.14,2.14,0,0,0,1,1.16,7.25,7.25,0,0,0,1.72.55l2.21.37a2.77,2.77,0,0,1,.73,2.21,2.21,2.21,0,0,1-.86,2.09c-2-.17-4-.27-6.07-.31s-4.61-.06-7.55-.06c-2.54,0-5,0-7.49.06s-4.74.14-6.87.31a2.21,2.21,0,0,1-.86-2.09,2.74,2.74,0,0,1,.74-2.21l2.21-.24a11.84,11.84,0,0,0,2.39-.62,2.63,2.63,0,0,0,1.41-1.41,8.22,8.22,0,0,0,.61-2.94c.08-1.27.13-3,.13-5.1Z" transform="translate(-12.21 -15.44)"/><path class="cls-3" d="M367.43,131.09a25.69,25.69,0,0,1-8.72-4.72,23.08,23.08,0,0,1-6-7.86,25.3,25.3,0,0,1-2.27-11.11,26,26,0,0,1,2.27-11.72A25.61,25.61,0,0,1,359,87.15a26.81,26.81,0,0,1,9.08-5.21,32,32,0,0,1,10.56-1.78A32.73,32.73,0,0,1,389,81.81a25.66,25.66,0,0,1,8.77,5A24.33,24.33,0,0,1,403.88,95a26.68,26.68,0,0,1,2.27,11.29A28,28,0,0,1,403.88,118a23,23,0,0,1-6.14,8.22,25.5,25.5,0,0,1-9,4.85,36.15,36.15,0,0,1-10.8,1.6A33.91,33.91,0,0,1,367.43,131.09ZM371,90.22q-2.88,4.43-2.88,14.48a50.54,50.54,0,0,0,.74,8.9,28.51,28.51,0,0,0,2.14,7.12,12.74,12.74,0,0,0,3.5,4.67,7.51,7.51,0,0,0,4.79,1.65,7,7,0,0,0,4.48-1.41,9.45,9.45,0,0,0,2.82-3.93,22.6,22.6,0,0,0,1.47-6,62.45,62.45,0,0,0,.43-7.67,60.79,60.79,0,0,0-.79-8.53,32.07,32.07,0,0,0-2-7.06,14,14,0,0,0-3.19-4.85,6.52,6.52,0,0,0-4.6-1.78C375.22,85.8,372.91,87.28,371,90.22Z" transform="translate(-12.21 -15.44)"/><path class="cls-3" d="M420.26,98.2A32.49,32.49,0,0,0,420,93a3.83,3.83,0,0,0-2-2.64l-1.72-1.1a2.06,2.06,0,0,1-.73-1.84,2.26,2.26,0,0,1,.73-1.84q2.09-.61,4.73-1.48t5.15-1.84q2.52-1,4.73-2a27.82,27.82,0,0,0,3.56-1.84,2.93,2.93,0,0,1,2.21,1.1,28.94,28.94,0,0,1-.19,3.13q-.18,1.78-.18,2.4c0,.65.2,1,.61,1a2.39,2.39,0,0,0,1.05-.37,9.33,9.33,0,0,1,1.29-.61c.65-.41,1.49-.9,2.51-1.48A27,27,0,0,1,445.12,82a38,38,0,0,1,4-1.29,16.14,16.14,0,0,1,4.17-.55A17.1,17.1,0,0,1,460,81.38a13.65,13.65,0,0,1,4.79,3.32,14.1,14.1,0,0,1,2.88,4.91,18.3,18.3,0,0,1,1,6v21.11c0,2.13,0,3.83.13,5.1a7.33,7.33,0,0,0,.67,2.94,2.86,2.86,0,0,0,1.47,1.41,12.27,12.27,0,0,0,2.64.62l2,.24a2.77,2.77,0,0,1,.73,2.21,2.21,2.21,0,0,1-.86,2.09q-2.82-.26-6.62-.31t-8.23-.06c-2.45,0-4.83,0-7.12.06s-4.33.14-6.13.31c-.58-.33-.86-1-.86-2.09a2.77,2.77,0,0,1,.73-2.21l2.21-.37a7.25,7.25,0,0,0,1.72-.55,2.14,2.14,0,0,0,1-1.16,7.56,7.56,0,0,0,.49-2.34c.08-1,.13-2.33.13-4.05V97.83a9.79,9.79,0,0,0-2-6.2q-2-2.5-6.63-2.51a8.83,8.83,0,0,0-4.35,1,7.86,7.86,0,0,0-2.52,2,3.21,3.21,0,0,0-.8,1.78,18.41,18.41,0,0,0-.18,2.76v22q0,2.46.06,4a7.45,7.45,0,0,0,.43,2.46,2.46,2.46,0,0,0,1,1.29,5.5,5.5,0,0,0,2,.49l2,.24a2.77,2.77,0,0,1,.74,2.21,2.21,2.21,0,0,1-.86,2.09c-2-.17-4-.27-6.07-.31S430.94,131,428,131q-3.93,0-7.61.06t-6.88.31a2.21,2.21,0,0,1-.86-2.09,2.77,2.77,0,0,1,.74-2.21l2-.24a13.21,13.21,0,0,0,2.58-.62,2.54,2.54,0,0,0,1.47-1.41,9,9,0,0,0,.68-2.94q.18-1.9.18-5.1Z" transform="translate(-12.21 -15.44)"/><path class="cls-3" d="M62.61,217.13c0-2.94,0-5.32-.13-7.12a15.54,15.54,0,0,0-.67-4.29A4,4,0,0,0,60,203.45a9.15,9.15,0,0,0-3.32-.92l-2.33-.25a1.33,1.33,0,0,1-.67-.92,5.05,5.05,0,0,1-.19-1.41c0-1.15.37-1.8,1.11-2q7.73-.48,15.4-.79t17.49-.31a119.44,119.44,0,0,1,15,.92,67.72,67.72,0,0,1,13.62,3.13,38.58,38.58,0,0,1,10.68,5.89,38,38,0,0,1,7.85,8.35,35.22,35.22,0,0,1,4.79,10.12,40.07,40.07,0,0,1,1.6,11.24q0,12.63-5.59,21.9a39.55,39.55,0,0,1-16.39,14.79,49.45,49.45,0,0,1-13.93,4.48A102.31,102.31,0,0,1,88,279c-2.86,0-5.75-.12-8.65-.37s-5.46-.36-7.67-.36q-8.72,0-19.15.36c-.49-.32-.74-1.06-.74-2.21a2.58,2.58,0,0,1,.74-2.08l3.81-.61a18.26,18.26,0,0,0,3.31-.86,3.65,3.65,0,0,0,1.9-1.78,9.87,9.87,0,0,0,.86-3.75c.12-1.63.19-3.88.19-6.75ZM80.16,256a79.83,79.83,0,0,0,.37,8.53,8.78,8.78,0,0,0,2.08,5.22q3.56,3.56,10.19,3.56a26.32,26.32,0,0,0,13.44-3.19,25.54,25.54,0,0,0,8.77-8.35,36.19,36.19,0,0,0,4.79-11.48,55.31,55.31,0,0,0,1.47-12.58q0-16.56-8.59-25.9T87.4,202.53q-5.16,0-6.38,1.59a4.45,4.45,0,0,0-.74,2.52c-.08,1.19-.12,2.72-.12,4.6Z" transform="translate(-12.21 -15.44)"/><path class="cls-3" d="M168,249.17a5.27,5.27,0,0,0-2.58.37c-.33.24-.49.85-.49,1.84a20.85,20.85,0,0,0,1.1,6.69,18.17,18.17,0,0,0,3.26,5.83,15.57,15.57,0,0,0,5.4,4.11,17.52,17.52,0,0,0,7.55,1.53,23.35,23.35,0,0,0,2.82-.18,9.93,9.93,0,0,0,2.94-.86,12.14,12.14,0,0,0,3-2,13.48,13.48,0,0,0,2.7-3.37,2.72,2.72,0,0,1,3.19,2.82,25.34,25.34,0,0,1-9.94,10.86,21.52,21.52,0,0,1-5.83,2.4,24.1,24.1,0,0,1-5.71.73,27.69,27.69,0,0,1-11-2,23.68,23.68,0,0,1-8-5.46,22.77,22.77,0,0,1-4.91-8,27.6,27.6,0,0,1-1.66-9.57,29.39,29.39,0,0,1,2-10.8,25.73,25.73,0,0,1,5.52-8.72,26.42,26.42,0,0,1,8.41-5.83,25.93,25.93,0,0,1,10.61-2.15,23.57,23.57,0,0,1,8.47,1.41,17.37,17.37,0,0,1,6.14,3.87,16.79,16.79,0,0,1,3.74,5.65,17.82,17.82,0,0,1,1.29,6.75,5.23,5.23,0,0,1-.73,2.94c-.5.74-1.72,1.11-3.69,1.11Zm8.1-5.4a14.85,14.85,0,0,0,2.64-.25,6.56,6.56,0,0,0,2.39-.86,1.49,1.49,0,0,0,.68-1.1,8.38,8.38,0,0,0,.18-1.72,7,7,0,0,0-1.66-4.91,6.17,6.17,0,0,0-4.85-1.84,8.32,8.32,0,0,0-3.62.86,11.19,11.19,0,0,0-3.07,2.15,11.48,11.48,0,0,0-2.08,2.82,6.49,6.49,0,0,0-.8,3,1.49,1.49,0,0,0,1.35,1.53,21,21,0,0,0,4.3.31Z" transform="translate(-12.21 -15.44)"/><path class="cls-3" d="M206.82,210a37.11,37.11,0,0,0-.24-5.15,3.9,3.9,0,0,0-2.21-2.58l-2.09-1.23a2.48,2.48,0,0,1-.61-1.84,2.51,2.51,0,0,1,.61-1.84,76.8,76.8,0,0,0,9-2.94q5.1-2,9.76-3.93a2.61,2.61,0,0,1,2.09.86q-.26,3.79-.31,7.91c0,2.75-.06,6.08-.06,10V264c0,2.13,0,3.82.12,5.09a8.56,8.56,0,0,0,.61,2.95,2.68,2.68,0,0,0,1.42,1.41,11.51,11.51,0,0,0,2.64.61l2.08.25a2.77,2.77,0,0,1,.74,2.21,2.19,2.19,0,0,1-.86,2.08q-3.08-.24-6.81-.3c-2.5-.05-5.14-.06-7.92-.06-2.62,0-5.2,0-7.73.06s-4.87.14-7,.3a2.19,2.19,0,0,1-.86-2.08,2.77,2.77,0,0,1,.74-2.21l2.33-.25a7,7,0,0,0,2.39-.55,3,3,0,0,0,1.42-1.47,8.56,8.56,0,0,0,.61-2.95c.08-1.27.12-3,.12-5.09Z" transform="translate(-12.21 -15.44)"/><path class="cls-3" d="M257.88,264c0,2.13,0,3.82.12,5.09a9.81,9.81,0,0,0,.56,2.95,2.64,2.64,0,0,0,1.35,1.47,7.26,7.26,0,0,0,2.51.55l2.34.25a2.77,2.77,0,0,1,.73,2.21,2.19,2.19,0,0,1-.86,2.08q-3.19-.24-6.81-.3c-2.41-.05-5-.06-7.92-.06s-5.42,0-7.91.06-4.77.14-6.81.3c-.58-.32-.86-1-.86-2.08a2.77,2.77,0,0,1,.73-2.21l2.33-.25a7,7,0,0,0,2.4-.55,3,3,0,0,0,1.41-1.47,8.33,8.33,0,0,0,.61-2.95c.08-1.27.13-3,.13-5.09V245.48a32,32,0,0,0-.31-5.21,3.81,3.81,0,0,0-2-2.64l-1.71-1.1a2.06,2.06,0,0,1-.74-1.85,2.24,2.24,0,0,1,.74-1.84q2.09-.61,4.72-1.47t5.16-1.84c1.67-.66,3.25-1.31,4.72-2a26.59,26.59,0,0,0,3.56-1.84,2.91,2.91,0,0,1,2.21,1.11c-.16,1.88-.27,4.09-.31,6.63s-.06,5.19-.06,8Zm-1.41-61.68a8.65,8.65,0,0,1,2.39,6.2q0,4.54-2.88,6.75a10.18,10.18,0,0,1-6.32,2.21,8.2,8.2,0,0,1-6.32-2.45,8.85,8.85,0,0,1-2.27-6.26,8.34,8.34,0,0,1,2.76-6.45,9.29,9.29,0,0,1,6.44-2.51A8.18,8.18,0,0,1,256.47,202.34Z" transform="translate(-12.21 -15.44)"/><path class="cls-3" d="M266.1,233.09a3.42,3.42,0,0,1-.85-2.21,1.92,1.92,0,0,1,1.22-2.09q3.43.26,6.88.31t8.34.06q3.44,0,6.81-.12l6.82-.25c.57.33.85,1.07.85,2.21a2.9,2.9,0,0,1-.61,2.09l-2,.49c-.74.24-1.27.43-1.6.55a.67.67,0,0,0-.49.68,8.1,8.1,0,0,0,.31,1.72,24.79,24.79,0,0,0,.8,2.57q1.83,5.16,3.8,9.88t3.93,9.15q2.08-4.66,4.23-9.58c1.43-3.27,2.81-6.79,4.11-10.55a9.58,9.58,0,0,0,.56-1.72,7,7,0,0,0,.18-1.35q0-.74-2.94-1.47l-1.72-.37c-.58-.33-.86-1.06-.86-2.21a2.26,2.26,0,0,1,1-2.09c2,.17,3.68.27,5.15.31s3.11.06,4.91.06q3,0,5.22-.12l4.24-.25a2.28,2.28,0,0,1,1,2.09c0,1.15-.25,1.88-.74,2.21l-2.09.37a7.62,7.62,0,0,0-4,1.84,17.58,17.58,0,0,0-3.14,4.91q-4.79,9.57-9,19.27t-8.53,19.64a3.88,3.88,0,0,1-2.82.85,5,5,0,0,1-2.95-.85q-2.44-5.78-4.29-10.07t-3.68-8.41l-3.87-8.59q-2-4.47-4.85-10.62c-.73-1.55-1.37-2.78-1.9-3.68a16.35,16.35,0,0,0-1.47-2.15,4.2,4.2,0,0,0-1.48-1.16,18.1,18.1,0,0,0-1.9-.74Z" transform="translate(-12.21 -15.44)"/><path class="cls-3" d="M344.9,249.17a5.29,5.29,0,0,0-2.58.37c-.32.24-.49.85-.49,1.84a20.59,20.59,0,0,0,1.11,6.69,18.14,18.14,0,0,0,3.25,5.83,15.57,15.57,0,0,0,5.4,4.11,17.55,17.55,0,0,0,7.55,1.53,23.22,23.22,0,0,0,2.82-.18,10,10,0,0,0,3-.86,12.29,12.29,0,0,0,2.94-2,13.27,13.27,0,0,0,2.7-3.37,2.72,2.72,0,0,1,3.19,2.82,25.34,25.34,0,0,1-9.94,10.86,21.39,21.39,0,0,1-5.83,2.4,24,24,0,0,1-5.7.73,27.7,27.7,0,0,1-11-2,23.68,23.68,0,0,1-8-5.46,22.92,22.92,0,0,1-4.91-8,27.83,27.83,0,0,1-1.65-9.57,29.39,29.39,0,0,1,2-10.8,26,26,0,0,1,5.52-8.72,26.64,26.64,0,0,1,8.41-5.83,25.94,25.94,0,0,1,10.62-2.15,23.61,23.61,0,0,1,8.47,1.41,17.33,17.33,0,0,1,6.13,3.87,16.82,16.82,0,0,1,3.75,5.65,17.82,17.82,0,0,1,1.29,6.75,5.22,5.22,0,0,1-.74,2.94c-.49.74-1.72,1.11-3.68,1.11Zm8.1-5.4a14.85,14.85,0,0,0,2.64-.25,6.49,6.49,0,0,0,2.39-.86,1.46,1.46,0,0,0,.68-1.1,8.38,8.38,0,0,0,.18-1.72,7.08,7.08,0,0,0-1.65-4.91,6.2,6.2,0,0,0-4.85-1.84,8.26,8.26,0,0,0-3.62.86,11,11,0,0,0-3.07,2.15,11.28,11.28,0,0,0-2.09,2.82,6.49,6.49,0,0,0-.8,3,1.49,1.49,0,0,0,1.35,1.53,21,21,0,0,0,4.3.31Z" transform="translate(-12.21 -15.44)"/><path class="cls-3" d="M384.67,245.73a31.09,31.09,0,0,0-.31-5.22,3.78,3.78,0,0,0-2-2.63l-1.72-1.11a2.06,2.06,0,0,1-.74-1.84,2.26,2.26,0,0,1,.74-1.84q2.08-.61,4.6-1.47c1.68-.58,3.33-1.21,5-1.91s3.19-1.39,4.67-2.08,2.7-1.33,3.68-1.91a2.91,2.91,0,0,1,2.21,1.11c-.17,1.23-.29,2.27-.37,3.13s-.12,1.57-.12,2.15.41,1.14,1.22,1.47A21.37,21.37,0,0,0,404,231.8c.86-.69,1.78-1.37,2.76-2a18,18,0,0,1,3.13-1.65,9.52,9.52,0,0,1,3.62-.68,6.86,6.86,0,0,1,4.6,1.9,6.74,6.74,0,0,1,2.15,5.34c0,2.87-.82,4.91-2.45,6.14a8.8,8.8,0,0,1-5.4,1.84,6.94,6.94,0,0,1-4.79-2.21,12.29,12.29,0,0,0-3.13-2.08A5.18,5.18,0,0,0,403,238q-2.34,0-2.34,7.36v18.9c0,2.13.05,3.83.13,5.1a9.42,9.42,0,0,0,.55,2.94,2.46,2.46,0,0,0,1.35,1.42,8.88,8.88,0,0,0,2.52.49l3.92.36a3,3,0,0,1,.74,2.21,2.21,2.21,0,0,1-.86,2.09c-2.94-.17-5.73-.27-8.35-.31s-5.36-.06-8.22-.06c-2.54,0-5.07,0-7.61.06s-4.83.14-6.87.31a2.21,2.21,0,0,1-.86-2.09,3,3,0,0,1,.73-2.21l2.34-.24a8.54,8.54,0,0,0,2.39-.49,2.69,2.69,0,0,0,1.41-1.41,8.7,8.7,0,0,0,.62-3q.12-2,.12-5.16Z" transform="translate(-12.21 -15.44)"/><path class="cls-3" d="M419.16,233.09a2.89,2.89,0,0,1-.68-2.27,2.16,2.16,0,0,1,1-2q3.32.26,7.31.31c2.66,0,5.62.06,8.9.06q6.87,0,13.74-.37a2.14,2.14,0,0,1,1,2,2.89,2.89,0,0,1-.67,2.27l-2.45.49a28.07,28.07,0,0,0-3.2,1c-.32.17-.49.61-.49,1.35a12.25,12.25,0,0,0,1,3.68c.66,1.72,1.56,4.14,2.71,7.24.32.91.73,2,1.22,3.26s1,2.57,1.54,3.93,1,2.63,1.53,3.86.9,2.21,1.23,2.95c.65-1.31,1.29-2.64,1.9-4s1.25-2.72,1.9-4.11l2.21-5c1.31-2.86,2.4-5.48,3.25-7.85a19,19,0,0,0,1.29-4.54,1.24,1.24,0,0,0-.79-1.05,7.62,7.62,0,0,0-1.91-.67l-2.45-.49a3.32,3.32,0,0,1-.61-2.33c0-1.15.32-1.8,1-2,1.39.17,3,.27,4.91.31s4.21.06,7,.06c3.19,0,6.39-.12,9.58-.37a3,3,0,0,1,1.1,2,2.2,2.2,0,0,1-.86,2.27l-2.33.24a12.07,12.07,0,0,0-3.31.92,6.2,6.2,0,0,0-2.34,1.78c-.65,1-1.67,2.66-3.06,5s-2.79,5-4.18,7.85l-6.5,13.38q-1.73,3.31-4.18,8.47t-5.15,10.68q-2.7,5.52-5.16,10.8T440,301a15.67,15.67,0,0,1-4.54,6.08,10.47,10.47,0,0,1-6,2,10,10,0,0,1-4-.67,6.42,6.42,0,0,1-2.4-1.72,5.69,5.69,0,0,1-1.16-2.33,11.09,11.09,0,0,1-.31-2.64,6.09,6.09,0,0,1,1.84-4.6,7.11,7.11,0,0,1,5.16-1.78h2.94a8.41,8.41,0,0,0,3.62-.68,6.82,6.82,0,0,0,2.4-1.9,22.65,22.65,0,0,0,1.84-3.07c.57-1.15,1.14-2.37,1.72-3.68a21.17,21.17,0,0,0,1.16-2.58,7.44,7.44,0,0,0,.55-2.58,15.46,15.46,0,0,0-.43-3.19,42.67,42.67,0,0,0-1.9-5.77l-11.78-29.7a31.45,31.45,0,0,0-3.07-6.32,6.2,6.2,0,0,0-4.3-2.39Z" transform="translate(-12.21 -15.44)"/></svg>