<svg id="Layer_1" data-name="Layer 1" xmlns="http://www.w3.org/2000/svg" xmlns:xlink="http://www.w3.org/1999/xlink" viewBox="0 0 809.62 56.27"><defs><style>.cls-1{fill:#203a70;}.cls-1,.cls-2,.cls-3,.cls-4,.cls-5,.cls-6,.cls-7{fill-rule:evenodd;}.cls-2{fill:#fcb130;}.cls-3{fill:#ec2030;}.cls-12,.cls-4{fill:#fff;}.cls-5{fill:#e0dfe0;}.cls-6{fill:#015481;}.cls-7{fill:#f1a71f;}.cls-8{fill:#fbb040;}.cls-9{fill:#1b75bc;}.cls-10{fill:#4c2770;}.cls-11{fill:#e7630d;}.cls-13{fill:#58585a;}.cls-14{fill:#f26232;}.cls-15{fill:#3a3a3c;}.cls-16{fill:#6d6e71;}.cls-17{fill:url(#linear-gradient);}</style><linearGradient id="linear-gradient" x1="546.02" y1="56.29" x2="602.41" y2="-0.11" gradientUnits="userSpaceOnUse"><stop offset="0" stop-color="#ef4030"/><stop offset="1" stop-color="#f68933"/></linearGradient></defs><title>iconBankEnglish</title><path id="svg_2" data-name="svg 2" class="cls-1" d="M84.2.39H3.78A4.53,4.53,0,0,0,.7,1.13,4.52,4.52,0,0,0,0,4V52.21c0,2.46,1.27,3.73,3.76,3.73H84.2c2.61,0,3.92-1.27,3.92-3.73V4C88.12,1.56,86.81.39,84.2.39Z" transform="translate(0 0.05)"/><g id="svg_36" data-name="svg 36"><path id="svg_13" data-name="svg 13" class="cls-2" d="M44,40.44a16.63,16.63,0,1,0-1-1C43.34,39.77,43.68,40.11,44,40.44Z" transform="translate(0 0.05)"/><path id="svg_14" data-name="svg 14" class="cls-2" d="M69.34,37.39a.54.54,0,1,1,.54.54h0a.53.53,0,0,1-.53-.53Zm.52.4a.42.42,0,0,0,.35-.48h0a.42.42,0,0,0-.35-.35.42.42,0,0,0-.35.48h0A.42.42,0,0,0,69.86,37.79Zm-.07-.17h-.11v-.47H70a.14.14,0,0,1,.06.12.14.14,0,0,1-.09.12l.09.21H70l-.1-.21h0m0,0h-.12v.4Z" transform="translate(0 0.05)"/><path id="svg_15" data-name="svg 15" class="cls-3" d="M49.36,26.39c-.07-.6-.16-1.19-.28-1.75H39a14.82,14.82,0,0,1,.49-1.73h9.11c-.21-.6-.43-1.18-.69-1.75H40.2a17,17,0,0,1,1-1.76H47a12.72,12.72,0,0,0-1.26-1.75H42.39A22,22,0,0,1,44,15.94a16.35,16.35,0,0,0-11-4.29,16.55,16.55,0,0,0,0,33.09,16.36,16.36,0,0,0,11-4.28h0a19.85,19.85,0,0,0,1.67-1.76h-3.3a13.66,13.66,0,0,1-1.25-1.76H47A16.34,16.34,0,0,0,48,35.19H40.2a17.9,17.9,0,0,1-.7-1.76h9.1c.19-.57.34-1.15.48-1.75a17,17,0,0,0,.28-1.74c0-.56.08-1.15.08-1.75a14.15,14.15,0,0,0-.08-1.72Z" transform="translate(0 0.05)"/><path id="svg_16" data-name="svg 16" class="cls-4" d="M69.34,32a.54.54,0,1,1,.55.53h0a.52.52,0,0,1-.53-.51h0Zm.52.39a.4.4,0,0,0,.39-.41h0a.4.4,0,1,0-.39.41Zm-.07-.17h-.11v-.46H70a.23.23,0,0,1,.06.12A.14.14,0,0,1,70,32l.09.2H70L69.89,32H69.8v-.08h.12v-.11c0-.06,0,0-.07,0h0v.38Z" transform="translate(0 0.05)"/><path id="svg_17" data-name="svg 17" class="cls-1" d="M38.45,32.94a4.7,4.7,0,0,1-1.34.22,1.32,1.32,0,0,1-1.37-1.27h0v-.22a4.32,4.32,0,0,1,0-.62l.11-.67.08-.54.78-4.66h1.72l-.21,1h1.07l-.26,1.76H38l-.46,2.78a1.31,1.31,0,0,0,0,.28c0,.34.19.5.61.5a2.07,2.07,0,0,0,.55-.11Z" transform="translate(0 0.05)"/><path id="svg_18" data-name="svg 18" class="cls-1" d="M44,32.94a6.29,6.29,0,0,1-1.83.27,2.75,2.75,0,0,1-3-2.45,2.08,2.08,0,0,1,0-.61c0-2.34,1.32-4.08,3.11-4.08a2.29,2.29,0,0,1,2.41,2.16,1.71,1.71,0,0,1,0,.32,7.4,7.4,0,0,1-.23,1.69H40.86a.67.67,0,0,0,0,.2c0,.79.54,1.21,1.57,1.21a4.3,4.3,0,0,0,1.86-.43Zm-1-4.06v-.35a.78.78,0,0,0-.68-.87h-.16c-.57,0-1,.43-1.13,1.22Z" transform="translate(0 0.05)"/><polygon id="svg_19" data-name="svg 19" class="cls-1" points="24.84 33.07 23.05 33.07 24.06 26.62 21.79 33.07 20.57 33.07 20.42 26.66 19.35 33.07 17.61 33.07 19.01 24.68 21.57 24.68 21.66 29.87 23.37 24.68 26.2 24.68 24.84 33.07"/><path id="svg_20" data-name="svg 20" class="cls-1" d="M29.11,30h-.34c-1,0-1.53.4-1.53,1a.63.63,0,0,0,.55.69h.09c.86,0,1.2-.69,1.23-1.68Zm1.42,3H29v-.7a2.1,2.1,0,0,1-1.87.82,1.69,1.69,0,0,1-1.59-1.78v-.07a3,3,0,0,1,.14-.9c.28-1.05,1.34-1.72,3-1.73h.79a2.34,2.34,0,0,0,.07-.45c0-.44-.38-.6-1.2-.6a5.29,5.29,0,0,0-1.48.21l-.24.07h-.11l.2-1.48A6.75,6.75,0,0,1,28.82,26c1.53,0,2.33.69,2.33,2a6.22,6.22,0,0,1-.08,1.36l-.38,2.43-.07.43-.05.34V33Z" transform="translate(0 0.05)"/><path id="svg_21" data-name="svg 21" class="cls-1" d="M52.56,26.27a3.54,3.54,0,0,1,1.59.44l.3-1.82L54,24.72l-.74-.19a3.48,3.48,0,0,0-.79-.09,3.38,3.38,0,0,0-2,.35,4.33,4.33,0,0,0-1.06.89l-.21-.07-1.82,1.33.08-.74H45.64L44.56,33h1.79L47,29.39s.26-.5.38-.66a1,1,0,0,1,1-.43h.12a9.32,9.32,0,0,0-.09,1.29c0,2.24,1.26,3.63,3.18,3.63A6.27,6.27,0,0,0,53.22,33l.31-1.91A3.46,3.46,0,0,1,52,31.5c-1,0-1.67-.77-1.67-2,0-1.84.91-3.13,2.26-3.13Z" transform="translate(0 0.05)"/><path id="svg_22" data-name="svg 22" class="cls-1" d="M67.64,24.63,67.2,27a1.83,1.83,0,0,0-1.63-1,2.64,2.64,0,0,0-2.34,1.55h0l-1.1-.63.09-.74H60.33L59.25,33H61l.6-3.64s.46-.52.57-.67a1,1,0,0,1,.79-.43,5.91,5.91,0,0,0-.33,2c0,1.7.88,2.83,2.18,2.83a2.11,2.11,0,0,0,1.66-.75L66.4,33h1.68l1.36-8.4h-1.8Zm-2.19,6.76c-.6,0-.91-.44-.91-1.34,0-1.34.57-2.28,1.4-2.28.61,0,.94.46.94,1.34C66.88,30.48,66.3,31.39,65.45,31.39Z" transform="translate(0 0.05)"/><path id="svg_23" data-name="svg 23" class="cls-1" d="M57.2,30h-.34c-1,0-1.53.4-1.53,1a.63.63,0,0,0,.55.69H56c.88,0,1.23-.69,1.24-1.68Zm1.41,3H57.1v-.7a2.1,2.1,0,0,1-1.87.82,1.72,1.72,0,0,1-1.65-1.79h0v-.08c0-1.62,1.22-2.63,3.15-2.63h.79a2.13,2.13,0,0,0,.07-.44c0-.45-.36-.61-1.21-.61a5.22,5.22,0,0,0-1.47.21l-.24.07h-.11l.24-1.53A6.68,6.68,0,0,1,56.88,26c1.53,0,2.34.69,2.34,2a5.78,5.78,0,0,1,0,1.44l-.38,2.42-.07.43V33Z" transform="translate(0 0.05)"/><path id="svg_24" data-name="svg 24" class="cls-1" d="M34.2,27.66a10,10,0,0,1,1.34.1l.26-1.58A10.69,10.69,0,0,0,34.2,26c-2,0-2.65,1.07-2.65,2.34a2,2,0,0,0,1.34,1.88c.73.34.85.41.85.72s-.37.67-1.07.67a4.81,4.81,0,0,1-1.6-.28l-.17,1.57h0l.32.07a1.49,1.49,0,0,1,.47.07c.43,0,.77.06,1,.06,2,0,2.81-.77,2.81-2.27a2,2,0,0,0-1.3-1.93c-.74-.34-.85-.39-.83-.7s.33-.6.86-.62Z" transform="translate(0 0.05)"/><path id="svg_25" data-name="svg 25" class="cls-4" d="M54.93,24.39l-.29,1.83a3.35,3.35,0,0,0-1.6-.45c-1.33,0-2.27,1.29-2.27,3.15,0,1.27.63,2,1.66,2A3.41,3.41,0,0,0,54,30.49l-.31,1.9a6,6,0,0,1-1.58.24c-1.93,0-3.12-1.39-3.12-3.63,0-3,1.65-5.09,4-5.09a3.48,3.48,0,0,1,.79.09l.74.19a3.12,3.12,0,0,1,.43.15Z" transform="translate(0 0.05)"/><path id="svg_26" data-name="svg 26" class="cls-4" d="M49.2,25.61H49c-.58,0-.91.31-1.46,1.11l.16-1H46.09L45,32.55H46.8c.64-4.18.81-4.9,1.67-4.9h.14a6.47,6.47,0,0,1,.67-2Z" transform="translate(0 0.05)"/><path id="svg_27" data-name="svg 27" class="cls-4" d="M38.9,32.39a4,4,0,0,1-1.29.23,1.31,1.31,0,0,1-1.42-1.21,1.41,1.41,0,0,1,0-.29V30.5l.11-.67.08-.53.81-4.66H39l-.21,1h.91l-.29,1.75h-.91l-.5,2.8v.28c0,.34.19.5.6.5a1.3,1.3,0,0,0,.48-.07l-.19,1.49Z" transform="translate(0 0.05)"/><path id="svg_28" data-name="svg 28" class="cls-4" d="M32,27.83a2,2,0,0,0,1.35,1.91c.73.34.83.45.83.76s-.33.62-1,.62a4.81,4.81,0,0,1-1.6-.28l-.21,1.55h.09l.33.07h.46c.43,0,.76,0,1,0,1.88,0,2.75-.72,2.75-2.27a1.86,1.86,0,0,0-1.25-1.85c-.74-.34-.83-.43-.83-.74s.3-.55.88-.55a8.94,8.94,0,0,1,1.27.1l.26-1.58a11.74,11.74,0,0,0-1.56-.14c-2,0-2.72,1-2.7,2.29Z" transform="translate(0 0.05)"/><path id="svg_29" data-name="svg 29" class="cls-4" d="M68.55,32.51H66.86l.09-.67a2.11,2.11,0,0,1-1.65.75c-1.29,0-2.15-1.13-2.15-2.83,0-2.27,1.32-4.18,2.91-4.18a2,2,0,0,1,1.7.93l.44-2.39H70L68.6,32.51Zm-2.63-1.57c.82,0,1.41-.94,1.41-2.3,0-.86-.33-1.34-1-1.34s-1.39.94-1.39,2.28C65,30.49,65.32,30.94,65.92,30.94Z" transform="translate(0 0.05)"/><path id="svg_30" data-name="svg 30" class="cls-4" d="M44.35,32.39a5.91,5.91,0,0,1-1.82.28,2.73,2.73,0,0,1-3-2.38,3.86,3.86,0,0,1,0-.68c0-2.34,1.33-4.08,3.12-4.08A2.27,2.27,0,0,1,45,27.67a1.22,1.22,0,0,1,0,.27,7.3,7.3,0,0,1-.22,1.68H41.26a.74.74,0,0,0,0,.21c0,.79.53,1.2,1.56,1.2a4.3,4.3,0,0,0,1.86-.43l-.31,1.72Zm-1-4.06a1.93,1.93,0,0,0,0-.34.8.8,0,0,0-.69-.88h-.15c-.57,0-1,.43-1.14,1.22Z" transform="translate(0 0.05)"/><polygon id="svg_31" data-name="svg 31" class="cls-4" points="25.28 32.56 23.5 32.56 24.53 26.11 22.24 32.56 21.02 32.56 20.88 26.14 19.8 32.56 18.13 32.56 19.52 24.16 22.09 24.16 22.17 29.36 23.89 24.16 26.66 24.16 25.28 32.56"/><path id="svg_32" data-name="svg 32" class="cls-4" d="M29.68,29.46h-.39c-1,0-1.53.34-1.53,1a.63.63,0,0,0,.55.69h.08C29.11,31.15,29.65,30.48,29.68,29.46Zm1.29,3H29.49v-.71a2.2,2.2,0,0,1-1.88.83A1.68,1.68,0,0,1,26,30.91v-.14c0-1.67,1.15-2.63,3.13-2.63a5.81,5.81,0,0,1,.72.05,2.34,2.34,0,0,0,.07-.45c0-.44-.31-.61-1.15-.61a5.27,5.27,0,0,0-1.48.18l-.29.08h-.16L27.19,26a7.74,7.74,0,0,1,2.14-.36c1.53,0,2.34.69,2.34,2A10.35,10.35,0,0,1,31.48,29l-.37,2.44-.09.4-.05.35v.32Z" transform="translate(0 0.05)"/><path id="svg_33" data-name="svg 33" class="cls-4" d="M57.8,29.46h-.39c-1,0-1.54.34-1.54,1a.63.63,0,0,0,.55.69h.09C57.25,31.15,57.77,30.48,57.8,29.46Zm1.31,3H57.63v-.71a2.19,2.19,0,0,1-1.87.83,1.68,1.68,0,0,1-1.57-1.78h0v-.07c0-1.67,1.16-2.63,3.13-2.63a6,6,0,0,1,.73.05,2.34,2.34,0,0,0,.07-.45c0-.44-.31-.61-1.16-.61a5.27,5.27,0,0,0-1.48.18l-.24.07h-.15l.19-1.44a7.73,7.73,0,0,1,2.13-.36c1.53,0,2.34.69,2.34,2a8.83,8.83,0,0,1-.14,1.36l-.36,2.5-.07.43-.06.35v.29Z" transform="translate(0 0.05)"/><path id="svg_34" data-name="svg 34" class="cls-4" d="M63.89,25.61h-.17c-.59,0-.91.31-1.47,1.11l.16-1H60.79l-1.08,6.83H61.5c.63-4.18.81-4.9,1.67-4.9h.12a6.47,6.47,0,0,1,.67-2Z" transform="translate(0 0.05)"/></g><path class="cls-5" d="M192,.54h-80.2a4.51,4.51,0,0,0-3.07.74,4.51,4.51,0,0,0-.68,2.86V52.22c0,2.45,1.27,3.72,3.75,3.72H192c2.61,0,3.91-1.27,3.91-3.72V4.13C195.88,1.71,194.58.54,192,.54Z" transform="translate(0 0.05)"/><path class="cls-6" d="M111.82.54a4.51,4.51,0,0,0-3.07.74,4.51,4.51,0,0,0-.68,2.86v9.25h87.81V4.14c0-2.41-1.3-3.58-3.91-3.58H111.82Z" transform="translate(0 0.05)"/><path class="cls-7" d="M108.07,52.22c0,2.45,1.27,3.72,3.75,3.72H192c2.61,0,3.91-1.27,3.91-3.72V42.94H108.07Z" transform="translate(0 0.05)"/><path class="cls-6" d="M138.36,20.8a1.6,1.6,0,0,1-.24,1L132.3,31.94l-.36-12.35h-9.29l3.12,1.49a2.57,2.57,0,0,1,1.35,2.23l.9,13.08h4.55l10.85-16.8h-5.58a1.61,1.61,0,0,1,.52,1.22Z" transform="translate(0 0.05)"/><path class="cls-6" d="M176,20.08l.36-.5h-5.68c.21.21.28.29.28.36-.07.26-.21.43-.28.64l-8.26,15.07c-.21.28-.4.5-.64.77h4.69l-.22-.48a7.22,7.22,0,0,1,.73-2.35l1-1.86h4.82c.2,1.56.32,2.87.39,3.83l-.39.89h5.81l-.86-1.27L176,20.09Zm-3.45,9.31H169l3-5.68Z" transform="translate(0 0.05)"/><path class="cls-6" d="M158.2,18.71a7.57,7.57,0,0,0-4.68,1.49,3.76,3.76,0,0,0-2.32,3.33,5.29,5.29,0,0,0,1.59,3.94L156,29.7c1.16.82,1.73,1.56,1.73,2.23a2,2,0,0,1-.86,1.63,3.12,3.12,0,0,1-2,.63c-1.16,0-3.15-.82-5.92-2.35v3.1a12.21,12.21,0,0,0,6.28,2,7.36,7.36,0,0,0,5-1.74,4.72,4.72,0,0,0,2.23-3.81,4.74,4.74,0,0,0-1.73-3.45l-3.09-2.23c-1-.82-1.6-1.56-1.6-2.12,0-1.31.78-2,2.34-2,1.06,0,2.62.6,4.71,1.85l.64-3.22A11.17,11.17,0,0,0,158.2,18.71Z" transform="translate(0 0.05)"/><path class="cls-6" d="M145.8,36.39c-.07-.71-.21-1.34-.27-2l4.21-13.62,1-1.24h-6.07c.07.29.14.71.2,1a5.6,5.6,0,0,1-.06,1L140.59,35l-.86,1.38Z" transform="translate(0 0.05)"/><path class="cls-5" d="M298.92.94H219.6c-1.55,0-2.51.23-3,.73a4.42,4.42,0,0,0-.68,2.83V52c0,2.43,1.26,3.68,3.72,3.68H299c2.58,0,3.87-1.25,3.87-3.68V4.39C302.79,2,301.5.94,298.92.94Z" transform="translate(0 0.05)"/><path class="cls-8" d="M235.86,6c.47.06.88.12,1.25.19l1,.2a4.62,4.62,0,0,0,.65.08V7.82a4.81,4.81,0,0,0,.07,1c.07.36.09.67.14,1a.52.52,0,0,1-.38.24q-.3.07-.42-.09a4.22,4.22,0,0,0-1.43-2.26,4.12,4.12,0,0,0-2.54-.77,4.24,4.24,0,0,0-1.75.38,4.58,4.58,0,0,0-1.56,1.16,5.93,5.93,0,0,0-1.12,1.91,7.76,7.76,0,0,0-.43,2.75,8.25,8.25,0,0,0,.42,2.79,6.33,6.33,0,0,0,1.11,2,4.48,4.48,0,0,0,1.59,1.24,4.25,4.25,0,0,0,4.76-.68,4.31,4.31,0,0,0,.85-1,6.65,6.65,0,0,0,.55-1.14.45.45,0,0,1,.43-.08.59.59,0,0,1,.38.23,14.59,14.59,0,0,1-.36,2.08,6.81,6.81,0,0,1-.45,1.24c-.59.17-1.24.34-2,.52a9.24,9.24,0,0,1-2.34.27,13,13,0,0,1-3.05-.36,6.88,6.88,0,0,1-2.65-1.28,9.1,9.1,0,0,1-1.06-1,6,6,0,0,1-.84-1.22,7.13,7.13,0,0,1-.79-3.33,7.76,7.76,0,0,1,.2-1.8,8.34,8.34,0,0,1,.54-1.52,6.44,6.44,0,0,1,.81-1.26,7.87,7.87,0,0,1,1-1,7.53,7.53,0,0,1,2.71-1.4,10.89,10.89,0,0,1,3.16-.47C234.86,5.94,235.36,6,235.86,6Z" transform="translate(0 0.05)"/><path class="cls-8" d="M247.52,17.39a2.72,2.72,0,0,0,.06.9,1.57,1.57,0,0,0,.23.55.87.87,0,0,0,.32.28.67.67,0,0,0,.34.09,1.15,1.15,0,0,0,.37,0,3.42,3.42,0,0,0,.43-.21.31.31,0,0,1,.22.18.55.55,0,0,1,0,.31,2.5,2.5,0,0,1-.33.32,4,4,0,0,1-.54.38,3.86,3.86,0,0,1-.72.32,3.2,3.2,0,0,1-.87.12,2.15,2.15,0,0,1-1-.19,3.46,3.46,0,0,1-.82-.55.91.91,0,0,0-.34-.17.86.86,0,0,0-.45.24,5,5,0,0,1-.74.44,2.16,2.16,0,0,1-1,.23,3,3,0,0,1-.89-.13,2.13,2.13,0,0,1-.75-.42,2.19,2.19,0,0,1-.53-.68,2.29,2.29,0,0,1-.2-1,1.77,1.77,0,0,1,.52-1.32,4.12,4.12,0,0,1,1.68-.88l1.08-.32.9-.27a1,1,0,0,0,.4-.19.38.38,0,0,0,.11-.23,2,2,0,0,0,0-.35v-.45a3.36,3.36,0,0,0-.06-.63,2,2,0,0,0-.21-.59,1.57,1.57,0,0,0-.38-.43,1.06,1.06,0,0,0-.57-.17,1,1,0,0,0-.69.26,1.55,1.55,0,0,0-.41.95,1,1,0,0,1-.12.41.85.85,0,0,1-.24.26l-.33.17-.41.16-.38.13h-.36a.42.42,0,0,1-.39-.16.69.69,0,0,1-.1-.37,1.48,1.48,0,0,1,.32-.88,3.77,3.77,0,0,1,.69-.75c.19-.14.41-.29.66-.44a5.65,5.65,0,0,1,.85-.43,8.83,8.83,0,0,1,1-.3,4.81,4.81,0,0,1,1.07-.12,2.83,2.83,0,0,1,2.06.71,2.93,2.93,0,0,1,.64,2.36Zm-2.5-.6a1.82,1.82,0,0,0,0-.33.11.11,0,0,0-.15,0,3,3,0,0,0-1.24.42,1.16,1.16,0,0,0-.54,1.06,1.37,1.37,0,0,0,.32.89,1,1,0,0,0,.76.38.67.67,0,0,0,.65-.28,1.56,1.56,0,0,0,.16-.76Z" transform="translate(0 0.05)"/><path class="cls-8" d="M249.89,19.88a2.87,2.87,0,0,1-.28-1,6.54,6.54,0,0,1-.06-1.4.4.4,0,0,1,.36-.18.38.38,0,0,1,.36.14,4.54,4.54,0,0,0,.3.68,4.24,4.24,0,0,0,.48.69,2.6,2.6,0,0,0,.62.53,1.44,1.44,0,0,0,.75.21,1.16,1.16,0,0,0,.8-.27,1.1,1.1,0,0,0,.3-.83,1.24,1.24,0,0,0-.42-.95,4.05,4.05,0,0,0-1-.64,5.61,5.61,0,0,1-1.58-1.1,2.16,2.16,0,0,1-.6-1.56,2.67,2.67,0,0,1,.26-1.21,2.57,2.57,0,0,1,.73-.84,3.07,3.07,0,0,1,1.08-.51,5.07,5.07,0,0,1,1.29-.17,5.86,5.86,0,0,1,1.45.16,2.62,2.62,0,0,1,.81.29,3.74,3.74,0,0,1,.24.93,9.36,9.36,0,0,1,.08,1.18c0,.06-.05.1-.13.13h-.45a.35.35,0,0,1-.16-.08,3.13,3.13,0,0,0-.72-1.31,1.39,1.39,0,0,0-.93-.36,1.18,1.18,0,0,0-.76.25.85.85,0,0,0-.3.68,1,1,0,0,0,.32.68,4.53,4.53,0,0,0,1,.68,5.35,5.35,0,0,1,1.77,1.24,2.54,2.54,0,0,1,.62,1.75,2.74,2.74,0,0,1-.3,1.25,2.67,2.67,0,0,1-.77.87,3.71,3.71,0,0,1-1.14.53,5.54,5.54,0,0,1-1.4.18A4.31,4.31,0,0,1,249.89,19.88Z" transform="translate(0 0.05)"/><path class="cls-8" d="M258.3,8.48a6.61,6.61,0,0,0,0-.89.65.65,0,0,0-.38-.44l-.4-.21a.4.4,0,0,1-.11-.31.42.42,0,0,1,.11-.32,11.61,11.61,0,0,0,1.51-.5l1.73-.69a.44.44,0,0,1,.36.15c0,.44-.05.89-.06,1.37s0,1,0,1.72v3.88c0,.17,0,.26.15.26a1.54,1.54,0,0,0,.34-.17,4.87,4.87,0,0,1,1-.55,3.28,3.28,0,0,1,1.45-.3,2.88,2.88,0,0,1,1.16.21,2.32,2.32,0,0,1,.84.57,2.61,2.61,0,0,1,.5.85,3.09,3.09,0,0,1,.17,1v4.51a1.79,1.79,0,0,0,.11.51.44.44,0,0,0,.24.26,2.18,2.18,0,0,0,.44.11h.34a.48.48,0,0,1,.13.38.38.38,0,0,1-.15.36h-3.86a8.34,8.34,0,0,0-1,0,.38.38,0,0,1-.15-.36.47.47,0,0,1,.12-.38l.39-.06a1,1,0,0,0,.29-.1.34.34,0,0,0,.17-.2,1.35,1.35,0,0,0,.08-.4v-4.3a1.53,1.53,0,0,0-.35-1,1.38,1.38,0,0,0-1.13-.43,1.51,1.51,0,0,0-1.19.51,1.45,1.45,0,0,0-.17.79v4.48a1.37,1.37,0,0,0,.09.4.34.34,0,0,0,.17.2,1,1,0,0,0,.29.1l.38.06a.45.45,0,0,1,.13.38.38.38,0,0,1-.15.36h-3.57a7.88,7.88,0,0,0-1.19,0,.38.38,0,0,1-.15-.36.45.45,0,0,1,.13-.38h.38a1.91,1.91,0,0,0,.41-.11.45.45,0,0,0,.25-.24,1.49,1.49,0,0,0,.1-.51v-.88Z" transform="translate(0 0.05)"/><path class="cls-8" d="M278.47,20.26a4.31,4.31,0,0,1-1.5-.82,3.81,3.81,0,0,1-1-1.35,4.33,4.33,0,0,1-.39-1.91,4.43,4.43,0,0,1,3-4.39,5.36,5.36,0,0,1,1.82-.31,5.73,5.73,0,0,1,1.79.29,4.34,4.34,0,0,1,1.51.85A4.08,4.08,0,0,1,284.75,14a4.58,4.58,0,0,1,.39,2,4.89,4.89,0,0,1-.39,2,3.78,3.78,0,0,1-1.06,1.41,4.18,4.18,0,0,1-1.55.84,6.49,6.49,0,0,1-1.86.27A6.18,6.18,0,0,1,278.47,20.26Zm.61-7a4.67,4.67,0,0,0-.5,2.49,8.78,8.78,0,0,0,.13,1.53,5.29,5.29,0,0,0,.37,1.23,2.06,2.06,0,0,0,.6.8,1.26,1.26,0,0,0,.83.29,1.18,1.18,0,0,0,.77-.24,1.59,1.59,0,0,0,.49-.68,3.86,3.86,0,0,0,.25-1,11.69,11.69,0,0,0,.08-1.32,10.44,10.44,0,0,0-.14-1.47,5.74,5.74,0,0,0-.34-1.21,2.36,2.36,0,0,0-.55-.84,1.15,1.15,0,0,0-.79-.31,1.43,1.43,0,0,0-1.2.69Z" transform="translate(0 0.05)"/><path class="cls-8" d="M287.57,14.59a5.43,5.43,0,0,0-.05-.9.62.62,0,0,0-.35-.45l-.29-.19a.36.36,0,0,1-.13-.32.39.39,0,0,1,.13-.32l.81-.25.89-.32c.29-.11.56-.22.81-.34a5.2,5.2,0,0,0,.62-.32.51.51,0,0,1,.38.2,4.69,4.69,0,0,1,0,.53v.42c0,.11,0,.17.11.17a.36.36,0,0,0,.18-.07l.22-.1.43-.26a3.24,3.24,0,0,1,.6-.27,5.39,5.39,0,0,1,.68-.22,2.5,2.5,0,0,1,.72-.1,2.88,2.88,0,0,1,1.16.21,2.33,2.33,0,0,1,.82.57,2.61,2.61,0,0,1,.5.85,3.09,3.09,0,0,1,.17,1v4.51a1.26,1.26,0,0,0,.11.51.55.55,0,0,0,.26.24,2.46,2.46,0,0,0,.45.11h.34a.48.48,0,0,1,.06.46.38.38,0,0,1-.15.36c-.33,0-.71-.05-1.14-.05h-2.65a7.38,7.38,0,0,0-1.05.05.38.38,0,0,1-.15-.36.45.45,0,0,1,.13-.38l.38-.06a1,1,0,0,0,.29-.1.34.34,0,0,0,.17-.2,1.37,1.37,0,0,0,.09-.4V14.53a1.73,1.73,0,0,0-.34-1.07,1.36,1.36,0,0,0-1.14-.44,1.5,1.5,0,0,0-.75.17,1.62,1.62,0,0,0-.44.34.73.73,0,0,0-.14.31,3.84,3.84,0,0,0,0,.48v4.47a1.56,1.56,0,0,0,.08.42.39.39,0,0,0,.18.22.73.73,0,0,0,.35.09h.33a.45.45,0,0,1,.13.38.38.38,0,0,1-.15.36c-.34,0-.68-.05-1-.05h-2.62a9.32,9.32,0,0,0-1.18.05.38.38,0,0,1-.15-.36.45.45,0,0,1,.13-.38h.34a2.18,2.18,0,0,0,.44-.11.47.47,0,0,0,.26-.24,1.79,1.79,0,0,0,.11-.51V14.59Z" transform="translate(0 0.05)"/><path class="cls-8" d="M225.94,35.08V33.86a2.65,2.65,0,0,0-.11-.74.64.64,0,0,0-.31-.39,1.62,1.62,0,0,0-.57-.16h-.4a.2.2,0,0,1-.12-.15,1,1,0,0,1,0-.25c0-.19.06-.31.19-.34.89,0,1.77-.1,2.65-.13s1.89-.06,3-.06a22.33,22.33,0,0,1,2.58.16,11.69,11.69,0,0,1,2.34.54,6.67,6.67,0,0,1,3.2,2.46,5.91,5.91,0,0,1,.82,1.74,6.69,6.69,0,0,1,.28,1.94,7.13,7.13,0,0,1-1,3.77,7,7,0,0,1-2.83,2.55,8.85,8.85,0,0,1-2.4.77,17.75,17.75,0,0,1-3,.22,12.38,12.38,0,0,1-1.49-.06,9.72,9.72,0,0,0-1.32-.06q-1.5,0-3.3.06c-.09-.06-.13-.18-.13-.38a.41.41,0,0,1,.13-.36l.65-.11a3.77,3.77,0,0,0,.58-.14.61.61,0,0,0,.32-.31,1.63,1.63,0,0,0,.15-.65V42.57Zm3,6.71q0,.89.06,1.47a1.49,1.49,0,0,0,.36.9,2.33,2.33,0,0,0,1.76.61,4.27,4.27,0,0,0,3.82-2,6.28,6.28,0,0,0,.83-2,9.24,9.24,0,0,0,.25-2.16,6.33,6.33,0,0,0-1.48-4.47,5.63,5.63,0,0,0-4.35-1.6c-.6,0-1,.09-1.1.27a.69.69,0,0,0-.13.44V34Z" transform="translate(0 0.05)"/><path class="cls-8" d="M244.11,40.6a1,1,0,0,0-.44.07c-.06,0-.09.15-.09.31a3.81,3.81,0,0,0,.19,1.16,3.52,3.52,0,0,0,.56,1,2.81,2.81,0,0,0,.93.71,3.05,3.05,0,0,0,1.3.26H247a1.75,1.75,0,0,0,.51-.14,2.17,2.17,0,0,0,1-.92.42.42,0,0,1,.36.08.45.45,0,0,1,.19.4,4.38,4.38,0,0,1-1.68,1.86,4,4,0,0,1-1,.42,4.21,4.21,0,0,1-1,.12,4.54,4.54,0,0,1-1.89-.35,3.94,3.94,0,0,1-1.38-.94,3.87,3.87,0,0,1-.84-1.37,5,5,0,0,1,0-3.51,4.12,4.12,0,0,1,1-1.5,4.28,4.28,0,0,1,1.45-1,4.44,4.44,0,0,1,1.83-.37,4,4,0,0,1,1.46.24,3.28,3.28,0,0,1,1.06.67,3,3,0,0,1,.64,1A3.12,3.12,0,0,1,249,40a.88.88,0,0,1-.12.5c-.09.13-.3.19-.64.19Zm1.4-.93H246a1,1,0,0,0,.41-.15c.06,0,.1-.09.12-.19a1.41,1.41,0,0,0,0-.29,1.2,1.2,0,0,0-.28-.85,1.1,1.1,0,0,0-.84-.32,1.32,1.32,0,0,0-.62.15,1.9,1.9,0,0,0-.89.86,1.07,1.07,0,0,0-.14.52.25.25,0,0,0,.23.26,3.05,3.05,0,0,0,.74,0Z" transform="translate(0 0.05)"/><path class="cls-8" d="M250.79,33.86a6.61,6.61,0,0,0,0-.89.66.66,0,0,0-.38-.45l-.36-.21A.45.45,0,0,1,250,32a.46.46,0,0,1,.1-.32,14.21,14.21,0,0,0,1.56-.51c.58-.22,1.14-.45,1.68-.68a.44.44,0,0,1,.36.15,10.39,10.39,0,0,1-.06,1.37,16.45,16.45,0,0,0,0,1.72V44a1.45,1.45,0,0,0,.11.51.47.47,0,0,0,.24.24,2.37,2.37,0,0,0,.46.11h.36a.47.47,0,0,1,.12.38c0,.18,0,.3-.14.36h-3.87a8.15,8.15,0,0,0-1.21,0,.38.38,0,0,1-.15-.36.48.48,0,0,1,.13-.38h.4a1.17,1.17,0,0,0,.41-.1.51.51,0,0,0,.25-.25,1.49,1.49,0,0,0,.1-.51V33.86Z" transform="translate(0 0.05)"/><path class="cls-8" d="M259.59,43.16V44a1.78,1.78,0,0,0,.1.51.43.43,0,0,0,.23.25,1.34,1.34,0,0,0,.44.1h.4a.47.47,0,0,1,.12.38.41.41,0,0,1-.14.36h-3.91a7.62,7.62,0,0,0-1.17,0,.38.38,0,0,1-.15-.36.45.45,0,0,1,.13-.38h.4a1.17,1.17,0,0,0,.41-.1.51.51,0,0,0,.25-.25,1.49,1.49,0,0,0,.1-.51v-4.1a6.76,6.76,0,0,0,0-.9.64.64,0,0,0-.35-.45l-.29-.19a.47.47,0,0,1,0-.64l.81-.25.89-.32c.29-.11.56-.23.81-.34a5.2,5.2,0,0,0,.62-.32.56.56,0,0,1,.38.19,7.39,7.39,0,0,1-.06,1.15,10.44,10.44,0,0,0,0,1.37Zm-.24-10.62a1.5,1.5,0,0,1,.41,1.06,1.35,1.35,0,0,1-.5,1.17,1.77,1.77,0,0,1-1.08.38,1.36,1.36,0,0,1-1.09-.43,1.5,1.5,0,0,1-.4-1.07,1.39,1.39,0,0,1,.51-1.11,1.64,1.64,0,0,1,1.11-.44,1.44,1.44,0,0,1,1,.44Z" transform="translate(0 0.05)"/><path class="cls-8" d="M261,37.83a.58.58,0,0,1-.15-.38.35.35,0,0,1,.21-.36,7.91,7.91,0,0,1,1.19.06h3.78a.43.43,0,0,1,.15.38.51.51,0,0,1-.1.36l-.34.09-.28.09a.13.13,0,0,0-.08.12,1,1,0,0,0,.05.3,1.41,1.41,0,0,0,.14.44c.21.59.43,1.16.65,1.7s.45,1.07.68,1.58l.73-1.65c.25-.57.48-1.17.71-1.82a1.71,1.71,0,0,0,.09-.3.89.89,0,0,0,0-.23c0-.08-.17-.17-.51-.25l-.3-.07c-.1,0-.15-.18-.15-.38a.4.4,0,0,1,.17-.36l.89.06h1.75l.73-.05a.39.39,0,0,1,.16.36c0,.2,0,.33-.12.38l-.36.07a1.25,1.25,0,0,0-.69.31,3.6,3.6,0,0,0-.54.85c-.55,1.1-1.07,2.21-1.55,3.32s-1,2.24-1.47,3.38A.67.67,0,0,1,266,46a.85.85,0,0,1-.51-.15l-.74-1.73c-.21-.49-.42-1-.63-1.45s-.44-1-.67-1.48l-.83-1.83q-.19-.41-.33-.63a3,3,0,0,0-.25-.37.86.86,0,0,0-.26-.2,2.26,2.26,0,0,0-.33-.13Z" transform="translate(0 0.05)"/><path class="cls-8" d="M274.59,40.6a1,1,0,0,0-.45.07.43.43,0,0,0-.08.31,3.53,3.53,0,0,0,.19,1.16,2.9,2.9,0,0,0,.56,1,2.81,2.81,0,0,0,.93.71,3.05,3.05,0,0,0,1.3.26h.49A1.78,1.78,0,0,0,278,44a2.28,2.28,0,0,0,1-.92.46.46,0,0,1,.54.36v.12a4.25,4.25,0,0,1-.79,1.13,3.94,3.94,0,0,1-.93.74,3.66,3.66,0,0,1-1,.42,4.21,4.21,0,0,1-1,.12,4.58,4.58,0,0,1-1.9-.35,3.82,3.82,0,0,1-1.37-.94,3.76,3.76,0,0,1-.85-1.37,5.16,5.16,0,0,1,.06-3.51,4.12,4.12,0,0,1,1-1.5,4.28,4.28,0,0,1,1.45-1,4.44,4.44,0,0,1,1.83-.37,4,4,0,0,1,1.45.24A2.93,2.93,0,0,1,279.45,40a.8.8,0,0,1-.13.5c-.08.13-.29.19-.63.19Zm1.39-.93h.46a1,1,0,0,0,.41-.15c.06,0,.1-.09.12-.19a1.41,1.41,0,0,0,0-.29,1.26,1.26,0,0,0-.29-.85,1.08,1.08,0,0,0-.83-.32,1.39,1.39,0,0,0-.63.15,2,2,0,0,0-.53.37,2.09,2.09,0,0,0-.35.49,1.07,1.07,0,0,0-.14.52.25.25,0,0,0,.23.26,3.05,3.05,0,0,0,.74,0Z" transform="translate(0 0.05)"/><path class="cls-8" d="M281.44,40a5.43,5.43,0,0,0-.05-.9.64.64,0,0,0-.35-.45l-.3-.19a.47.47,0,0,1,0-.64c.24-.07.51-.15.79-.25s.58-.21.86-.33l.81-.31q.38-.18.63-.33a.56.56,0,0,1,.38.19,2.48,2.48,0,0,1-.06.54,2.29,2.29,0,0,0,0,.37c0,.12.07.2.21.26l.43-.31c.15-.12.31-.23.48-.35a2.77,2.77,0,0,1,.54-.28,1.67,1.67,0,0,1,.62-.12,1.2,1.2,0,0,1,1.16,1.24h0a1.26,1.26,0,0,1-.42,1.06,1.55,1.55,0,0,1-.93.31,1.19,1.19,0,0,1-.83-.38,2.75,2.75,0,0,0-.53-.36,1.31,1.31,0,0,0-.27-.06c-.27,0-.4.42-.4,1.27v4.13a1.49,1.49,0,0,0,.1.51.37.37,0,0,0,.23.24A1.57,1.57,0,0,0,285,45l.68.06a.52.52,0,0,1,.13.38q0,.29-.15.36a13.86,13.86,0,0,1-1.44,0h-2.73a9.32,9.32,0,0,0-1.18,0q-.15-.07-.15-.36a.52.52,0,0,1,.13-.38h.4a1.42,1.42,0,0,0,.41-.08.45.45,0,0,0,.24-.25,1.56,1.56,0,0,0,.11-.52v-.88Z" transform="translate(0 0.05)"/><path class="cls-8" d="M287.38,37.83a.5.5,0,0,1-.11-.39.38.38,0,0,1,.18-.35,9.22,9.22,0,0,1,1.25.06h1.5c.79,0,1.58,0,2.37-.07a.39.39,0,0,1,.18.35.55.55,0,0,1-.12.39l-.42.09a3.5,3.5,0,0,0-.55.17c-.06,0-.09.1-.09.23a2,2,0,0,0,.17.63l.47,1.25c.05.16.12.34.21.56s.17.45.26.68l.27.67c.08.21.15.38.21.5l.33-.68c.1-.24.21-.47.32-.71l.38-.87q.35-.73.57-1.35a3.56,3.56,0,0,0,.22-.79c0-.07,0-.13-.14-.18a2.13,2.13,0,0,0-.33-.11l-.42-.09a.51.51,0,0,1-.07-.43c0-.2.06-.31.17-.34s.52.05.85.06h1.2a13,13,0,0,0,1.65-.07.45.45,0,0,1,.13.35.38.38,0,0,1-.14.39h-.41a1.85,1.85,0,0,0-.57.15,1.11,1.11,0,0,0-.4.31c-.11.17-.29.46-.53.87s-.48.86-.72,1.35l-1.07,2.38c-.19.38-.43.86-.72,1.46l-.88,1.84c-.32.63-.61,1.25-.89,1.86s-.52,1.1-.72,1.5a2.83,2.83,0,0,1-.78,1,2,2,0,0,1-1,.35,1.62,1.62,0,0,1-.69-.12,1.12,1.12,0,0,1-.41-.3.84.84,0,0,1-.2-.4,1.73,1.73,0,0,1-.05-.45,1.08,1.08,0,0,1,.31-.8,1.27,1.27,0,0,1,.89-.3h.51a1.32,1.32,0,0,0,.62-.12,1.2,1.2,0,0,0,.41-.33,3.55,3.55,0,0,0,.32-.53c.1-.19.2-.41.3-.63a2.28,2.28,0,0,0,.2-.45,1.12,1.12,0,0,0,.09-.44,2.51,2.51,0,0,0-.07-.55,9,9,0,0,0-.33-1l-2-5.12a5,5,0,0,0-.53-1.09,1,1,0,0,0-.74-.41Z" transform="translate(0 0.05)"/><path class="cls-9" d="M235.29,5.75c.47.06.88.12,1.25.19l1,.19a3.51,3.51,0,0,0,.65.09V7.55a4.81,4.81,0,0,0,.07,1c.07.36.09.67.14,1a.51.51,0,0,1-.38.25c-.2,0-.34,0-.42-.1a4.19,4.19,0,0,0-1.4-2.31,4.09,4.09,0,0,0-2.55-.77A4.24,4.24,0,0,0,231.9,7a4.56,4.56,0,0,0-1.56,1.15,6.13,6.13,0,0,0-1.14,1.94,7.76,7.76,0,0,0-.43,2.75,8.51,8.51,0,0,0,.42,2.79,6.44,6.44,0,0,0,1.11,2,4.61,4.61,0,0,0,1.58,1.29,4.38,4.38,0,0,0,1.85.41,4,4,0,0,0,1.68-.31,4.28,4.28,0,0,0,1.23-.78,4.83,4.83,0,0,0,.85-1.06,6.94,6.94,0,0,0,.55-1.13.4.4,0,0,1,.43-.08.55.55,0,0,1,.38.23,14.45,14.45,0,0,1-.36,2.07,6.9,6.9,0,0,1-.45,1.25c-.59.17-1.24.34-2,.52a10.24,10.24,0,0,1-2.34.26,13.19,13.19,0,0,1-3-.38A6.83,6.83,0,0,1,228,18.69a8.36,8.36,0,0,1-1.06-1,6.08,6.08,0,0,1-.84-1.23,6.89,6.89,0,0,1-.57-1.51,7,7,0,0,1-.22-1.82,7.76,7.76,0,0,1,.2-1.8,8.34,8.34,0,0,1,.54-1.52,6.44,6.44,0,0,1,.81-1.26,9.44,9.44,0,0,1,1-1,7.48,7.48,0,0,1,2.67-1.42,10.75,10.75,0,0,1,3.19-.46A11.42,11.42,0,0,1,235.29,5.75Z" transform="translate(0 0.05)"/><path class="cls-9" d="M247,17.06a2.72,2.72,0,0,0,.06.9,1.57,1.57,0,0,0,.23.55.89.89,0,0,0,.32.29.66.66,0,0,0,.34.08,1.15,1.15,0,0,0,.37,0,1.69,1.69,0,0,0,.43-.2.26.26,0,0,1,.22.18.55.55,0,0,1,0,.31,3.26,3.26,0,0,1-.33.31,4,4,0,0,1-.54.38,2.73,2.73,0,0,1-.72.32,2.82,2.82,0,0,1-.87.13,2.31,2.31,0,0,1-1-.19,3.8,3.8,0,0,1-.82-.55.91.91,0,0,0-.34-.17.85.85,0,0,0-.45.23,5,5,0,0,1-.74.45,2.27,2.27,0,0,1-1.05.23,3,3,0,0,1-.89-.14,2,2,0,0,1-.75-.41,1.88,1.88,0,0,1-.53-.69,2,2,0,0,1-.2-1,1.8,1.8,0,0,1,.51-1.32,4.22,4.22,0,0,1,1.69-.88l1.07-.33.91-.26a1,1,0,0,0,.4-.19.44.44,0,0,0,.11-.24,2,2,0,0,0,0-.35v-.37a3.18,3.18,0,0,0-.06-.62,1.58,1.58,0,0,0-.12-.52,1.61,1.61,0,0,0-.38-.44,1.06,1.06,0,0,0-.57-.17,1,1,0,0,0-.69.27,1.58,1.58,0,0,0-.41.94A1,1,0,0,1,242,14a.78.78,0,0,1-.24.27l-.33.17-.41.16-.43.11h-.35a.44.44,0,0,1-.39-.15.69.69,0,0,1-.1-.37,1.48,1.48,0,0,1,.32-.88,3.08,3.08,0,0,1,.69-.75q.28-.21.66-.45a6.71,6.71,0,0,1,.85-.42,5.79,5.79,0,0,1,1-.31,5.47,5.47,0,0,1,1.07-.11,2.84,2.84,0,0,1,2.06.7,3,3,0,0,1,.64,2.36Zm-2.54-.55a1.71,1.71,0,0,0,0-.32q0-.07-.15-.06a3.06,3.06,0,0,0-1.24.43,1.12,1.12,0,0,0-.54,1,1.37,1.37,0,0,0,.32.89,1,1,0,0,0,.76.38.68.68,0,0,0,.65-.27,1.56,1.56,0,0,0,.16-.76Z" transform="translate(0 0.05)"/><path class="cls-9" d="M249.31,19.6a2.86,2.86,0,0,1-.27-1,6.65,6.65,0,0,1,0-1.41.43.43,0,0,1,.36-.18.43.43,0,0,1,.36.14,4.23,4.23,0,0,0,.3.69,5.33,5.33,0,0,0,.48.69,2.56,2.56,0,0,0,.62.52,1.32,1.32,0,0,0,.75.22,1.17,1.17,0,0,0,.8-.28,1.09,1.09,0,0,0,.3-.82,1.26,1.26,0,0,0-.42-1,4,4,0,0,0-1-.63,5.61,5.61,0,0,1-1.58-1.1,2.18,2.18,0,0,1-.6-1.57,2.39,2.39,0,0,1,1-2,3.32,3.32,0,0,1,1.08-.5,4.32,4.32,0,0,1,1.29-.17,5.91,5.91,0,0,1,1.45.15,2.9,2.9,0,0,1,.81.29,3.74,3.74,0,0,1,.24.93,9.39,9.39,0,0,1,.08,1.19.38.38,0,0,1-.13.12.79.79,0,0,1-.22.06h-.23a.33.33,0,0,1-.16-.07,3.13,3.13,0,0,0-.72-1.31,1.39,1.39,0,0,0-.93-.36,1.17,1.17,0,0,0-.76.24.87.87,0,0,0-.3.69,1,1,0,0,0,.32.68,4.17,4.17,0,0,0,1,.67,5.26,5.26,0,0,1,1.7,1.22,2.52,2.52,0,0,1,.62,1.74,2.74,2.74,0,0,1-.3,1.25,2.61,2.61,0,0,1-.77.88,3.71,3.71,0,0,1-1.14.53,5.54,5.54,0,0,1-1.4.18A4.33,4.33,0,0,1,249.31,19.6Z" transform="translate(0 0.05)"/><path class="cls-9" d="M257.73,8.2a6.61,6.61,0,0,0,0-.89.75.75,0,0,0-.38-.44L257,6.66a.42.42,0,0,1-.11-.32A.42.42,0,0,1,257,6a11.56,11.56,0,0,0,1.51-.49l1.7-.69a.44.44,0,0,1,.36.15c0,.44,0,.89-.06,1.36s0,1,0,1.73v3.86c0,.17,0,.25.15.25A1.35,1.35,0,0,0,261,12a5.4,5.4,0,0,1,1-.55,3.45,3.45,0,0,1,1.45-.29,2.88,2.88,0,0,1,1.16.21,2.32,2.32,0,0,1,.84.57,2.47,2.47,0,0,1,.5.84,3.09,3.09,0,0,1,.17,1v4.52a1.72,1.72,0,0,0,.11.5.43.43,0,0,0,.26.25,2.16,2.16,0,0,0,.44.1h.34a.48.48,0,0,1,.13.38.38.38,0,0,1-.15.36c-.34,0-.72-.05-1.15-.06h-2.71a4.2,4.2,0,0,0-1,.06.38.38,0,0,1-.15-.36.47.47,0,0,1,.12-.38l.38-.07.3-.09a.66.66,0,0,0,.17-.12,1.42,1.42,0,0,0,.08-.41V14.17a1.58,1.58,0,0,0-.35-1,1.4,1.4,0,0,0-1.13-.42,1.51,1.51,0,0,0-1.19.51,1.42,1.42,0,0,0-.17.78v4.48a1.43,1.43,0,0,0,.09.41.41.41,0,0,0,.17.2l.29.09.38.07a.45.45,0,0,1,.13.38.38.38,0,0,1-.15.36c-.34,0-.69-.05-1-.06h-2.6a7.78,7.78,0,0,0-1.18.06.38.38,0,0,1-.15-.36.45.45,0,0,1,.13-.38H257a1.89,1.89,0,0,0,.41-.1.51.51,0,0,0,.25-.25,1.44,1.44,0,0,0,.1-.5V8.2Z" transform="translate(0 0.05)"/><path class="cls-9" d="M277.9,19.94a4.29,4.29,0,0,1-1.5-.81,3.81,3.81,0,0,1-1-1.35,4.52,4.52,0,0,1-.39-1.92,4.58,4.58,0,0,1,.39-2,4.51,4.51,0,0,1,1.09-1.47,4.78,4.78,0,0,1,1.56-.9,5.65,5.65,0,0,1,1.82-.3,5.72,5.72,0,0,1,1.79.28,4.21,4.21,0,0,1,1.51.86,4.15,4.15,0,0,1,1,1.44,4.61,4.61,0,0,1,.39,1.94,4.89,4.89,0,0,1-.39,2,3.9,3.9,0,0,1-1.06,1.42,4.39,4.39,0,0,1-1.55.83,6.17,6.17,0,0,1-1.86.28A5.53,5.53,0,0,1,277.9,19.94Zm.61-7a4.81,4.81,0,0,0-.5,2.5,8.78,8.78,0,0,0,.13,1.53,5.29,5.29,0,0,0,.37,1.23,2.25,2.25,0,0,0,.6.8,1.31,1.31,0,0,0,.83.29,1.19,1.19,0,0,0,.77-.25,1.62,1.62,0,0,0,.49-.67,3.86,3.86,0,0,0,.25-1,11.69,11.69,0,0,0,.08-1.32,10.44,10.44,0,0,0-.14-1.47,5.48,5.48,0,0,0-.37-1.19,2.32,2.32,0,0,0-.55-.83,1.07,1.07,0,0,0-.79-.31A1.44,1.44,0,0,0,278.51,12.94Z" transform="translate(0 0.05)"/><path class="cls-9" d="M287,14.32a5.43,5.43,0,0,0,0-.9.66.66,0,0,0-.35-.46l-.29-.19c-.09,0-.13-.16-.13-.32a.37.37,0,0,1,.13-.31l.81-.26.89-.31.81-.34a5.2,5.2,0,0,0,.62-.32.47.47,0,0,1,.38.19,4.86,4.86,0,0,1,0,.54v.41c0,.07,0,.17.11.17l.18-.06.22-.11.43-.25a4.11,4.11,0,0,1,.6-.28,5.39,5.39,0,0,1,.68-.22,3,3,0,0,1,.72-.09,2.83,2.83,0,0,1,1.15.21,2.28,2.28,0,0,1,.83.57,2.47,2.47,0,0,1,.5.84,3.09,3.09,0,0,1,.17,1v4.56a1.25,1.25,0,0,0,.11.5.53.53,0,0,0,.26.25,1.73,1.73,0,0,0,.45.1l.34.05a.48.48,0,0,1,.13.38.38.38,0,0,1-.15.36q-.49,0-1.14-.06h-2.65a9.24,9.24,0,0,0-1,.06.38.38,0,0,1-.15-.36.47.47,0,0,1,.12-.38l.39-.07.29-.09a.41.41,0,0,0,.17-.2,1.43,1.43,0,0,0,.09-.41V14.25a1.73,1.73,0,0,0-.34-1.07,1.38,1.38,0,0,0-1.14-.43,1.5,1.5,0,0,0-.75.17,1.34,1.34,0,0,0-.44.34.69.69,0,0,0-.14.3,3.84,3.84,0,0,0,0,.48v4.47a1.26,1.26,0,0,0,.08.43.43.43,0,0,0,.18.22.85.85,0,0,0,.35.08h.33a.45.45,0,0,1,.13.38.38.38,0,0,1-.15.36c-.34,0-.68-.05-1-.06h-2.62A7.78,7.78,0,0,0,286,20a.38.38,0,0,1-.15-.36.45.45,0,0,1,.13-.38h.34a2.16,2.16,0,0,0,.44-.1.44.44,0,0,0,.25-.25,1.4,1.4,0,0,0,.06-.5V14.32Z" transform="translate(0 0.05)"/><path class="cls-9" d="M225.37,34.81V33.58a2.65,2.65,0,0,0-.11-.74.7.7,0,0,0-.31-.39,1.62,1.62,0,0,0-.57-.16H224a.22.22,0,0,1-.12-.16,1,1,0,0,1,0-.24c0-.2.06-.31.19-.34.89-.06,1.77-.1,2.65-.14s1.89-.05,3-.05a20.31,20.31,0,0,1,2.58.16,10.46,10.46,0,0,1,2.34.54,6.58,6.58,0,0,1,1.84,1,6.88,6.88,0,0,1,1.36,1.44,6.36,6.36,0,0,1,.82,1.75,6.68,6.68,0,0,1,.28,1.93A7.26,7.26,0,0,1,238,42a6.87,6.87,0,0,1-2.83,2.54,8.54,8.54,0,0,1-2.4.78,18.23,18.23,0,0,1-2.95.22,12.38,12.38,0,0,1-1.49-.06,11.67,11.67,0,0,0-1.32-.07c-1,0-2.1,0-3.3.07-.09-.06-.13-.19-.13-.39a.42.42,0,0,1,.13-.35l.65-.11a2.91,2.91,0,0,0,.58-.15.61.61,0,0,0,.32-.31,1.58,1.58,0,0,0,.15-.64V34.81Zm3,6.7q0,.74.06,1.47a1.49,1.49,0,0,0,.36.9,2.37,2.37,0,0,0,1.76.62,4.66,4.66,0,0,0,2.31-.55,4.43,4.43,0,0,0,1.51-1.44,6.28,6.28,0,0,0,.83-2,9.32,9.32,0,0,0,.25-2.17,6.33,6.33,0,0,0-1.45-4.4,5.63,5.63,0,0,0-4.35-1.61c-.6,0-1,.09-1.1.28a.66.66,0,0,0-.13.43v.79Z" transform="translate(0 0.05)"/><path class="cls-9" d="M243.54,40.33a.83.83,0,0,0-.44.06c-.06,0-.09.15-.09.32a3.75,3.75,0,0,0,.19,1.15,3.52,3.52,0,0,0,.56,1,2.81,2.81,0,0,0,.93.71,3.05,3.05,0,0,0,1.3.26h.49a1.5,1.5,0,0,0,.51-.15,2,2,0,0,0,.51-.34,2.56,2.56,0,0,0,.46-.58.48.48,0,0,1,.55.4h0v.09a4.36,4.36,0,0,1-1.71,1.87,3.64,3.64,0,0,1-1,.41,3.76,3.76,0,0,1-1,.13,4.88,4.88,0,0,1-1.89-.35,3.75,3.75,0,0,1-2.21-2.37,5,5,0,0,1,0-3.51,4.12,4.12,0,0,1,1-1.5A4.51,4.51,0,0,1,245,36.56a4,4,0,0,1,1.46.24,2.81,2.81,0,0,1,1.7,1.67,3.07,3.07,0,0,1,.22,1.16,1,1,0,0,1-.12.51c-.09.13-.3.19-.64.19Zm1.4-.93h.45a1,1,0,0,0,.41-.15.25.25,0,0,0,.12-.19,1.5,1.5,0,0,0,0-.3,1.16,1.16,0,0,0-.28-.84,1,1,0,0,0-.84-.32,1.32,1.32,0,0,0-.62.15,1.8,1.8,0,0,0-.53.37,1.68,1.68,0,0,0-.36.48,1.19,1.19,0,0,0-.14.52.28.28,0,0,0,.23.27,4.57,4.57,0,0,0,.74,0Z" transform="translate(0 0.05)"/><path class="cls-9" d="M250.2,33.58a6.61,6.61,0,0,0,0-.89.65.65,0,0,0-.38-.44l-.36-.21a.57.57,0,0,1,0-.64,14.16,14.16,0,0,0,1.56-.5c.58-.23,1.14-.45,1.68-.68a.44.44,0,0,1,.32.17,10.55,10.55,0,0,1-.06,1.36,16.5,16.5,0,0,0,0,1.73V43.82a1.45,1.45,0,0,0,.11.5.49.49,0,0,0,.24.25,2.36,2.36,0,0,0,.46.1h.36a.47.47,0,0,1,.12.38.41.41,0,0,1-.14.36,7.93,7.93,0,0,1-1.09,0h-2.69a8.18,8.18,0,0,0-1.21.06.38.38,0,0,1-.15-.36.45.45,0,0,1,.13-.38h.4a1,1,0,0,0,.41-.09.53.53,0,0,0,.25-.26,1.44,1.44,0,0,0,.1-.5V33.58Z" transform="translate(0 0.05)"/><path class="cls-9" d="M259,42.94v.88a1.71,1.71,0,0,0,.1.5.49.49,0,0,0,.23.26,1.07,1.07,0,0,0,.43.09h.41a.47.47,0,0,1,.12.38.41.41,0,0,1-.14.36,8.83,8.83,0,0,1-1.15,0h-2.73a11.46,11.46,0,0,0-1.17.06.38.38,0,0,1-.15-.36.45.45,0,0,1,.13-.38h.4a1,1,0,0,0,.41-.09.53.53,0,0,0,.25-.26,1.44,1.44,0,0,0,.1-.5V39.74a6.61,6.61,0,0,0,0-.89.66.66,0,0,0-.35-.46l-.3-.19a.38.38,0,0,1-.12-.32.39.39,0,0,1,.12-.31l.82-.26.89-.31.81-.34a5.07,5.07,0,0,0,.61-.32.51.51,0,0,1,.39.19,8,8,0,0,1-.06,1.14,10.58,10.58,0,0,0,0,1.38Zm-.24-10.63a1.51,1.51,0,0,1,.41,1.07,1.33,1.33,0,0,1-.5,1.16,1.71,1.71,0,0,1-1.08.38,1.43,1.43,0,0,1-1.09-.42,1.48,1.48,0,0,1-.4-1.08,1.43,1.43,0,0,1,.48-1.11,1.63,1.63,0,0,1,1.11-.43,1.42,1.42,0,0,1,1.07.38Z" transform="translate(0 0.05)"/><path class="cls-9" d="M260.44,37.56a.61.61,0,0,1-.15-.38.35.35,0,0,1,.21-.36h5c.1.06.15.18.15.38a.44.44,0,0,1-.11.36l-.33.08-.28.1a.11.11,0,0,0-.08.11,1,1,0,0,0,0,.3,3.88,3.88,0,0,0,.14.45c.21.59.43,1.16.65,1.7s.45,1.07.68,1.57c.24-.53.48-1.08.73-1.65s.48-1.17.71-1.82a1.4,1.4,0,0,0,.09-.29.89.89,0,0,0,0-.23c0-.09-.16-.17-.5-.26l-.3-.06c-.1-.06-.15-.18-.15-.38a.4.4,0,0,1,.17-.36h3.37a.39.39,0,0,1,.16.36c0,.2,0,.32-.12.38l-.36.06a1.34,1.34,0,0,0-.69.32,3.15,3.15,0,0,0-.54.85c-.55,1.1-1.07,2.2-1.55,3.32s-1,2.24-1.47,3.38a.67.67,0,0,1-.49.15.85.85,0,0,1-.51-.15l-.69-1.73c-.21-.5-.42-1-.63-1.45s-.44-1-.67-1.48-.51-1.13-.83-1.83c-.13-.27-.24-.48-.33-.64a3.09,3.09,0,0,0-.26-.37.69.69,0,0,0-.25-.2l-.33-.13Z" transform="translate(0 0.05)"/><path class="cls-9" d="M274,40.33a1.14,1.14,0,0,0-.45.06.46.46,0,0,0-.08.32,3.47,3.47,0,0,0,.19,1.15,2.9,2.9,0,0,0,.56,1,2.81,2.81,0,0,0,.93.71,3.05,3.05,0,0,0,1.3.26H277a1.52,1.52,0,0,0,.5-.15,2,2,0,0,0,.56-.29,2,2,0,0,0,.47-.58.42.42,0,0,1,.36.09.45.45,0,0,1,.19.4,4.25,4.25,0,0,1-.79,1.13,4.15,4.15,0,0,1-.93.74,3.64,3.64,0,0,1-1,.41,3.76,3.76,0,0,1-1,.13,4.93,4.93,0,0,1-1.9-.35,3.71,3.71,0,0,1-2.2-2.4,5.16,5.16,0,0,1,.06-3.51,4.12,4.12,0,0,1,1-1.5,4.28,4.28,0,0,1,1.45-1,4.44,4.44,0,0,1,1.83-.37,4,4,0,0,1,1.45.24,2.81,2.81,0,0,1,1.06.67,3.14,3.14,0,0,1,.65,1,3.27,3.27,0,0,1,.22,1.16.9.9,0,0,1-.13.51c-.08.13-.29.19-.63.19Zm1.39-.93h.46a1,1,0,0,0,.41-.15.25.25,0,0,0,.12-.19,1.5,1.5,0,0,0,0-.3,1.21,1.21,0,0,0-.29-.84,1,1,0,0,0-.83-.32,1.39,1.39,0,0,0-.63.15,2,2,0,0,0-.53.37,2.41,2.41,0,0,0-.36.48,1.18,1.18,0,0,0-.13.52.25.25,0,0,0,.23.27h0a3.05,3.05,0,0,0,.74,0Z" transform="translate(0 0.05)"/><path class="cls-9" d="M280.87,39.74a5.43,5.43,0,0,0-.05-.9.71.71,0,0,0-.35-.46l-.3-.19a.37.37,0,0,1-.13-.31.39.39,0,0,1,.13-.32l.79-.26a8.89,8.89,0,0,0,.86-.32l.8-.36c.26-.12.47-.23.64-.33a.47.47,0,0,1,.38.19,2.48,2.48,0,0,1-.06.54,2.29,2.29,0,0,0,0,.37.28.28,0,0,0,.21.25,4.15,4.15,0,0,0,.43-.3,5.92,5.92,0,0,1,.48-.35,3.5,3.5,0,0,1,.54-.29,1.48,1.48,0,0,1,.62-.11,1.23,1.23,0,0,1,.79.32,1.18,1.18,0,0,1,.37.92,1.26,1.26,0,0,1-.42,1.06,1.5,1.5,0,0,1-.93.32,1.26,1.26,0,0,1-.83-.38,2.07,2.07,0,0,0-.53-.36,1,1,0,0,0-.29-.08c-.27,0-.4.43-.4,1.27v4.15a1.49,1.49,0,0,0,.1.51.37.37,0,0,0,.23.24,1.26,1.26,0,0,0,.43.08l.68.07a.52.52,0,0,1,.13.38.38.38,0,0,1-.15.36l-1.42-.06h-2.73a7.78,7.78,0,0,0-1.18.06.38.38,0,0,1-.15-.36.53.53,0,0,1,.12-.38h.41a1.43,1.43,0,0,0,.41-.09.41.41,0,0,0,.24-.24,1.56,1.56,0,0,0,.11-.52V43Z" transform="translate(0 0.05)"/><path class="cls-9" d="M286.81,37.56a.5.5,0,0,1-.11-.39.34.34,0,0,1,.18-.35h2.79q1.18,0,2.37-.06a.38.38,0,0,1,.18.35.55.55,0,0,1-.12.39l-.42.08a5,5,0,0,0-.55.17q-.09,0-.09.24a2.26,2.26,0,0,0,.17.63l.47,1.25a1.9,1.9,0,0,0,.21.56c.09.22.17.44.26.67s.18.46.27.67.15.38.21.51l.33-.69.32-.71.38-.86a13.4,13.4,0,0,0,.56-1.36,3.5,3.5,0,0,0,.23-.78c0-.07-.05-.13-.14-.18a.93.93,0,0,0-.33-.12l-.42-.08a.64.64,0,0,1-.11-.4c0-.2.06-.31.17-.34a6,6,0,0,1,.85,0h1.2q.82,0,1.65-.06a.48.48,0,0,1,.19.35.38.38,0,0,1-.14.39H297a1.86,1.86,0,0,0-.57.16,1.11,1.11,0,0,0-.4.31c-.11.17-.29.45-.53.86s-.48.86-.72,1.36l-1.12,2.26c-.2.38-.43.87-.72,1.46s-.58,1.21-.89,1.84-.6,1.26-.88,1.86l-.72,1.5a2.83,2.83,0,0,1-.78,1,1.81,1.81,0,0,1-1,.35,1.62,1.62,0,0,1-.69-.12,1,1,0,0,1-.41-.29.84.84,0,0,1-.2-.4,1.77,1.77,0,0,1,0-.46,1,1,0,0,1,.31-.79,1.2,1.2,0,0,1,.89-.31H289a1.48,1.48,0,0,0,.62-.11,1.2,1.2,0,0,0,.41-.33,3.55,3.55,0,0,0,.32-.53c.1-.2.2-.41.3-.64a2.48,2.48,0,0,0,.2-.44,1.64,1.64,0,0,0,.09-.44,2.51,2.51,0,0,0-.07-.55,9,9,0,0,0-.33-1l-2-5.12a5.49,5.49,0,0,0-.53-1.09,1.09,1.09,0,0,0-.74-.41Z" transform="translate(0 0.05)"/><path class="cls-10" d="M697.17.91h39.67c-.08,1.25-.16,2.43-.24,3.61-.21,2.91-.42,5.81-.64,8.72-.24,3.36-.49,6.71-.73,10.06l-.6,8.23c-.25,3.44-.5,6.89-.74,10.33l-.6,8.45c-.12,1.67-.24,3.34-.35,5,0,.34-.14.47-.51.47H712.12a37.66,37.66,0,0,1-9.28-1,24.07,24.07,0,0,1-2.85-1,9.34,9.34,0,0,1-5.72-7.39,34.16,34.16,0,0,1-.33-8.33c.2-3,.46-6.07.72-9.11.23-2.7.48-5.4.72-8.1.29-3.16.57-6.33.86-9.49.24-2.7.47-5.4.71-8.1C697,2.45,697.1,1.68,697.17.91Zm16,40.64h5.35a3.31,3.31,0,0,0,3.21-3c.11-1.28.21-2.56.31-3.83q.6-8.28,1.19-16.56a2.79,2.79,0,0,0-2.46-3.08,2.75,2.75,0,0,0-.41,0H709.88a3.26,3.26,0,0,0-3.27,2.83c-.11.85-.15,1.7-.21,2.55-.2,2.78-.41,5.56-.61,8.34-.24,3.24-.5,6.48-.71,9.72a2.8,2.8,0,0,0,2.59,3H708Z" transform="translate(0 0.05)"/><path class="cls-10" d="M789.67,35.74V32.46c.22-3.65.49-7.3.73-10.95.13-1.85.25-3.71.38-5.56v-.62h10.66a7.1,7.1,0,0,1,7.26,6.94,6.57,6.57,0,0,1-.05,1c-.24,2.63-.35,5.26-.55,7.89a27.33,27.33,0,0,1-.33,4.24,8.14,8.14,0,0,1-8,6.27h-2.68a5.78,5.78,0,0,1-4.45-1.5A10.33,10.33,0,0,1,786,41.94a8.39,8.39,0,0,1-6.26-3l-.48.46a8.71,8.71,0,0,1-7,2.48c-1.43-.14-2.85-.39-4.34-.59,0,.73-.11,1.58-.16,2.42-.08,1.32-.15,2.63-.24,3.95a3.19,3.19,0,0,1-2.88,2.93c-1.27.11-2.55,0-3.94,0,.77-11.77,1.54-23.5,2.32-35.26,1.43,0,2.83-.11,4.21,0a2.61,2.61,0,0,1,2.22,2.84c-.11,2.17-.28,4.33-.42,6.5-.11,1.84-.31,3.67-.27,5.5.06,3.11,2,5.08,5.15,5.41a7.35,7.35,0,0,0,3.72-.33c.26-.1.45-.19.37-.55a19.05,19.05,0,0,1-.14-5.17c.18-2.53.36-5.07.52-7.61.16-2.2.31-4.4.46-6.63,1.42,0,2.79-.1,4.15,0a2.6,2.6,0,0,1,2.27,2.8c-.09,2.22-.26,4.44-.38,6.67-.11,2-.27,3.89-.26,5.84a5.17,5.17,0,0,0,1.55,3.93A4.72,4.72,0,0,0,789.67,35.74Zm9-.76h1.45a1.11,1.11,0,0,0,1.26-.94.81.81,0,0,0,0-.22c.25-3.57.49-7.15.73-10.72a1,1,0,0,0-.87-1.11h-3.86c-.36,0-.49.1-.5.47,0,.85-.1,1.71-.15,2.56-.2,3-.41,5.93-.6,8.89a1,1,0,0,0,.91,1.09h1.62Z" transform="translate(0 0.05)"/><path class="cls-10" d="M760.56,15.33c-.1,1.67-.19,3.24-.3,4.81-.17,2.56-.34,5.12-.53,7.67-.17,2.3-.21,4.62-.58,6.88a8.09,8.09,0,0,1-8,6.62,32.2,32.2,0,0,1-4.39-.13,7,7,0,0,1-5.84-7.63c.22-2.53.34-5.08.54-7.61a31.88,31.88,0,0,1,.45-4.37,8.13,8.13,0,0,1,8-6.24h10.7Zm-7,6.66h-4.38a1.06,1.06,0,0,0-1,1.06c-.24,3.5-.49,7-.72,10.5a1,1,0,0,0,.78,1.08h3.43a1,1,0,0,0,1-.92c0-.33.07-.66.1-1,.14-2,.27-4,.41-6C753.36,25.14,753.46,23.61,753.56,22Z" transform="translate(0 0.05)"/><path class="cls-11" d="M807.39,44.19c-.07,1.07-.1,2.12-.23,3.17a5.12,5.12,0,0,1-.48,1.84,2.73,2.73,0,0,1-2.6,1.51H786.41c-.49,0-.7-.12-.64-.66.11-1.08.13-2.18.24-3.27a3.07,3.07,0,0,1,2.82-2.64h18.33Z" transform="translate(0 0.05)"/><path class="cls-10" d="M783,13.05H781.2c-.12,0-.31-.29-.3-.44.06-1.15.15-2.3.24-3.44s-.22-1.34-1.25-1.16a.6.6,0,0,0-.36.4c-.11,1.4-.17,2.81-.28,4.22a.56.56,0,0,1-.35.42h-1.74c.06-.89.12-1.71.17-2.54,0-.65.07-1.29.09-1.94s-.36-.62-.79-.62-.77-.07-.8.54c-.05,1.34-.18,2.67-.25,4,0,.43-.16.63-.6.56h-.16c-1.4,0-1.4,0-1.31-1.37.11-1.58.24-3.15.33-4.72a.56.56,0,0,1,.58-.65,9.51,9.51,0,0,1,4.18.17,1.72,1.72,0,0,0,.54-.06,21.86,21.86,0,0,1,2.8-.12,1.34,1.34,0,0,1,1.34,1.34,1.64,1.64,0,0,1,0,.22C783.22,9.57,783.08,11.27,783,13.05Z" transform="translate(0 0.05)"/><path class="cls-11" d="M763.26,6.32H768a2.39,2.39,0,0,1,2,2.5,14.11,14.11,0,0,1-.11,2.34,2.46,2.46,0,0,1-2.31,2h-1.61A2.93,2.93,0,0,1,763,10.25h0C763,9,763.16,7.67,763.26,6.32Z" transform="translate(0 0.05)"/><path class="cls-10" d="M776,43.78c-.13,1.57-.18,3.13-.4,4.67a2.79,2.79,0,0,1-2.74,2.26h-1.34A2.43,2.43,0,0,1,769,48.3v-.08a16.65,16.65,0,0,1,.13-2,2.79,2.79,0,0,1,2.35-2.36A43.41,43.41,0,0,1,776,43.78Z" transform="translate(0 0.05)"/><path class="cls-10" d="M783.91,43.75c-.1,1.53-.16,3-.32,4.48a2.89,2.89,0,0,1-2.8,2.48h-1.33A2.44,2.44,0,0,1,777,48.39a10.42,10.42,0,0,1,.14-2.16,2.77,2.77,0,0,1,2.55-2.41A39.45,39.45,0,0,1,783.91,43.75Z" transform="translate(0 0.05)"/><path class="cls-10" d="M752.31,6.3c-.14,1.62-.17,3.21-.43,4.75a2.56,2.56,0,0,1-2.24,2.13,8.2,8.2,0,0,1-2.32,0,2.37,2.37,0,0,1-2-2.32,17.39,17.39,0,0,1,.13-2.16,2.81,2.81,0,0,1,2.35-2.37C749.29,6.23,750.77,6.3,752.31,6.3Z" transform="translate(0 0.05)"/><path class="cls-10" d="M759.77,6.28l-.18,3c0,.37-.06.74-.08,1.11a3,3,0,0,1-3,2.89,10.26,10.26,0,0,1-1.66-.08,2.41,2.41,0,0,1-2-2.36A17.66,17.66,0,0,1,753,8.78a2.89,2.89,0,0,1,2.62-2.48C757,6.23,758.33,6.28,759.77,6.28Z" transform="translate(0 0.05)"/><path class="cls-10" d="M796,11.32l.06.13c.09,1.36,0,1.45-1.27,1.58a15.51,15.51,0,0,1-2.55,0,1.71,1.71,0,0,1-1.79-1.6v-.22A18.15,18.15,0,0,1,790.77,8a1.94,1.94,0,0,1,1.9-1.73,14.77,14.77,0,0,1,2.66,0,1.42,1.42,0,0,1,1.37,1.38c.07.72,0,1.44,0,2.16,0,.38-.21.46-.54.46h-3.06a2,2,0,0,0-.56.22c.15.24.24.55.44.69a1.52,1.52,0,0,0,.76.11Zm-3.38-2.27h1.48a2.06,2.06,0,0,0,.55-.23c-.12-.25-.18-.61-.38-.73-.72-.44-1.47,0-1.65,1Z" transform="translate(0 0.05)"/><path class="cls-10" d="M789.4,11.32a8.55,8.55,0,0,1,0,1.24c0,.14-.2.36-.31.36-1.25.06-2.51.06-3.77,0-.91-.07-1.29-.59-1.44-1.51a8.85,8.85,0,0,1,.28-3.69,1.77,1.77,0,0,1,1.55-1.42,13.77,13.77,0,0,1,2.87,0,1.57,1.57,0,0,1,1.5,1.64V9.78c0,.37-.16.52-.54.52h-3.07a2.06,2.06,0,0,0-.57.25,2.61,2.61,0,0,0,.47.67,1.34,1.34,0,0,0,.71.1ZM788,9c.11-.73-.1-1-.77-1s-1.11.29-1.12,1Z" transform="translate(0 0.05)"/><path class="cls-10" d="M804.14,8a11.17,11.17,0,0,1,.08-1.29.51.51,0,0,1,.36-.32,32.8,32.8,0,0,1,3.71,0c1,.1,1.36.65,1.32,1.66-.05,1.43-.14,2.86-.26,4.28a.78.78,0,0,1-.45.58,11.47,11.47,0,0,1-4.37.11,1.26,1.26,0,0,1-1.13-1.31c0-.22,0-.45,0-.67A1.81,1.81,0,0,1,805,9a1.61,1.61,0,0,1,.31,0A13.25,13.25,0,0,0,807,8.92c.18,0,.35-.17.53-.27a2.38,2.38,0,0,0-.39-.6,1.09,1.09,0,0,0-.59-.1Zm3.27,2.24h-1.35a.59.59,0,0,0-.59.59v.07c0,.41.22.56.58.58a3.24,3.24,0,0,0,.88,0,.7.7,0,0,0,.39-.4A3,3,0,0,0,807.41,10.19Z" transform="translate(0 0.05)"/><path class="cls-10" d="M803.09,6.22a2.3,2.3,0,0,1-.59,2.1c-.81.89-1.55,1.84-2.43,2.91h2.37c.38,0,.52.15.5.54-.09,1.58.08,1.26-1.3,1.28s-2.71,0-4.07,0H797a2.12,2.12,0,0,1,.47-1.87c.9-1,1.75-2.06,2.73-3.2h-2.77a14.48,14.48,0,0,1,.11-1.52.34.34,0,0,1,.25-.23Z" transform="translate(0 0.05)"/><path class="cls-12" d="M713.17,41.55H708a2.8,2.8,0,0,1-2.9-2.69c0-.1,0-.21,0-.31.21-3.24.47-6.48.71-9.72.2-2.78.41-5.56.61-8.34.06-.85.1-1.7.21-2.55a3.26,3.26,0,0,1,3.27-2.83h10.48a2.76,2.76,0,0,1,2.87,3.1q-.57,8.28-1.19,16.56c-.1,1.27-.2,2.55-.31,3.83a3.31,3.31,0,0,1-3.21,3C716.77,41.56,715,41.55,713.17,41.55ZM707.51,35h11.81c.27,0,.55.06.58-.38.17-2.58.37-5.15.55-7.72.21-2.84.4-5.67.62-8.5.06-.8-.23-1.15-1-1.15H709.92a1,1,0,0,0-1.22.71,1.11,1.11,0,0,0,0,.48c-.09,1.11-.16,2.22-.24,3.33-.26,3.44-.51,6.89-.76,10.33C707.62,33,707.57,33.93,707.51,35Zm12.19,2.18H707.36a9,9,0,0,1-.12,1.06v.28a.88.88,0,0,0,.81.93h10.4a1,1,0,0,0,1.16-.82,1.09,1.09,0,0,0,0-.18C719.65,38,719.66,37.58,719.7,37.13Z" transform="translate(0 0.05)"/><path class="cls-10" d="M707.51,35c.06-1,.11-2,.18-2.93.25-3.44.5-6.89.76-10.33.08-1.11.15-2.22.24-3.33a1,1,0,0,1,.84-1.14.92.92,0,0,1,.37,0h10.15c.79,0,1.08.35,1,1.15-.22,2.83-.41,5.66-.62,8.5-.18,2.57-.38,5.14-.55,7.72,0,.44-.31.38-.58.38H708.2Z" transform="translate(0 0.05)"/><path class="cls-10" d="M719.7,37.13a9,9,0,0,1-.1,1.22,1,1,0,0,1-1,1,.61.61,0,0,1-.19,0H708.11a.87.87,0,0,1-.89-.85v-.36a10.12,10.12,0,0,1,.12-1.06Z" transform="translate(0 0.05)"/><path class="cls-13" d="M654.55,31.52l-1.48.11V23h1.43l.06,1.39H656v1.4l-1.4.08v1.49H659l.07,1.37h0l-1.56.1v2.8l1.4.08.08,1.41h1.38v1.32h4.36v-1.3h-2.85V31.65h7.23V33l-1.38.09v1.27h2.83V33.13H672l.08,1.27h6.72a.78.78,0,0,0,.62-.29,2.71,2.71,0,0,1,2.83-1.57,2.66,2.66,0,0,1,2.38,2,.83.83,0,0,0,.08.12v1.27a3.07,3.07,0,0,1-2,2c-1.41.37-2.51-.21-3.41-1.79H669.15v1.25h2.28c.5,0,.66.15.64.64v2.32h-1.55V38.94h-1.35V40.3h1.38v1.39l1.46.08v2.86h-1.43V43.29h-4.37V41.75H669V40.39l-1.41-.09V38.93h-1.4l-.07,1.37h-2.73v1.4h1.35v3h4.4v4.4h-3V46.23h-1.4l-.06,1.37h-1.46V44.72h-1.37V49l1.39.08v1.36h-1.46V49.1H659v1.29h-1.55V47.66H656V46.24h-1.43l-.07,1.35h-1.45V41.75H656V40.3h2.83V37.5h-1.29l-.1,1.41H656v1.41h-3V36.1h-2.83v1.29h1.33v1.47h-2.87V36.1h-1.4l-.05,1.29H645.8l-.1-1.33h-2.8v1.17c.49.09,1.06,0,1.38.31s0,.79,0,1.25h-1.46V37.5h-1.4l-.08-1.44h-5.61a3,3,0,0,0-2.39.74,2.48,2.48,0,0,1-3.49-.34,2.34,2.34,0,0,1-.34-.54l-.27-.56V34.22a2.66,2.66,0,0,1,2.58-2A2.59,2.59,0,0,1,634.3,34c.08.18.32.42.49.42h6.56V31.65h1.45V33h1.44l.08-1.35h7.21v1.39l-1.35.06v1.28H653l.07-1.29h1.53c0,.43-.05.85-.08,1.29h1.41l.09-1.22,1.33-.11V31.65H656a10.55,10.55,0,0,0,.07,1.5l-1.45-.07V31.5l1.38.11V28.75h-1.37Zm5.82,8.8h-1.45v1.47l-1.4.07v1.29l1.37.09.08,1.4h1.38V40.29h2.82V38.93h-2.75Zm5.77-4.2h-4.26v1.19h4.26Zm-21.8-1.73h2.83V33.12h-2.83ZM657.52,44.7v2.79h1.27V44.7Zm-1.58,0V43.31H654.6v1.35ZM669,37.54h-1.29v1.3H669Zm-7.12,4.36c-.24,1.35-.06,1.53,1.25,1.23V41.86Z" transform="translate(0 0.05)"/><path class="cls-14" d="M677.47,0a3.32,3.32,0,0,1,.67.87c1.1,3.27,2.16,6.56,3.23,9.84a1.22,1.22,0,0,1,0,.27H672c-.49-2.54-1-5.07-1.47-7.6-.22-1.13-.47-2.25-.71-3.38Z" transform="translate(0 0.05)"/><path class="cls-14" d="M643.81,0l-1.56,8-.6,3h-9.44c.2-.6.39-1.18.57-1.75.9-2.72,1.77-5.45,2.69-8.17A5.6,5.6,0,0,1,636.18,0Z" transform="translate(0 0.05)"/><path class="cls-14" d="M659.93,0c.17,2.75.33,5.51.49,8.26.06.89.11,1.78.17,2.72h-7.5c.09-1.52.19-3,.28-4.56q.18-3.21.34-6.42Z" transform="translate(0 0.05)"/><path class="cls-14" d="M668,0l1,5.75c.33,1.74.66,3.46,1,5.24h-7.5c-.11-1.73-.22-3.44-.34-5.15-.13-1.95-.28-3.89-.43-5.84Z" transform="translate(0 0.05)"/><path class="cls-14" d="M651.87,0l-.75,11h-7.48c.18-1,.35-1.91.54-2.87.48-2.51,1-5,1.45-7.54a2.62,2.62,0,0,0,0-.56Z" transform="translate(0 0.05)"/><path class="cls-13" d="M677.33,39.79h1.93v15.6H634.32V39.78h1.94V53.39h41.07Z" transform="translate(0 0.05)"/><path class="cls-13" d="M641.42,40.39h10.1v10h-10.1Zm1.4,1.51v6.78c0,.49.37.4.66.4h5.93c.55,0,.68-.19.67-.7v-6.5Z" transform="translate(0 0.05)"/><path class="cls-13" d="M654.52,49.1v1.34h-1.45V49.1Z" transform="translate(0 0.05)"/><path class="cls-13" d="M669.12,49.08h1.38v1.37h-1.36V49.07Z" transform="translate(0 0.05)"/><path class="cls-13" d="M666.15,49.07v1.37h-1.38V49.08h1.38Z" transform="translate(0 0.05)"/><path class="cls-13" d="M681.61,12.08a5.84,5.84,0,0,1-4.25,4.46c-2.56.87-4.52-.26-6.2-2.21a5.81,5.81,0,0,1-8.07,1.47,6,6,0,0,1-1.47-1.47,5.81,5.81,0,0,1-4.76,2.51,5.73,5.73,0,0,1-4.77-2.45,5.88,5.88,0,0,1-8.2,1.39,5.73,5.73,0,0,1-1.39-1.39c-1.77,2.15-4,3.06-6.68,2.12a5.6,5.6,0,0,1-3.76-4.38Z" transform="translate(0 0.05)"/><path class="cls-13" d="M672,30.12H661.84V20H672Zm-1.45-8.63h-7.19v7.15h7.19Z" transform="translate(0 0.05)"/><path class="cls-13" d="M641.42,30.1V20h10.11V30.1Zm8.68-8.61h-7.23v7.16h7.23Z" transform="translate(0 0.05)"/><path class="cls-13" d="M636.22,30.23h-1.91V16.39c.62.33,1.18.61,1.71.94a.64.64,0,0,1,.26.51V30A1.22,1.22,0,0,1,636.22,30.23Z" transform="translate(0 0.05)"/><path class="cls-13" d="M679.26,30.22h-1.94v-12A1,1,0,0,1,678,17a11.23,11.23,0,0,0,1.24-.65Z" transform="translate(0 0.05)"/><path class="cls-13" d="M656,24.39V23h3v2.79h-1.56V24.32H656Z" transform="translate(0 0.05)"/><path class="cls-13" d="M656,21.39V20h1.42v1.38Z" transform="translate(0 0.05)"/><path class="cls-13" d="M658.94,25.74h1.36v1.49l-1.36.06h0V25.73Z" transform="translate(0 0.05)"/><path class="cls-13" d="M659,28.66l1.3.07v1.36h-1.46c.06-.5.11-1,.17-1.44Z" transform="translate(0 0.05)"/><path class="cls-13" d="M664.78,22.91v4.31h4.27V22.91Z" transform="translate(0 0.05)"/><path class="cls-13" d="M644.3,43.25h4.4v4.33h-4.4Z" transform="translate(0 0.05)"/><path class="cls-13" d="M664.78,22.91h4.27v4.31h-4.27Z" transform="translate(0 0.05)"/><path class="cls-13" d="M644.35,22.93h4.29v4.29h-4.29Z" transform="translate(0 0.05)"/><path class="cls-14" d="M653.09,36h8.77l.11,1.25h4.27V36h3v1.24l3,.18v2.83h-1.62V38.89h-1.36v1.35h1.38V41.6l1.54.21v2.83h-1.57V43.21h-4.33V41.67h2.82V40.33l-1.4-.08-.06-1.37h-1.33l-.07,1.41h-2.82v1.42h1.4v3h4.37v4.35h-3V46.18h-1.44v1.36h-1.52V44.68H661.9V49l1.4.07v1.37h-1.53V49.06H659v1.33h-1.53V47.57h-1.35L656,46.19h-1.41v1.34h-1.44V41.65H656v-1.4h2.84v-2.8h-1.29l-.08,1.36-1.44.07v1.39h-3Zm7.33,4.26H659v1.47l-1.41.09V43.1l1.38.09.08,1.39h1.39V40.25h2.82V38.89h-2.82Zm-1.56,4.42h-1.28v2.7h1.28Zm-4.22-.1H656V43.26h-1.33Zm14.44-5.82V37.46h-1.26v1.31Zm-7.15,4.33h1.28V41.81h-1.28Z" transform="translate(0 0.05)"/><path class="cls-14" d="M650.26,36v1.28h1.37v1.5h-2.92V36Z" transform="translate(0 0.05)"/><path class="cls-14" d="M642.91,36l.07,1.22c.48.08,1,0,1.38.27s0,.8,0,1.28H642.9V37.45h-1.44V36Z" transform="translate(0 0.05)"/><path class="cls-14" d="M647.29,36v1.38h-1.41V36Z" transform="translate(0 0.05)"/><path class="cls-14" d="M651.66,40.3V50.39H641.51V40.3ZM643,41.82v7.12h7.11V41.82Z" transform="translate(0 0.05)"/><path class="cls-14" d="M654.6,49v1.35h-1.45V49Z" transform="translate(0 0.05)"/><path class="cls-14" d="M666.23,49v1.37h-1.39V49h1.39Z" transform="translate(0 0.05)"/><path class="cls-14" d="M669.22,49h1.38v1.38h-1.41V49Z" transform="translate(0 0.05)"/><path class="cls-14" d="M644.42,43.16h4.14c.1,0,.27.21.27.32v4h-4.41Z" transform="translate(0 0.05)"/><path class="cls-15" d="M417.77,23.63a29.94,29.94,0,0,1-8.71-1.06,1.55,1.55,0,0,0-.95,0,12.75,12.75,0,0,1-4.77.75c-9.24,0-18.49-.05-27.74-.06q-15.33,0-30.67,0c-1,0-2.06.06-3.08.05a.69.69,0,0,0-.78.55,13.22,13.22,0,0,1-4.5,5.84,1.21,1.21,0,0,1-.83.26c-1.85-.23-3.7-.51-5.61-.78l.13-2c1-.12,1.88-.19,2.79-.34,3-.5,4.74-2.47,5.8-5.16a1.55,1.55,0,0,0,0-1c-.88-2.29-1.8-4.57-2.72-6.85-.09-.23-.21-.45-.36-.75l3.37-1.91a36.22,36.22,0,0,1,2.59,8.63h62.59a5.17,5.17,0,0,1-1.12-4.61,5.7,5.7,0,0,1,2.12-3.22,4.83,4.83,0,0,1,6.05.11c2.18,1.78,2.37,4.16.58,8l3.25.25a7.31,7.31,0,0,0-3.68-8.54,25.37,25.37,0,0,0-2.85-1.16c-.81-.3-1-.72-.65-1.54s.7-1.36,1.1-2.14l2.75,1c.48.17,1,.35,1.45.51.67.21,1.32.42,1.32,1.32,0,.19.21.4.38.54,3,2.54,3.81,5.85,3.4,9.59C418.24,21,418,22.32,417.77,23.63ZM407.88,14A2.43,2.43,0,0,0,406,15.55c-.44.81.1,1.34.54,1.82a9.57,9.57,0,0,0,1.6,1.3.61.61,0,0,0,.6,0,3.16,3.16,0,0,0,1.39-2.38A2.14,2.14,0,0,0,407.88,14Z" transform="translate(0 0.05)"/><path class="cls-15" d="M514.1,7.2l3.55-1.43c.25,4.64.5,9.23.75,13.93h1.19c2.06,0,4.11,0,6.17,0,1.34,0,1.44-.19,1.59-1.5.2-1.71.42-3.41.64-5.12a5.22,5.22,0,0,1,.16-.67l3.5.82c-.39,2.06-.77,4-1.16,6.12,2.16.68,4.33.26,6.54.41a25.09,25.09,0,0,0-1.72-8.42l2.87-1.42c.27.64.53,1.24.79,1.84.49,1.18,1,2.36,1.46,3.56a1.65,1.65,0,0,1-.06.9,12.82,12.82,0,0,0-.39,1.44c-.14,1.68-.22,3.38-.36,5.06,0,.22-.33.58-.5.58-2.69-.05-5.38-.12-8.07-.25a1.78,1.78,0,0,1-1.76-1.17c-2,1.74-4.44,1.42-6.78,1.45-1.64,0-3.29,0-4.93,0a1.52,1.52,0,0,1-1-.49.81.81,0,0,0-1-.29,33.15,33.15,0,0,1-9.2,1.13c-14.49,0-29,0-43.47-.05a10.28,10.28,0,0,1-3.39-.58c-2.67-1-3.44-3.15-3.53-5.27a4.65,4.65,0,0,1,.43-1.62c.42-1.26.88-2.5,1.34-3.81l2.11.69c-.26.9-.54,1.74-.74,2.61-.61,2.65.5,4.16,3.22,4.4a17.47,17.47,0,0,0,1.77.08h42.62a36,36,0,0,0,8-.82c.58-.13.66-.37.59-.89-.33-2.57-.66-5.14-.95-7.71C514.2,9.54,514.18,8.41,514.1,7.2Z" transform="translate(0 0.05)"/><path class="cls-15" d="M438.21,19.7H444a46.21,46.21,0,0,0-1.46-12.6l2.89-1.3c.69,2,1.36,3.91,2,5.85a.58.58,0,0,1-.09.49,1.79,1.79,0,0,0-.4,1.64,35.78,35.78,0,0,1-.36,9.51c-.67,0-1.33,0-2,0a52.19,52.19,0,0,1-7.52-.35,14.13,14.13,0,0,0-5.72,0,35.33,35.33,0,0,1-6.44.34c-1.2,0-2.4,0-3.63,0-.12-1.93-.2-3.78-.35-5.61-.26-3.2-.54-6.4-.87-9.59-.08-.72.05-1.06.78-1.27.92-.27,1.81-.68,2.82-1.07.22,4.66.44,9.23.67,13.88h6c-1.13-1.55-2-3.1-1.55-5a6.63,6.63,0,0,1,3-4.31,5,5,0,0,1,6.24.6,6.21,6.21,0,0,1,2,4.3C440.14,16.86,439.35,18.23,438.21,19.7Zm-4-6.58A3,3,0,0,0,431.73,15c-.5,1,.33,1.44.75,2.06a2.45,2.45,0,0,0,.47.5c1.76,1.45,1.4,1.49,3.08-.1a6.9,6.9,0,0,0,.74-.88,1.22,1.22,0,0,0,.27-.53A3.22,3.22,0,0,0,434.25,13.12Z" transform="translate(0 0.05)"/><path class="cls-16" d="M333.83,40.47l.84.36a4.18,4.18,0,0,1,.74,7.42,8.54,8.54,0,0,1-3.43,1.2c-2.16.19-4.35,0-6.52.06-.62,0-.53-.42-.53-.8V36.3c0-.89,0-1.79,0-2.69,0-.44.1-.64.57-.7a22.33,22.33,0,0,1,7.65.06,6.23,6.23,0,0,1,2.08,1,3.5,3.5,0,0,1-.17,5.85C334.71,40,334.35,40.17,333.83,40.47ZM328,44.55c0,.69,0,1.39,0,2.08,0,.53.22.79.72.77a20,20,0,0,0,3.2-.25A2.46,2.46,0,0,0,334,44.43,2.52,2.52,0,0,0,331.69,42c-1-.17-2-.12-3.06-.2-.52,0-.69.2-.68.68C328,43.16,328,43.86,328,44.55Zm1.68-4.77a21.82,21.82,0,0,0,2.83-.77,1.88,1.88,0,0,0,1.1-2.1,1.77,1.77,0,0,0-1.41-1.71,23.36,23.36,0,0,0-3.64-.25c-.18,0-.51.4-.53.64-.07.79,0,1.59,0,2.38C328,39.6,328,39.6,329.63,39.78Z" transform="translate(0 0.05)"/><path class="cls-16" d="M442.46,47.45a4.92,4.92,0,0,1-4.25,2.35,5.65,5.65,0,0,1-5.67-4.67,8.09,8.09,0,0,1,.25-3.94,5.78,5.78,0,0,1,9.44-2.47c0-.35,0-.61,0-.88,0-1.82,0-3.64,0-5.46,0-.51.16-.69.67-.66a13.61,13.61,0,0,0,1.69,0c.6,0,.8.14.79.76,0,2.7,0,5.4,0,8.09s0,5.44,0,8.17c0,.61-.17.83-.78.77s-1.28.17-1.65-.1-.28-1-.4-1.52C442.58,47.8,442.54,47.7,442.46,47.45Zm-.19-3.91v-.81a3,3,0,0,0-2.18-3.14,3.4,3.4,0,0,0-3.81,1.3,4.49,4.49,0,0,0-.73,3,3.52,3.52,0,0,0,2.06,3.19,3.3,3.3,0,0,0,4.66-3.54Z" transform="translate(0 0.05)"/><path class="cls-16" d="M384.08,47.65a5,5,0,0,1-3.3,2.06,5.52,5.52,0,0,1-6.35-4.47,7.63,7.63,0,0,1,.62-5A5.67,5.67,0,0,1,382,37.48a11.94,11.94,0,0,1,2.18,1.42,1,1,0,0,0,.09-.29c.08-1.17.08-1.17,1.23-1.17,1.78,0,1.77,0,1.77,1.75,0,4.81,0,9.61,0,14.41,0,.68-.18.94-.86.86s-1.7.17-2.13-.21-.14-1.35-.15-2.06c0-1.21,0-2.42,0-3.62C384.14,48.32,384.11,48.08,384.08,47.65Zm.09-4.25h0c0-.21,0-.42,0-.62a3.09,3.09,0,0,0-2.4-3.22A3.39,3.39,0,0,0,378,41.25a4.67,4.67,0,0,0,0,4.43,3.32,3.32,0,0,0,3.27,1.75A3.22,3.22,0,0,0,384.05,45,9.34,9.34,0,0,0,384.17,43.4Z" transform="translate(0 0.05)"/><path class="cls-16" d="M488.6,35.65a9.82,9.82,0,0,0-6.36-.33,6.12,6.12,0,0,0,.89,11.83,12,12,0,0,0,5.48-.5l.56,2.38c-.82.19-1.58.42-2.34.55a12.09,12.09,0,0,1-7.79-1,7.46,7.46,0,0,1-4.11-6.11c-.7-6.13,3.73-9.4,7.86-9.89a14.81,14.81,0,0,1,5.78.37c.54.15.79.38.54,1A15.26,15.26,0,0,0,488.6,35.65Z" transform="translate(0 0.05)"/><path class="cls-15" d="M329,12.13l-1.12-1.48,2.21-2.19L334,13.22c.09.11.21.3.17.4-.31.76.18,1.32.44,2,.54,1.3,1.09,2.6,1.6,3.91a3.29,3.29,0,0,1-1.06,3,8.56,8.56,0,0,1-7.2.69c-2.32-.87-4-3.09-2.67-6.2a13.75,13.75,0,0,1,3.12-4.25Zm1.88,2.61A10,10,0,0,0,328,18.63a.82.82,0,0,0,.26.69,4.47,4.47,0,0,0,4.85.18Z" transform="translate(0 0.05)"/><path class="cls-16" d="M412.26,44.32a2.62,2.62,0,0,0,1,2.2,4.68,4.68,0,0,0,3.39,1c1.12-.07,2.22-.26,3.44-.4l.44,1.92c-2.92.91-5.77,1.35-8.53-.21-2.07-1.17-2.77-3.14-2.74-5.41a6.21,6.21,0,0,1,4.68-6c4.32-1.08,7.74,1.91,7.29,6.35-.06.55-.34.58-.77.58h-7.24C412.93,44.28,412.63,44.31,412.26,44.32Zm6-2.17a2.66,2.66,0,0,0-2.54-3,3.06,3.06,0,0,0-3.41,3Z" transform="translate(0 0.05)"/><path class="cls-16" d="M539.17,47.18c.11.48.24,1.1.4,1.79a12,12,0,0,1-5.44.78,6.82,6.82,0,0,1-3.45-1.17,6.18,6.18,0,0,1-2.15-6.68,5.82,5.82,0,0,1,5-4.61,9,9,0,0,1,2.88.1c2.36.56,3.77,2.57,3.89,5.28.08,1.61.08,1.61-1.5,1.61h-6.62c-.92,0-1,.19-.69,1a3.38,3.38,0,0,0,3.22,2.1C536.12,47.47,537.57,47.28,539.17,47.18Zm-7.83-5H537c.54,0,.41-.42.35-.74A2.83,2.83,0,0,0,534,39.18,3.13,3.13,0,0,0,531.34,42.2Z" transform="translate(0 0.05)"/><path class="cls-16" d="M500.86,48a5.61,5.61,0,0,1-3.39,1.74A4,4,0,0,1,492.9,47a3.79,3.79,0,0,1,2.42-4.46,22.81,22.81,0,0,1,3.72-.83c.5-.1,1-.11,1.48-.16a1.93,1.93,0,0,0-1.66-2.24,7,7,0,0,0-3.83.5c-.21.08-.42.18-.72.31-.17-.55-.37-1-.48-1.55a.64.64,0,0,1,.29-.52,8.65,8.65,0,0,1,7.14-.33,4.2,4.2,0,0,1,2.41,4.07c.07,1.9,0,3.8,0,5.7,0,.63.08,1.26.13,2-.83,0-1.56,0-2.3,0-.17,0-.39-.27-.48-.46A4,4,0,0,1,500.86,48Zm0-3.39c-.18-.36-.35-1-.54-1a5.58,5.58,0,0,0-3.79.89,1.72,1.72,0,0,0-.55,1.94,1.54,1.54,0,0,0,1.3,1.15A2.93,2.93,0,0,0,500.87,44.64Z" transform="translate(0 0.05)"/><path class="cls-16" d="M349.12,41.6a2,2,0,0,0-1.7-2.27,6.75,6.75,0,0,0-3.76.48l-.77.32a15.42,15.42,0,0,1-.49-1.56.63.63,0,0,1,.31-.51,8.72,8.72,0,0,1,7-.38,4.22,4.22,0,0,1,2.54,4.15c.06,1.9,0,3.8,0,5.7,0,.62.08,1.25.13,2-.83,0-1.57,0-2.31,0-.17,0-.38-.27-.47-.47a4.61,4.61,0,0,1-.19-1,5.75,5.75,0,0,1-3.33,1.71,4.05,4.05,0,0,1-4.52-2.38,3.71,3.71,0,0,1,2-4.65,16.75,16.75,0,0,1,3.53-1A14.5,14.5,0,0,1,349.12,41.6Zm.17,3.14c0-1.25,0-1.25-1.27-1.11a2.42,2.42,0,0,0-.54,0,12.21,12.21,0,0,0-2.33.85,1.55,1.55,0,0,0-.61,1.83,1.53,1.53,0,0,0,1.31,1.24C348,48,349.57,46.33,349.29,44.74Z" transform="translate(0 0.05)"/><path class="cls-16" d="M357.78,37.44c.81,0,1.54,0,2.28,0,.14,0,.36.25.4.42.11.44.13.9.22,1.52l.56-.6a4.79,4.79,0,0,1,4.51-1.57,4.22,4.22,0,0,1,3.77,4.12c.14,2.53.11,5.07.16,7.61,0,.39-.13.56-.53.54-.67,0-1.34,0-2,0-.5,0-.61-.21-.6-.65q0-3,0-6a4.87,4.87,0,0,0-.14-1.14,2.37,2.37,0,0,0-2.61-2.09,2.79,2.79,0,0,0-2.73,2.25,19.62,19.62,0,0,0-.12,2.77c0,1.38,0,2.77,0,4.15,0,.53-.16.75-.71.71-.73-.06-1.74.21-2.14-.17s-.18-1.39-.19-2.12c0-2.85,0-5.7,0-8.55C357.87,38.29,357.82,37.92,357.78,37.44Z" transform="translate(0 0.05)"/><path class="cls-16" d="M462.67,49.5a20.65,20.65,0,0,1-2.09,0c-.2,0-.47-.34-.53-.57a8,8,0,0,1-.11-1.41,4.63,4.63,0,0,0-.48.45,4.9,4.9,0,0,1-5.4,1.64,4.12,4.12,0,0,1-3-4c-.07-2.49,0-5-.06-7.47,0-.45.14-.63.62-.64,2.41-.09,2.4-.11,2.42,2.29,0,1.8,0,3.6.17,5.38a2.25,2.25,0,0,0,2.63,2.2,2.72,2.72,0,0,0,2.69-2.47c.11-2.13.08-4.26.11-6.39,0-1,0-1,1-1,2,0,2,0,2,2,0,3.18,0,6.37.05,9.55C462.72,49.13,462.69,49.28,462.67,49.5Z" transform="translate(0 0.05)"/><path class="cls-16" d="M404.55,49.5a18.33,18.33,0,0,1-2.11,0c-.21,0-.46-.4-.54-.66a8.11,8.11,0,0,1-.1-1.35c-.26.27-.4.41-.52.55a5.08,5.08,0,0,1-5.73,1.46,4.07,4.07,0,0,1-2.6-3.86c-.12-2.52-.05-5-.08-7.56,0-.45.16-.65.63-.62a12.51,12.51,0,0,0,1.62,0c.6,0,.81.14.8.77,0,1.82,0,3.64,0,5.47a7.07,7.07,0,0,0,.16,1.52,2.33,2.33,0,0,0,2.65,2.11A2.78,2.78,0,0,0,401.39,45c.11-1.38.09-2.77.12-4.15,0-.88,0-1.75,0-2.62,0-.62.21-.83.81-.77a7.91,7.91,0,0,0,1.46,0c.62-.07.78.17.78.78,0,3.26,0,6.52,0,9.79Z" transform="translate(0 0.05)"/><path class="cls-15" d="M451.73,5.74c.25,5.92.49,11.7.74,17.53l-3.11.35c-.05-.54-.11-1.06-.15-1.58-.36-4.61-.71-9.21-1.09-13.81-.07-.76,0-1.24.87-1.46A26.53,26.53,0,0,0,451.73,5.74Z" transform="translate(0 0.05)"/><path class="cls-16" d="M520.71,39.82c.36-.53.64-1,1-1.45a3.66,3.66,0,0,1,2.72-1.24c.47,0,.72.14.7.66,0,.69,0,1.39,0,2.13a4.92,4.92,0,0,1-.52,0c-2.29-.07-3.54,1.1-3.58,3.42,0,1.77,0,3.54,0,5.31,0,.65-.2.88-.84.82a7.12,7.12,0,0,0-1.46,0c-.65.07-.77-.22-.77-.8,0-3.36,0-6.72,0-10.08,0-1.19,0-1.19,1.16-1.19,1.38,0,1.38,0,1.43,1.35,0,.26,0,.51.07.77C520.58,39.62,520.64,39.68,520.71,39.82Z" transform="translate(0 0.05)"/><path class="cls-15" d="M490,9.72,489,12a3.1,3.1,0,0,0-3.23.15c.3.89.71,1.1,1.56.89s1.79-.43,2.69-.63a2.21,2.21,0,0,1,.39,0c-.07,1-.13,2-.24,2.92,0,.14-.23.33-.38.37l-6.86,1.8c-.14-.6-.32-1.33-.44-2.08,0-.12.19-.31.34-.42a8.71,8.71,0,0,1,.78-.44,3.85,3.85,0,0,1-.5-3,4,4,0,0,1,2.4-2.82,2.59,2.59,0,0,1,2.16,0C488.38,9.11,489.15,9.39,490,9.72Z" transform="translate(0 0.05)"/><path class="cls-16" d="M512.37,43.47c0,1.75,0,3.49,0,5.24,0,.56-.12.87-.77.8s-1.7.17-2.13-.21-.15-1.35-.15-2.06c0-3,0-6,0-8.93,0-.64.11-.9.83-.89,2.22,0,2.22,0,2.22,2.2Z" transform="translate(0 0.05)"/><path class="cls-15" d="M434,6.7l-1.85,2.1-3-2.67,3.1-2.72,1.93,1.83,2-2.11,2.67,2.78-2.55,2.88Z" transform="translate(0 0.05)"/><path class="cls-15" d="M325,6l3.06-2.74,2,1.9,2-2.1,2.65,2.83-2.49,2.83-2.35-2.09L328,8.68Z" transform="translate(0 0.05)"/><path class="cls-15" d="M539.37,27.45l-2.62,3-3-2.67,2.82-3Z" transform="translate(0 0.05)"/><path class="cls-15" d="M532.24,7.59l-2.61,3-3-2.67,2.82-3Z" transform="translate(0 0.05)"/><path class="cls-16" d="M510.85,32.3a1.61,1.61,0,1,1,0,3.2,1.51,1.51,0,0,1-1.69-1.56A1.54,1.54,0,0,1,510.85,32.3Z" transform="translate(0 0.05)"/><path class="cls-17" d="M602.47,56.23H546V0h56.52ZM586,41.9c0-.27,0-.44,0-.62,0-5.85,0-11.69,0-17.53a23.71,23.71,0,0,0-.43-4.37,13.35,13.35,0,0,0-8.28-10.29,5.55,5.55,0,0,0-3.62-.5,13.68,13.68,0,0,0-8.81,6.55,17.71,17.71,0,0,0-2,8.94q0,8.52,0,17c0,.2,0,.41,0,.71,1-.67,1.82-1.29,2.72-1.85a.93.93,0,0,0,.49-.93c0-4.88,0-9.77,0-14.65a26.84,26.84,0,0,1,.23-3.47,10.8,10.8,0,0,1,6.48-8.7,3.12,3.12,0,0,1,2.13-.3,9.92,9.92,0,0,1,4.25,2.42,11.58,11.58,0,0,1,3.54,8.86c0,5.33,0,10.66,0,16,0,.2,0,.52.14.61C583.85,40.52,584.87,41.18,586,41.9Zm-6.53-4.25V37.1c0-5.07,0-10.13,0-15.2a5.65,5.65,0,0,0-2.63-4.9,3.82,3.82,0,0,0-2.79-.84,5.92,5.92,0,0,0-4.62,5.59c0,5.07,0,10.13,0,15.2,0,.17,0,.34,0,.57,1-.59,2-1.13,2.89-1.7a.87.87,0,0,0,.36-.59c0-4.35,0-8.7,0-13a3.64,3.64,0,0,1,.41-1.62c.69-1.29,1.94-1.32,2.63,0a4.33,4.33,0,0,1,.45,2c0,4.23,0,8.46,0,12.68,0,.24,0,.59.21.69C577.36,36.48,578.35,37,579.42,37.65ZM556.5,46.73c1.08-.87,2.07-1.62,3-2.43a1.14,1.14,0,0,0,.28-.79q0-12,0-24c0-.2,0-.39,0-.67-1,.71-1.86,1.38-2.78,2a1,1,0,0,0-.51,1q0,12.08,0,24.16Zm32.78-27.84v.84c0,7.58.05,15.15,0,22.73a3.05,3.05,0,0,0,1.47,3.08,15.88,15.88,0,0,1,1.76,1.38,1.11,1.11,0,0,1,0-.13q0-12.63,0-25.24a.57.57,0,0,0-.15-.43C591.41,20.39,590.4,19.68,589.28,18.89Z" transform="translate(0 0.05)"/><path class="cls-12" d="M586,41.9c-1.08-.72-2.1-1.38-3.08-2.08-.13-.09-.14-.41-.14-.61,0-5.34,0-10.67,0-16a11.58,11.58,0,0,0-3.54-8.86,9.92,9.92,0,0,0-4.25-2.42,3.12,3.12,0,0,0-2.13.3,10.8,10.8,0,0,0-6.48,8.7,26.84,26.84,0,0,0-.23,3.47c0,4.88,0,9.77,0,14.65a.93.93,0,0,1-.49.93c-.9.56-1.75,1.18-2.72,1.85,0-.3,0-.51,0-.71q0-8.52,0-17a17.71,17.71,0,0,1,2-8.94,13.68,13.68,0,0,1,8.81-6.55,5.55,5.55,0,0,1,3.62.5,13.35,13.35,0,0,1,8.28,10.29,23.71,23.71,0,0,1,.43,4.37c0,5.84,0,11.68,0,17.53C586,41.46,586,41.63,586,41.9Z" transform="translate(0 0.05)"/><path class="cls-12" d="M579.42,37.65c-1.07-.62-2.06-1.17-3-1.77-.16-.1-.21-.45-.21-.69,0-4.22,0-8.45,0-12.68a4.33,4.33,0,0,0-.45-2c-.69-1.29-1.94-1.26-2.63,0a3.64,3.64,0,0,0-.41,1.62c0,4.35,0,8.7,0,13a.87.87,0,0,1-.36.59c-.93.57-1.88,1.11-2.89,1.7,0-.23,0-.4,0-.57,0-5.07,0-10.13,0-15.2A5.92,5.92,0,0,1,574,16.16a3.82,3.82,0,0,1,2.79.84,5.65,5.65,0,0,1,2.63,4.9c0,5.07,0,10.13,0,15.2Z" transform="translate(0 0.05)"/><path class="cls-12" d="M556.5,46.73V46q0-12.08,0-24.16a1,1,0,0,1,.51-1c.92-.62,1.81-1.29,2.78-2,0,.28,0,.47,0,.67q0,12,0,24a1.14,1.14,0,0,1-.28.79C558.57,45.11,557.58,45.86,556.5,46.73Z" transform="translate(0 0.05)"/><path class="cls-12" d="M589.28,18.89c1.12.79,2.13,1.5,3.12,2.23a.57.57,0,0,1,.15.43q0,12.61,0,25.24a1.11,1.11,0,0,0,0,.13,15.88,15.88,0,0,0-1.76-1.38,3.05,3.05,0,0,1-1.47-3.08c.07-7.58,0-15.15,0-22.73Z" transform="translate(0 0.05)"/></svg>