<svg width="512" height="512" xmlns="http://www.w3.org/2000/svg">

 <g>
  <title>background</title>
  <rect fill="none" id="canvas_background" height="402" width="582" y="-1" x="-1"/>
 </g>
 <g>
  <title>Layer 1</title>
  <path fill="#003473" clip-rule="evenodd" fill-rule="evenodd" id="svg_2" d="m488.955688,98.390196l-467.3,0c-9.1,0 -14.8,1.4 -17.9,4.3c-2.7,3.3 -4,8.7 -4,16.7l0,29.9l0,24.1l0,172.3l0,25.2l0,28.8c0,14.3 7.4,21.7 21.9,21.7l467.3,0c15.2,0 22.8,-7.4 22.8,-21.7l0,-28.8l0,-25.2l0,-172.4l0,-24.1l0,-29.9c0,-14.1 -7.6,-20.9 -22.8,-20.9z" class="st0"/>
  <g id="svg_36">
   <path fill="#fcb131" clip-rule="evenodd" fill-rule="evenodd" id="svg_13" d="m255.755699,331.24019c17,15.5 39.5,24.9 64.2,24.9c52.8,0 95.6,-43.1 95.6,-96.2c0,-53.1 -42.8,-96.2 -95.6,-96.2c-24.7,0 -47.2,9.4 -64.2,24.9c-19.3,17.6 -31.4,43 -31.4,71.3c0,28.2 12.1,53.7 31.4,71.3l0,0z" class="st2"/>
   <path fill="#fcb131" clip-rule="evenodd" fill-rule="evenodd" id="svg_14" d="m402.855699,313.54019c0,-1.7 1.4,-3.1 3.1,-3.1c1.7,0 3.1,1.4 3.1,3.1c0,1.7 -1.4,3.1 -3.1,3.1c-1.8,0 -3.1,-1.4 -3.1,-3.1l0,0zm3,2.3c1.3,0 2.3,-1.1 2.3,-2.4c0,-1.3 -1,-2.4 -2.3,-2.4c-1.3,0 -2.3,1.1 -2.3,2.4c0,1.4 1.1,2.4 2.3,2.4l0,0zm-0.4,-1l-0.6,0l0,-2.7l1.1,0c0.2,0 0.5,0 0.7,0.1c0.2,0.1 0.3,0.4 0.3,0.7c0,0.3 -0.2,0.6 -0.5,0.7l0.5,1.2l-0.7,0l-0.4,-1.1l-0.5,0l0,1.1l0,-1.5l0.3,0c0.1,0 0.3,0 0.4,-0.1c0.1,-0.1 0.2,-0.2 0.2,-0.3c0,-0.1 -0.1,-0.2 -0.2,-0.3c-0.1,-0.1 -0.3,-0.1 -0.4,-0.1l-0.3,0l0,0.7l0,1.6l0.1,0z" class="st2"/>
   <path fill="#ed1b2e" clip-rule="evenodd" fill-rule="evenodd" id="svg_15" d="m286.655699,249.74019c-0.4,-3.5 -0.9,-6.9 -1.6,-10.2l-58.6,0c0.7,-3.5 1.7,-6.9 2.8,-10.2l53,0c-1.2,-3.5 -2.5,-6.9 -4,-10.2l-44.9,0c1.6,-3.5 3.5,-6.9 5.5,-10.2l33.9,0c-2.2,-3.6 -4.6,-7 -7.3,-10.2l-19.3,0c3,-3.6 6.2,-7 9.6,-10.2c-17,-15.5 -39.5,-24.9 -64.2,-24.9c-52.8,0 -95.6,43.1 -95.6,96.2c0,53.1 42.8,96.2 95.6,96.2c24.7,0 47.2,-9.4 64.2,-24.9l0,0l0,0c3.5,-3.2 6.7,-6.6 9.7,-10.2l-19.3,0c-2.6,-3.2 -5.1,-6.6 -7.3,-10.2l33.9,0c2,-3.3 3.9,-6.7 5.5,-10.2l-44.9,0c-1.5,-3.3 -2.9,-6.7 -4.1,-10.2l53,0c1.1,-3.3 2,-6.7 2.8,-10.2c0.7,-3.3 1.3,-6.7 1.6,-10.2c0.3,-3.3 0.5,-6.7 0.5,-10.2c0,-3.3 -0.1,-6.7 -0.5,-10l0,0z" class="st3"/>
   <path fill="#ffffff" clip-rule="evenodd" fill-rule="evenodd" id="svg_16" d="m402.855699,282.24019c0,-1.7 1.4,-3.1 3.1,-3.1c1.7,0 3.1,1.4 3.1,3.1c0,1.7 -1.4,3.1 -3.1,3.1c-1.8,0 -3.1,-1.4 -3.1,-3.1l0,0zm3,2.3c1.3,0 2.3,-1.1 2.3,-2.4c0,-1.3 -1,-2.4 -2.3,-2.4c-1.3,0 -2.3,1.1 -2.3,2.4c0,1.4 1.1,2.4 2.3,2.4l0,0zm-0.4,-1l-0.6,0l0,-2.7l1.1,0c0.2,0 0.5,0 0.7,0.1c0.2,0.1 0.3,0.4 0.3,0.7c0,0.3 -0.2,0.6 -0.5,0.7l0.5,1.2l-0.7,0l-0.4,-1.1l-0.5,0l0,1.1l0,-1.5l0.3,0c0.1,0 0.3,0 0.4,-0.1c0.1,-0.1 0.2,-0.2 0.2,-0.3c0,-0.1 -0.1,-0.2 -0.2,-0.3c-0.1,-0.1 -0.3,0 -0.4,0l-0.3,0l0,0.7l0,1.5l0.1,0z" class="st1"/>
   <path fill="#003473" clip-rule="evenodd" fill-rule="evenodd" id="svg_17" d="m223.255699,287.64019c-3.2,0.9 -5.4,1.3 -7.8,1.3c-4.8,0 -7.9,-3.1 -7.9,-8.7c0,-1.1 0.1,-2.3 0.3,-3.6l0.6,-3.9l0.5,-3.1l4.5,-27.1l10,0l-1.2,5.9l6.2,0l-1.5,10l-6.2,0l-2.7,16.2c-0.1,0.7 -0.2,1.3 -0.2,1.6c0,2 1.1,2.9 3.5,2.9c1.2,0 2.1,-0.1 3.2,-0.4l-1.3,8.9l0,0z" class="st0"/>
   <path fill="#003473" clip-rule="evenodd" fill-rule="evenodd" id="svg_18" d="m255.255699,287.34019c-3.6,1.1 -7,1.6 -10.6,1.6c-11.1,0 -17.6,-6.1 -17.6,-17.8c0,-13.6 7.7,-23.7 18.1,-23.7c8.5,0 14,5.6 14,14.4c0,2.9 -0.4,5.8 -1.3,9.8l-20.6,0c-0.1,0.6 -0.1,0.9 -0.1,1.2c0,4.6 3.1,7 9.1,7c3.7,0 7.1,-0.8 10.8,-2.5l-1.8,10l0,0zm-6.1,-23.6c0.1,-0.8 0.1,-1.5 0.1,-2c0,-3.2 -1.8,-5.1 -4.9,-5.1c-3.3,0 -5.7,2.5 -6.6,7.1l11.4,0l0,0z" class="st0"/>
   <polygon fill="#003473" clip-rule="evenodd" fill-rule="evenodd" id="svg_19" points="144.05569458007812,288.1401824951172 133.6556854248047,288.1401824951172 139.5557098388672,250.6401824951172 126.35569763183594,288.1401824951172 119.25569152832031,288.1401824951172 118.35569763183594,250.8401641845703 112.15570068359375,288.1401824951172 102.05569458007812,288.1401824951172 110.15570068359375,239.34017944335938 125.05569458007812,239.34017944335938 125.55570983886719,269.54017639160156 135.5557098388672,239.34017944335938 151.95570373535156,239.34017944335938 144.05569458007812,288.1401824951172 " class="st0"/>
   <path fill="#003473" clip-rule="evenodd" fill-rule="evenodd" id="svg_20" d="m168.955699,270.54019c-1.1,-0.1 -1.3,-0.2 -2,-0.2c-5.9,0 -8.9,2.3 -8.9,6c0,2.5 1.5,4 3.7,4c5,0.1 7,-4 7.2,-9.8l0,0zm8.2,17.6l-9,0l0.2,-4.1c-2.3,3.1 -5.4,4.8 -10.9,4.8c-5,0 -9.2,-4.4 -9.2,-10.8c0,-1.9 0.3,-3.6 0.8,-5.2c1.6,-6.1 7.8,-10 17.2,-10.1c1.2,0 3,0 4.6,0.2c0.3,-1.3 0.4,-1.9 0.4,-2.6c0,-2.6 -2.2,-3.5 -7,-3.5c-3,0 -6.3,0.5 -8.6,1.2l-1.4,0.4l-0.6,0.2l1.4,-8.9c4.9,-1.5 8.2,-2.1 12.1,-2.1c8.9,0 13.6,4 13.6,11.6c0,2 0.2,3.4 -0.5,7.9l-2.2,14.1l-0.4,2.5l-0.3,2l-0.2,1.4l0,1l0,0z" class="st0"/>
   <path fill="#003473" clip-rule="evenodd" fill-rule="evenodd" id="svg_21" d="m305.255699,248.84019c2.9,0 5.6,0.8 9.3,2.6l1.7,-10.6c-0.9,-0.4 -1.2,-0.5 -2.5,-1l-4.3,-1.1c-1.3,-0.3 -2.9,-0.5 -4.6,-0.5c-5.1,0 -8.2,0.1 -11.3,2c-1.7,1 -3.8,2.5 -6.2,5.2l-1.2,-0.4l-10.6,7.6l0.5,-4.3l-11,0l-6.3,39.7l10.4,0l3.8,-21.4c0,0 1.5,-2.9 2.2,-3.8c1.9,-2.6 3.6,-2.6 5.8,-2.5c0.3,0 0.6,0 0.7,0c-0.3,2.3 -0.5,4.8 -0.5,7.5c0,13 7.3,21.1 18.5,21.1c2.9,0 5.3,-0.4 9.2,-1.4l1.8,-11.1c-3.4,1.7 -6.3,2.5 -8.8,2.5c-6,0 -9.7,-4.5 -9.7,-11.9c-0.1,-10.7 5.3,-18.2 13.1,-18.2l0,0z" class="st0"/>
   <path fill="#003473" clip-rule="evenodd" fill-rule="evenodd" id="svg_22" d="m392.955699,239.34019l-2.3,13.9c-2.5,-3.8 -5.5,-5.6 -9.5,-5.6c-5.5,0 -10.4,3.1 -13.6,9l0,-0.1l-6.6,-3.9l0.5,-4.3l-11,0l-6.3,39.7l10.4,0l3.4,-21.4c0,0 2.7,-3 3.3,-3.9c1.5,-2 3.2,-2.4 4.6,-2.5c-1.2,3.4 -1.9,7.3 -1.9,11.8c0,9.9 5.1,16.5 12.7,16.5c3.8,0 6.7,-1.3 9.6,-4.4l-0.5,3.9l9.8,0l7.9,-48.8l-10.5,0l0,0.1zm-12.7,39.5c-3.5,0 -5.3,-2.6 -5.3,-7.8c0,-7.8 3.3,-13.3 8.1,-13.3c3.6,0 5.5,2.7 5.5,7.8c0,7.8 -3.4,13.3 -8.3,13.3l0,0z" class="st0"/>
   <path fill="#003473" clip-rule="evenodd" fill-rule="evenodd" id="svg_23" d="m332.455699,270.54019c-1.1,-0.1 -1.3,-0.2 -2,-0.2c-5.9,0 -8.9,2.3 -8.9,6c0,2.5 1.5,4 3.7,4c5.1,0.1 7.1,-4 7.2,-9.8l0,0zm8.2,17.6l-9,0l0.2,-4.1c-2.3,3.1 -5.4,4.8 -10.9,4.8c-5,0 -9.6,-4.3 -9.5,-10.9c0.1,-9.4 7.1,-15.3 18.3,-15.3c1.2,0 3,0 4.6,0.2c0.3,-1.3 0.4,-1.9 0.4,-2.6c0,-2.6 -2.1,-3.5 -7,-3.5c-3,0 -6.3,0.5 -8.6,1.2l-1.4,0.4l-0.6,0.2l1.4,-8.9c4.9,-1.5 8.2,-2.1 12.1,-2.1c8.9,0 13.6,4 13.6,11.6c0,2 0.2,3.4 -0.5,7.9l-2.2,14.1l-0.4,2.5l-0.3,2l-0.2,1.4l0,1.1l0,0z" class="st0"/>
   <path fill="#003473" clip-rule="evenodd" fill-rule="evenodd" id="svg_24" d="m198.755699,256.94019c2,0 4.8,0.2 7.8,0.6l1.5,-9.2c-3,-0.5 -6.9,-0.8 -9.3,-0.8c-11.6,0 -15.4,6.2 -15.4,13.6c0,4.7 2.3,8.3 7.8,10.9c4.2,2 4.9,2.4 4.9,4.2c0,2.5 -2.1,3.9 -6.2,3.9c-3.1,0 -6,-0.5 -9.3,-1.6l-1.2,9.1l0.2,0l1.9,0.4c0.6,0.1 1.5,0.3 2.7,0.4c2.5,0.2 4.5,0.4 5.9,0.4c11.5,0 16.3,-4.5 16.3,-13.2c0,-5.4 -2.6,-8.6 -7.8,-11c-4.3,-2 -4.9,-2.3 -4.8,-4.1c0,-2 1.9,-3.5 5,-3.6l0,0z" class="st0"/>
   <path fill="#ffffff" clip-rule="evenodd" fill-rule="evenodd" id="svg_25" d="m319.055699,237.84019l-1.7,10.6c-3.7,-1.9 -6.4,-2.6 -9.3,-2.6c-7.7,0 -13.2,7.5 -13.2,18.3c0,7.4 3.7,11.9 9.7,11.9c2.6,0 5.4,-0.8 8.8,-2.5l-1.8,11.1c-3.8,1 -6.3,1.4 -9.2,1.4c-11.2,0 -18.1,-8.1 -18.1,-21.1c0,-17.4 9.6,-29.6 23.4,-29.6c1.8,0 3.3,0.2 4.6,0.5l4.3,1.1c1.3,0.4 1.5,0.5 2.5,0.9l0,0z" class="st1"/>
   <path fill="#ffffff" clip-rule="evenodd" fill-rule="evenodd" id="svg_26" d="m285.655699,245.04019c-0.3,-0.1 -0.7,-0.1 -1,-0.1c-3.4,0 -5.3,1.8 -8.5,6.4l0.9,-6l-9.4,0l-6.3,39.7l10.4,0c3.7,-24.3 4.7,-28.5 9.7,-28.5c0.3,0 0.3,0 0.8,0c0.9,-4.8 2.2,-8.3 3.9,-11.5l-0.5,0l0,0z" class="st1"/>
   <path fill="#ffffff" clip-rule="evenodd" fill-rule="evenodd" id="svg_27" d="m225.855699,284.64019c-2.8,0.9 -5.1,1.3 -7.5,1.3c-5.3,0 -8.2,-3.1 -8.2,-8.7c0,-1.1 0.1,-2.3 0.3,-3.6l0.6,-3.9l0.5,-3.1l4.5,-27.1l10.3,0l-1.2,5.9l5.3,0l-1.4,9.7l-5.3,0l-2.7,16.6c-0.1,0.7 -0.2,1.3 -0.2,1.6c0,2 1.1,2.9 3.5,2.9c1.2,0 2.1,-0.1 2.8,-0.4l-1.3,8.8l0,0z" class="st1"/>
   <path fill="#ffffff" clip-rule="evenodd" fill-rule="evenodd" id="svg_28" d="m186.055699,257.94019c0,5 2.4,8.5 7.9,11.1c4.2,2 4.8,2.6 4.8,4.4c0,2.5 -1.9,3.6 -5.9,3.6c-3.1,0 -6,-0.5 -9.3,-1.6l-1.4,9.2l0.5,0.1l1.9,0.4c0.6,0.1 1.5,0.2 2.7,0.3c2.5,0.2 4.4,0.3 5.7,0.3c10.9,0 16,-4.2 16,-13.2c0,-5.4 -2.1,-8.6 -7.3,-11c-4.3,-2 -4.8,-2.5 -4.8,-4.3c0,-2.1 1.7,-3.2 5.1,-3.2c2,0 4.8,0.2 7.4,0.6l1.5,-9.2c-2.7,-0.4 -6.8,-0.8 -9.1,-0.8c-11.8,-0.1 -15.8,6 -15.7,13.3l0,0z" class="st1"/>
   <path fill="#ffffff" clip-rule="evenodd" fill-rule="evenodd" id="svg_29" d="m398.255699,285.14019l-9.8,0l0.5,-3.9c-2.9,3.1 -5.8,4.4 -9.6,4.4c-7.5,0 -12.5,-6.6 -12.5,-16.5c0,-13.2 7.7,-24.3 16.9,-24.3c4,0 7.1,1.7 9.9,5.4l2.3,-13.9l10.2,0l-7.9,48.8l0,0zm-15.3,-9.4c4.8,0 8.2,-5.5 8.2,-13.4c0,-5 -1.9,-7.8 -5.5,-7.8c-4.7,0 -8.1,5.5 -8.1,13.3c0.1,5.3 1.9,7.9 5.4,7.9l0,0z" class="st1"/>
   <path fill="#ffffff" clip-rule="evenodd" fill-rule="evenodd" id="svg_30" d="m257.555699,284.24019c-3.6,1.1 -7,1.6 -10.6,1.6c-11.6,0 -17.6,-6.1 -17.6,-17.8c0,-13.6 7.7,-23.7 18.1,-23.7c8.5,0 14,5.6 14,14.4c0,2.9 -0.4,5.8 -1.3,9.8l-20.6,0c-0.1,0.6 -0.1,0.9 -0.1,1.2c0,4.6 3.1,7 9.1,7c3.7,0 7.1,-0.8 10.8,-2.5l-1.8,10l0,0zm-5.8,-23.6c0.1,-0.8 0.1,-1.5 0.1,-2c0,-3.2 -1.8,-5.1 -4.9,-5.1c-3.3,0 -5.7,2.5 -6.6,7.1l11.4,0l0,0z" class="st1"/>
   <polygon fill="#ffffff" clip-rule="evenodd" fill-rule="evenodd" id="svg_31" points="146.6556854248047,285.1401824951172 136.2556915283203,285.1401824951172 142.2556915283203,247.6401824951172 128.95570373535156,285.1401824951172 121.85569763183594,285.1401824951172 121.05569458007812,247.8401641845703 114.75569152832031,285.1401824951172 105.05569458007812,285.1401824951172 113.15570068359375,236.34017944335938 128.05569458007812,236.34017944335938 128.5557098388672,266.54017639160156 138.5557098388672,236.34017944335938 154.6556854248047,236.34017944335938 146.6556854248047,285.1401824951172 " class="st1"/>
   <path fill="#ffffff" clip-rule="evenodd" fill-rule="evenodd" id="svg_32" d="m172.255699,267.44019c-1.1,-0.1 -1.6,-0.2 -2.3,-0.2c-5.9,0 -8.9,2 -8.9,6c0,2.5 1.5,4 3.7,4c4.2,0.1 7.3,-3.9 7.5,-9.8l0,0zm7.5,17.7l-8.6,0l0.2,-4.1c-2.6,3.3 -6.1,4.8 -10.9,4.8c-5.6,0 -9.5,-4.4 -9.5,-10.8c0,-9.7 6.7,-15.3 18.2,-15.3c1.2,0 2.7,0.1 4.2,0.3c0.3,-1.3 0.4,-1.9 0.4,-2.6c0,-2.6 -1.8,-3.6 -6.7,-3.6c-3,0 -6.3,0.4 -8.6,1.1l-1.4,0.4l-0.9,0.3l1.4,-8.9c5.2,-1.5 8.6,-2.1 12.4,-2.1c8.9,0 13.6,4 13.6,11.6c0,2 -0.2,3.4 -0.8,7.9l-2.2,14.1l-0.4,2.5l-0.3,2l-0.2,1.4l0.1,1l0,0z" class="st1"/>
   <path fill="#ffffff" clip-rule="evenodd" fill-rule="evenodd" id="svg_33" d="m335.755699,267.44019c-1.1,-0.1 -1.6,-0.2 -2.3,-0.2c-5.9,0 -8.9,2 -8.9,6c0,2.5 1.5,4 3.7,4c4.3,0.1 7.3,-3.9 7.5,-9.8l0,0zm7.6,17.7l-8.6,0l0.2,-4.1c-2.6,3.3 -6.1,4.8 -10.9,4.8c-5.6,0 -9.5,-4.4 -9.5,-10.8c0,-9.7 6.7,-15.3 18.2,-15.3c1.2,0 2.7,0.1 4.2,0.3c0.3,-1.3 0.4,-1.9 0.4,-2.6c0,-2.6 -1.8,-3.6 -6.7,-3.6c-3,0 -6.3,0.4 -8.6,1.1l-1.4,0.4l-0.9,0.3l1.4,-8.9c5.2,-1.5 8.6,-2.1 12.4,-2.1c8.9,0 13.6,4 13.6,11.6c0,2 -0.2,3.4 -0.8,7.9l-2.2,14.1l-0.4,2.5l-0.3,2l-0.2,1.4l0.1,1l0,0z" class="st1"/>
   <path fill="#ffffff" clip-rule="evenodd" fill-rule="evenodd" id="svg_34" d="m371.155699,245.04019c-0.3,-0.1 -0.7,-0.1 -1,-0.1c-3.4,0 -5.3,1.8 -8.5,6.4l0.9,-6l-9.4,0l-6.3,39.7l10.4,0c3.7,-24.3 4.7,-28.5 9.7,-28.5c0.3,0 0.3,0 0.7,0c0.9,-4.8 2.2,-8.3 3.9,-11.5l-0.4,0l0,0z" class="st1"/>
  </g>
 </g>
</svg>