<svg id="Layer_1" data-name="Layer 1" xmlns="http://www.w3.org/2000/svg" xmlns:xlink="http://www.w3.org/1999/xlink" viewBox="0 0 803.07 56.5"><defs><style>.cls-1{fill:#203a70;}.cls-1,.cls-2,.cls-3,.cls-4,.cls-5,.cls-6,.cls-7{fill-rule:evenodd;}.cls-2{fill:#fcb130;}.cls-3{fill:#ec2030;}.cls-12,.cls-4{fill:#fff;}.cls-5{fill:#e0dfe0;}.cls-6{fill:#015481;}.cls-7{fill:#f1a71f;}.cls-8{fill:#f7941d;}.cls-9{fill:#1b75bc;}.cls-10{fill:#4c2770;}.cls-11{fill:#e7630d;}.cls-13{fill:#58585a;}.cls-14{fill:#f26232;}.cls-15{fill:#3a3a3c;}.cls-16{fill:#6d6e71;}.cls-17{fill:url(#linear-gradient);}</style><linearGradient id="linear-gradient" x1="435.44" y1="55.98" x2="491.83" y2="-0.42" gradientUnits="userSpaceOnUse"><stop offset="0" stop-color="#ef4030"/><stop offset="1" stop-color="#f68933"/></linearGradient></defs><title>iconBankArabic</title><path id="svg_2" data-name="svg 2" class="cls-1" d="M803.3,0H722.94c-1.57,0-2.55.24-3.08.74a4.46,4.46,0,0,0-.69,2.87V51.82c0,2.46,1.27,3.73,3.77,3.73H803.3c2.61,0,3.92-1.27,3.92-3.73V3.6C807.22,1.17,805.91,0,803.3,0Z" transform="translate(-4.15 0.36)"/><g id="svg_36" data-name="svg 36"><path id="svg_13" data-name="svg 13" class="cls-2" d="M763.2,40.05a16.5,16.5,0,1,0,11-28.81,16.29,16.29,0,0,0-11,4.28,16.63,16.63,0,0,0-1,23.5h0A6.9,6.9,0,0,0,763.2,40.05Z" transform="translate(-4.15 0.36)"/><path id="svg_14" data-name="svg 14" class="cls-2" d="M788.49,37a.52.52,0,0,1,.59-.46h0a.55.55,0,0,1,.47.46.54.54,0,0,1-.46.61.53.53,0,0,1-.61-.46A.38.38,0,0,1,788.49,37Zm.52.4a.43.43,0,0,0,.35-.48.42.42,0,0,0-.35-.35.41.41,0,0,0-.4.42h0a.38.38,0,0,0,.37.41h0Zm-.07-.17h-.14v-.47h.31a.24.24,0,0,1,0,.12A.16.16,0,0,1,789,37l.09.21H789l-.07-.19h-.09v0H789v-.1h-.12v.4Z" transform="translate(-4.15 0.36)"/><path id="svg_15" data-name="svg 15" class="cls-3" d="M768.51,26c-.07-.6-.16-1.19-.28-1.75H758.16a13.47,13.47,0,0,1,.48-1.76h9.16a17.66,17.66,0,0,0-.69-1.75h-7.72a17.59,17.59,0,0,1,1-1.76h5.83a15.52,15.52,0,0,0-1.26-1.75h-3.32a17.85,17.85,0,0,1,1.66-1.71,16.54,16.54,0,1,0,0,24.52h0a19.74,19.74,0,0,0,1.66-1.76h-3.32a16.51,16.51,0,0,1-1.25-1.76h5.83a19.63,19.63,0,0,0,.94-1.75h-7.72c-.25-.57-.5-1.16-.7-1.76h9.11a17.39,17.39,0,0,0,.48-1.75,15,15,0,0,0,.28-1.76c0-.56.09-1.15.09-1.75a16.51,16.51,0,0,0-.09-1.72Z" transform="translate(-4.15 0.36)"/><path id="svg_16" data-name="svg 16" class="cls-4" d="M788.49,31.62a.54.54,0,0,1,.53-.55h0a.54.54,0,0,1,.55.53h0a.55.55,0,0,1-.53.55h0a.52.52,0,0,1-.54-.5v0ZM789,32a.41.41,0,0,0,.39-.41h0a.41.41,0,0,0-.39-.41h0a.42.42,0,0,0-.4.41A.38.38,0,0,0,789,32h0Zm-.07-.17h-.14v-.46h.31a.24.24,0,0,1,0,.12.16.16,0,0,1-.09.12l.09.2H789l-.07-.19h-.09v-.08H789v-.11c0-.06,0,0-.07,0h0v.38Z" transform="translate(-4.15 0.36)"/><path id="svg_17" data-name="svg 17" class="cls-1" d="M757.61,32.55a4.77,4.77,0,0,1-1.35.22,1.3,1.3,0,0,1-1.37-1.25h0a.89.89,0,0,1,0-.23,2.56,2.56,0,0,1,.05-.62L755,30l.09-.54.77-4.66h1.72l-.21,1h1.07l-.26,1.76h-1.06l-.36,2.76a1.31,1.31,0,0,0,0,.28c0,.34.19.5.6.5A2.08,2.08,0,0,0,758,31Z" transform="translate(-4.15 0.36)"/><path id="svg_18" data-name="svg 18" class="cls-1" d="M763.11,32.55a6.27,6.27,0,0,1-1.82.27,2.75,2.75,0,0,1-3-2.47,2,2,0,0,1,0-.59c0-2.34,1.32-4.08,3.11-4.08a2.3,2.3,0,0,1,2.4,2.18v.25a8.69,8.69,0,0,1-.22,1.69H760a.67.67,0,0,0,0,.2c0,.79.53,1.21,1.56,1.21a4.3,4.3,0,0,0,1.86-.43Zm-1.05-4.06v-.35a.8.8,0,0,0-.68-.87h-.17c-.56,0-1,.43-1.13,1.22Z" transform="translate(-4.15 0.36)"/><polygon id="svg_19" data-name="svg 19" class="cls-1" points="739.83 32.99 738.05 32.99 739.06 26.54 736.78 32.99 735.57 32.99 735.42 26.58 734.34 32.99 732.61 32.99 734.01 24.6 736.57 24.6 736.64 29.79 738.37 24.6 741.19 24.6 739.83 32.99"/><path id="svg_20" data-name="svg 20" class="cls-1" d="M748.27,29.61h-.35c-1,0-1.53.4-1.53,1a.62.62,0,0,0,.54.69h.1c.86,0,1.2-.69,1.24-1.68Zm1.41,3h-1.55v-.7a2.1,2.1,0,0,1-1.87.82,1.68,1.68,0,0,1-1.46-1.83,2.5,2.5,0,0,1,.14-.9c.27-1.05,1.34-1.72,3-1.73h.79a2.34,2.34,0,0,0,.07-.45c0-.44-.37-.6-1.2-.6a5.29,5.29,0,0,0-1.48.21l-.27.12h-.1L746,26a6.68,6.68,0,0,1,2.08-.36c1.53,0,2.34.69,2.34,2a7.71,7.71,0,0,1-.09,1.36l-.52,2.43-.07.43v.75Z" transform="translate(-4.15 0.36)"/><path id="svg_21" data-name="svg 21" class="cls-1" d="M771.8,25.88a3.58,3.58,0,0,1,1.6.44l.29-1.82-.43-.17-.74-.19a3.55,3.55,0,0,0-.79-.09,3.33,3.33,0,0,0-1.94.35,3.82,3.82,0,0,0-1.07.89l-.21-.07-1.86,1.33.09-.74H764.8l-1,6.81h1.79l.65-3.68s.26-.5.38-.66a1,1,0,0,1,1-.43h.12a9.32,9.32,0,0,0-.09,1.29c0,2.24,1.26,3.63,3.19,3.63a6.11,6.11,0,0,0,1.58-.24l.31-1.91a3.54,3.54,0,0,1-1.52.43c-1,0-1.66-.77-1.66-2,0-1.84.91-3.13,2.25-3.13Z" transform="translate(-4.15 0.36)"/><path id="svg_22" data-name="svg 22" class="cls-1" d="M786.8,24.24l-.39,2.39a1.89,1.89,0,0,0-1.64-1,2.66,2.66,0,0,0-2.34,1.55h0l-1.09-.63.08-.74h-1.89l-1.08,6.83h1.79L780.8,29s.47-.52.57-.67a1,1,0,0,1,.79-.43,5.67,5.67,0,0,0-.33,2c0,1.7.88,2.83,2.19,2.83a2.11,2.11,0,0,0,1.65-.75l-.09.67h1.69l1.36-8.4H786.8ZM784.57,31c-.61,0-.91-.44-.91-1.34,0-1.34.56-2.28,1.39-2.28.62,0,.94.46.94,1.34C786,30.06,785.41,31,784.57,31Z" transform="translate(-4.15 0.36)"/><path id="svg_23" data-name="svg 23" class="cls-1" d="M776.39,29.61H776c-1,0-1.53.4-1.53,1a.62.62,0,0,0,.54.69h.1c.87,0,1.22-.69,1.24-1.68Zm1.41,3h-1.55v-.7a2.1,2.1,0,0,1-1.87.82,1.73,1.73,0,0,1-1.64-1.82h0c0-1.62,1.23-2.63,3.15-2.63h.79a2.13,2.13,0,0,0,.07-.44c0-.45-.36-.61-1.2-.61a5.29,5.29,0,0,0-1.48.21l-.24.07-.09.07L774,26a6.68,6.68,0,0,1,2.08-.36c1.53,0,2.34.69,2.34,2a7.71,7.71,0,0,1-.09,1.36L778,31.42l-.07.43v.77Z" transform="translate(-4.15 0.36)"/><path id="svg_24" data-name="svg 24" class="cls-1" d="M753.39,27.27a10.07,10.07,0,0,1,1.34.1l.26-1.58a10.8,10.8,0,0,0-1.6-.14c-2,0-2.65,1.07-2.65,2.34a2,2,0,0,0,1.35,1.88c.72.34.84.41.84.72s-.36.67-1.07.67a4.81,4.81,0,0,1-1.6-.28l-.2,1.57h0l.33.07a1.47,1.47,0,0,1,.46.07c.43,0,.78.06,1,.06,2,0,2.8-.77,2.8-2.27a2,2,0,0,0-1.29-1.93c-.74-.34-.84-.39-.83-.7s.33-.6.86-.62Z" transform="translate(-4.15 0.36)"/><path id="svg_25" data-name="svg 25" class="cls-4" d="M774.08,24l-.28,1.81a3.35,3.35,0,0,0-1.6-.45c-1.32,0-2.27,1.29-2.27,3.15,0,1.27.64,2,1.67,2a3.33,3.33,0,0,0,1.51-.43L772.8,32a6.11,6.11,0,0,1-1.58.24c-1.93,0-3.11-1.39-3.11-3.63,0-3,1.65-5.09,4-5.09a3.55,3.55,0,0,1,.79.09l.74.19a3.66,3.66,0,0,1,.43.15Z" transform="translate(-4.15 0.36)"/><path id="svg_26" data-name="svg 26" class="cls-4" d="M768.34,25.22h-.17c-.59,0-.92.31-1.47,1.11l.16-1h-1.62l-1.08,6.83H766c.63-4.18.81-4.9,1.67-4.9h.18a6.47,6.47,0,0,1,.67-2Z" transform="translate(-4.15 0.36)"/><path id="svg_27" data-name="svg 27" class="cls-4" d="M758.05,32a3.81,3.81,0,0,1-1.29.23A1.31,1.31,0,0,1,755.34,31a.71.71,0,0,1,0-.29,3.21,3.21,0,0,1,0-.62l.11-.67.08-.53.78-4.66h1.77l-.21,1h.93L758.55,27h-.91l-.46,2.85a1.31,1.31,0,0,0,0,.28c0,.34.19.5.61.5a1.33,1.33,0,0,0,.48-.07L758,32Z" transform="translate(-4.15 0.36)"/><path id="svg_28" data-name="svg 28" class="cls-4" d="M751.21,27.44a2,2,0,0,0,1.36,1.91c.72.34.82.45.82.76s-.32.62-1,.62a4.81,4.81,0,0,1-1.6-.28L750.55,32h.08l.33.07h.47c.42,0,.75,0,1,0,1.87,0,2.75-.72,2.75-2.27A1.87,1.87,0,0,0,753.92,28c-.74-.34-.82-.43-.82-.74s.29-.55.87-.55a9.2,9.2,0,0,1,1.28.1l.25-1.58a11.74,11.74,0,0,0-1.56-.14c-2,0-2.72,1-2.7,2.29Z" transform="translate(-4.15 0.36)"/><path id="svg_29" data-name="svg 29" class="cls-4" d="M787.8,32.12h-1.68l.08-.67a2.11,2.11,0,0,1-1.65.75c-1.29,0-2.15-1.13-2.15-2.83,0-2.27,1.33-4.18,2.91-4.18a2,2,0,0,1,1.7.93l.4-2.39h1.75Zm-2.68-1.57c.83,0,1.41-.94,1.41-2.3,0-.86-.33-1.34-.94-1.34-.81,0-1.4.94-1.4,2.28C784.19,30.1,784.52,30.55,785.12,30.55Z" transform="translate(-4.15 0.36)"/><path id="svg_30" data-name="svg 30" class="cls-4" d="M763.51,32a6,6,0,0,1-1.83.28c-2,0-3-1.05-3-3.06,0-2.34,1.32-4.08,3.11-4.08a2.29,2.29,0,0,1,2.39,2.18v.27a7.31,7.31,0,0,1-.23,1.68h-3.54a.74.74,0,0,0,0,.21c0,.79.54,1.2,1.57,1.2a4.25,4.25,0,0,0,1.85-.43l-.3,1.72Zm-1-4.06V27.6a.79.79,0,0,0-.67-.88h-.17c-.57,0-1,.43-1.13,1.22Z" transform="translate(-4.15 0.36)"/><polygon id="svg_31" data-name="svg 31" class="cls-4" points="740.27 32.48 738.49 32.48 739.52 26.03 737.24 32.48 736.01 32.48 735.88 26.06 734.8 32.48 733.13 32.48 734.51 24.08 737.07 24.08 737.17 29.28 738.88 24.08 741.65 24.08 740.27 32.48"/><path id="svg_32" data-name="svg 32" class="cls-4" d="M748.8,29.07h-.4c-1,0-1.53.34-1.53,1a.62.62,0,0,0,.54.69h.1c.72,0,1.25-.67,1.29-1.69Zm1.29,3h-1.48v-.71a2.19,2.19,0,0,1-1.87.83,1.68,1.68,0,0,1-1.65-1.71h0a.38.38,0,0,1,0-.15c0-1.67,1.15-2.63,3.13-2.63a5.81,5.81,0,0,1,.72.05,2.34,2.34,0,0,0,.07-.45c0-.44-.31-.61-1.15-.61a5.27,5.27,0,0,0-1.48.18l-.24.07H746l.24-1.53a7.67,7.67,0,0,1,2.13-.36c1.53,0,2.34.69,2.34,2a12.28,12.28,0,0,1-.14,1.36l-.38,2.42-.07.43-.05.35V32Z" transform="translate(-4.15 0.36)"/><path id="svg_33" data-name="svg 33" class="cls-4" d="M777,29.07h-.39c-1,0-1.53.34-1.53,1a.62.62,0,0,0,.54.69h.09C776.4,30.76,776.92,30.09,777,29.07Zm1.31,3H776.8v-.71a2.22,2.22,0,0,1-1.88.83,1.67,1.67,0,0,1-1.64-1.7v0a.33.33,0,0,1,0-.14c0-1.67,1.15-2.63,3.13-2.63a5.81,5.81,0,0,1,.72.05,2.34,2.34,0,0,0,.07-.45c0-.44-.31-.61-1.15-.61a5.27,5.27,0,0,0-1.48.18l-.24.07h-.16l.24-1.53a7.74,7.74,0,0,1,2.14-.36c1.53,0,2.33.69,2.33,2a11.76,11.76,0,0,1-.09,1.45l-.42,2.5-.07.43,0,.35v.29Z" transform="translate(-4.15 0.36)"/><path id="svg_34" data-name="svg 34" class="cls-4" d="M783,25.22h-.17c-.59,0-.91.31-1.46,1.11l.15-1H780l-1.09,6.83h1.79c.64-4.18.81-4.9,1.67-4.9h.12a6.47,6.47,0,0,1,.67-2Z" transform="translate(-4.15 0.36)"/></g><path class="cls-5" d="M695.26.15H615.11A4.51,4.51,0,0,0,612,.89a4.51,4.51,0,0,0-.68,2.86V51.83c0,2.45,1.27,3.72,3.75,3.72h80.15c2.61,0,3.91-1.27,3.91-3.72V3.74C699.17,1.32,697.87.15,695.26.15Z" transform="translate(-4.15 0.36)"/><path class="cls-6" d="M615.11.15A4.51,4.51,0,0,0,612,.89a4.51,4.51,0,0,0-.68,2.86V13h87.81V3.75c0-2.41-1.3-3.58-3.91-3.58H615.11Z" transform="translate(-4.15 0.36)"/><path class="cls-7" d="M611.36,51.83c0,2.45,1.27,3.72,3.75,3.72h80.15c2.61,0,3.91-1.27,3.91-3.72V42.55H611.36Z" transform="translate(-4.15 0.36)"/><path class="cls-6" d="M641.65,20.41a1.75,1.75,0,0,1-.24,1l-5.82,10.14-.36-12.35h-9.29l3.12,1.49a2.6,2.6,0,0,1,1.35,2.23L631.27,36h4.53l11-16.81h-5.58a1.7,1.7,0,0,1,.52,1.22Z" transform="translate(-4.15 0.36)"/><path class="cls-6" d="M679.24,19.69l.36-.5h-5.68c.21.21.28.29.28.36-.07.26-.21.43-.28.64l-8.26,15.07c-.21.28-.4.5-.64.77h4.78l-.24-.49a6.72,6.72,0,0,1,.74-2.35l1-1.86h4.82c.2,1.56.32,2.87.39,3.83l-.39.89h5.81l-.86-1.27-1.73-15.09ZM675.8,29h-3.4l3-5.68Z" transform="translate(-4.15 0.36)"/><path class="cls-6" d="M661.44,18.32a7.59,7.59,0,0,0-4.64,1.49,3.72,3.72,0,0,0-2.23,3.33,5.25,5.25,0,0,0,1.59,3.94l3.23,2.23c1.16.82,1.73,1.56,1.73,2.23a2,2,0,0,1-.86,1.63,3.2,3.2,0,0,1-2,.63c-1.17,0-3.16-.82-5.92-2.35v3.1a12.21,12.21,0,0,0,6.28,2,7.38,7.38,0,0,0,5-1.74,4.75,4.75,0,0,0,2.18-3.87,4.7,4.7,0,0,0-1.74-3.45L661,25.26c-1-.82-1.6-1.56-1.6-2.12,0-1.31.77-2,2.34-2,1.06,0,2.62.6,4.71,1.85l.64-3.22a11.27,11.27,0,0,0-5.61-1.49Z" transform="translate(-4.15 0.36)"/><path class="cls-6" d="M649.09,36c-.07-.71-.21-1.34-.28-2L653,20.38l1-1.24H648c.07.29.13.71.2,1a6.73,6.73,0,0,1-.07,1l-4.21,13.48L643,36Z" transform="translate(-4.15 0.36)"/><path class="cls-5" d="M587.45.75H507.3a4.56,4.56,0,0,0-3.07.73,4.46,4.46,0,0,0-.69,2.87V52.42c0,2.46,1.27,3.72,3.76,3.72h80.15c2.6,0,3.91-1.26,3.91-3.72V4.33C591.36,1.91,590.05.75,587.45.75Z" transform="translate(-4.15 0.36)"/><path class="cls-8" d="M526.8,17.55h-.5a1.2,1.2,0,0,1-.95-.58l-.57-1-.35-.54c-1.45,1.29-2.71,1.94-3.78,1.94-.49,0-.8-.16-.93-.49a3.52,3.52,0,0,1-.09-1.12c0-.48.09-.72.26-.72a.28.28,0,0,1,.21.14,1.07,1.07,0,0,0,.15.22.67.67,0,0,0,.62.31,3.86,3.86,0,0,0,1.75-.48,4.32,4.32,0,0,0,1.44-1.11c-.26-.57-.68-1.57-1.26-2.9.08-.41.12-.63.12-.67.07-.32.19-.5.35-.54.17.25.68,1.37,1.53,3.35q1.05,2.46,1.59,2.46h.4Z" transform="translate(-4.15 0.36)"/><path class="cls-8" d="M531.92,17.55h-.47a2,2,0,0,1-1.55-.47l-.51-.61c-.49.72-1.46,1.08-2.9,1.08V15.82a3.64,3.64,0,0,0,2.43-.54,3.46,3.46,0,0,0,.28-1,10.08,10.08,0,0,1,.24-1.09.52.52,0,0,1,.34-.29l.2.15a1.32,1.32,0,0,1,.06.39v1.38a2.14,2.14,0,0,0,1.93.95Zm-1.78-7.27-.71,1.38-1.87-1.06.74-1.41Z" transform="translate(-4.15 0.36)"/><path class="cls-8" d="M540.67,13.83a3,3,0,0,1-.36,1.16c-.06.13-.49.34-1.29.62l-1.27.44-1.59.53-1.61.6a8.65,8.65,0,0,1-1.67.4h-1.23V15.81h1.15a1.48,1.48,0,0,0,1-.35,2.52,2.52,0,0,1-.86-1.58,2.68,2.68,0,0,1,.29-1,5.28,5.28,0,0,1,1.77-2.3,1.8,1.8,0,0,1,.94-.4,3.49,3.49,0,0,1,2.32,1c.33.3.5.49.5.57a.61.61,0,0,1-.21.4.55.55,0,0,1-.39.2l-.64-.32a1.9,1.9,0,0,0-2.34.17,2.88,2.88,0,0,0-1,1.05,1.72,1.72,0,0,0,1.18,1,4.11,4.11,0,0,0,1.55.3,21.79,21.79,0,0,0,3.71-1.14A.86.86,0,0,1,540.67,13.83Z" transform="translate(-4.15 0.36)"/><path class="cls-8" d="M556,22.89a1.59,1.59,0,0,1-.15.29,16.79,16.79,0,0,1-2.6,1.57,7.23,7.23,0,0,1-3,.65q-5.58,0-5.58-5.71a9.06,9.06,0,0,1,.61-3A7.87,7.87,0,0,1,546.59,14a.44.44,0,0,0-.35-.15h-.31c-.16,0-.24-.1-.24-.29a2.4,2.4,0,0,1,.59-1.81,3.3,3.3,0,0,1,2.15-.46,9.21,9.21,0,0,1,1.94.3.43.43,0,0,1,.11.12V12a3.73,3.73,0,0,1-.15.81,2.24,2.24,0,0,1-.26.54,1.34,1.34,0,0,1-.54.22,8.49,8.49,0,0,0-1,.36,3.24,3.24,0,0,0,2.08,1.62,25.73,25.73,0,0,0,3.62.14V17.5H552.4a10.53,10.53,0,0,1-1.59-.09,3.58,3.58,0,0,1-2.52-1.8l-.49-1.06a6.35,6.35,0,0,0-2.33,4.74,3.75,3.75,0,0,0,1.81,3.38,7.15,7.15,0,0,0,3.84.95,14,14,0,0,0,3.29-.33,9,9,0,0,0,.86-.34,4.22,4.22,0,0,1,.7-.27A.65.65,0,0,1,556,22.89Z" transform="translate(-4.15 0.36)"/><path class="cls-8" d="M556.09,6.13l-.69,1.42-1.87-1.06.73-1.42Zm3.78,7.73a3.32,3.32,0,0,1-.59,2.16,4.53,4.53,0,0,1-2.11,1.13,8.29,8.29,0,0,1-2.42.4h-1.2V15.82a20.74,20.74,0,0,0,2.49-.1,6.59,6.59,0,0,0,2.35-.78c.31-.17.46-.31.46-.4a2.15,2.15,0,0,0-.59-1.48H558a3.36,3.36,0,0,1-1.83,1.19l-.32.06c-.41,0-.62-.44-.62-1.3a.74.74,0,0,1,0-.21c.33-1.84,1-3,2-3.4.4,0,.94.57,1.62,1.69a5.75,5.75,0,0,1,1,2.31Zm-2.15-2a1.29,1.29,0,0,0-.38-.39,1.14,1.14,0,0,0-.47-.28c-.14,0-.29.13-.42.41a1.35,1.35,0,0,0-.18.61.54.54,0,0,0,0,.18,1.14,1.14,0,0,0,.32.07c.66,0,1-.17,1.16-.57Z" transform="translate(-4.15 0.36)"/><path class="cls-8" d="M568.19,17.55h-.5a1.2,1.2,0,0,1-1-.58l-.57-1-.35-.54c-1.45,1.29-2.71,1.94-3.78,1.94-.5,0-.8-.16-.93-.49a3.52,3.52,0,0,1-.09-1.12c0-.48.09-.72.26-.72a.28.28,0,0,1,.21.14,1.07,1.07,0,0,0,.15.22.67.67,0,0,0,.62.31,3.86,3.86,0,0,0,1.75-.48,4.32,4.32,0,0,0,1.44-1.11c-.27-.65-.69-1.63-1.25-2.94.08-.41.12-.63.12-.67.07-.32.19-.5.34-.54.57,1.09,1.08,2.21,1.54,3.35q1,2.46,1.59,2.46h.4Z" transform="translate(-4.15 0.36)"/><path class="cls-8" d="M570.8,8.55v.09c-.11.44-.19.72-.24.86a1.44,1.44,0,0,1-.47.71,38.4,38.4,0,0,1,.57,4.27V15a7.55,7.55,0,0,0,.07,1.06,2.2,2.2,0,0,1-.57,1.15,3.2,3.2,0,0,1-1.77.37h-.34V15.82a4.21,4.21,0,0,0,1.69-.17V14.27a2.91,2.91,0,0,0-.1-.72q-.18-1.2-.39-3.63l-.65-.69a1.12,1.12,0,0,1-.07-.48,7.57,7.57,0,0,1,.19-1.84,7.64,7.64,0,0,1,.57-1.1h.15c.14,0,.2.06.18.16a10.48,10.48,0,0,0-.18,1.37v.35c0,.14.27.33.73.41a1.28,1.28,0,0,1,.6.19A.57.57,0,0,1,570.8,8.55Z" transform="translate(-4.15 0.36)"/><path class="cls-8" d="M574.89,14.61a9.2,9.2,0,0,1-.49,3.08h-.08a.21.21,0,0,1-.2-.13V15.8a2.62,2.62,0,0,1,0-.56c0-.27-.11-.53-.18-.79-.44-2.07-.91-4.54-1.43-7.4.12-.42.19-.67.22-.76.12-.38.25-.6.37-.65a.5.5,0,0,1,.3.25c.17.79.29,1.43.38,1.93A14.24,14.24,0,0,0,574,9.41c0,.19.12.56.23,1.13A29.41,29.41,0,0,1,574.89,14.61Z" transform="translate(-4.15 0.36)"/><path class="cls-8" d="M525.23,38.9a2.15,2.15,0,0,1-.07.67.72.72,0,0,1-.31.54h-1.92c-.7,0-1.11.22-1.22.67a5.13,5.13,0,0,0-.13.66l.56,3.14c.18,1.05.31,2.1.39,3.16v1.59a7.61,7.61,0,0,1-.28,2.81.56.56,0,0,1-.2.11.56.56,0,0,1-.17-.09,11,11,0,0,1-.08-1.52,26.9,26.9,0,0,0-.35-4.1L521,44.32a10,10,0,0,1-.26-2.25,7.92,7.92,0,0,1,.59-2.84,1.1,1.1,0,0,1,.59-.59l.49-.31c0-.23-.32-.34-1-.34a.48.48,0,0,0-.36.16.85.85,0,0,1-.3.4c-.14,0-.22-.17-.22-.5q0-1.89,1.5-1.89a3.38,3.38,0,0,1,2.08,1,3.23,3.23,0,0,1,1.07,1.33C525.2,38.62,525.22,38.76,525.23,38.9Z" transform="translate(-4.15 0.36)"/><path class="cls-8" d="M540.11,43.6h-.42a1.47,1.47,0,0,1-1.46-1,7.67,7.67,0,0,1-.4-1.89,27.07,27.07,0,0,1-.33-3.59,9.1,9.1,0,0,1-2.22,4,11.1,11.1,0,0,1-3.73,2.63,14,14,0,0,1-1.93.29,26.26,26.26,0,0,1-2.8.15.34.34,0,0,1-.36-.23c0-.09.08-.18.23-.27a14.5,14.5,0,0,0,5.71-2.44,6.53,6.53,0,0,0-.63-2.57,6.84,6.84,0,0,0-1.44-2.23,1.54,1.54,0,0,1-.8.25,3,3,0,0,1-1.28-.35,1.81,1.81,0,0,1-1-.84,1.5,1.5,0,0,1,0-.3,7.37,7.37,0,0,1,.12-1.32c.1-.6.16-.92.18-1,.13-.45.32-.68.59-.68a.42.42,0,0,1,.21.06,10,10,0,0,1,3,3.31q.27.45.87,1.59a7.92,7.92,0,0,1,.85,3.57,5.88,5.88,0,0,0,1.1-.89,9.28,9.28,0,0,0,2.14-2.68,6.43,6.43,0,0,0,.82-2.48V33.2c0-.91,0-1.38.15-1.42s.19.08.3.22a.78.78,0,0,1,.16.36v.51c0,.47.07,1.4.22,2.78l.25,1.6c0,.22.17,1.22.41,3,.14,1,.5,1.56,1.06,1.56h.39Z" transform="translate(-4.15 0.36)"/><path class="cls-8" d="M541.47,36.24l-.67,1.41L539,36.55l.68-1.43Zm3.7,7.36h-.37a2,2,0,0,1-1.55-.47l-.52-.61c-.48.72-1.45,1.08-2.9,1.08V41.83a3.68,3.68,0,0,0,2.44-.54,3.45,3.45,0,0,0,.27-1c.14-.66.22-1,.25-1.09a.5.5,0,0,1,.33-.29l.21.15a1.32,1.32,0,0,1,.06.39v1.38a2.12,2.12,0,0,0,1.92,1ZM544,36.25l-.7,1.4-1.87-1.1.75-1.43Z" transform="translate(-4.15 0.36)"/><path class="cls-8" d="M554.69,40.27a8.15,8.15,0,0,1-.14,1.21,3.58,3.58,0,0,0-.14.54c-.07.16-.15.32-.23.47a1.82,1.82,0,0,1-1.59,1.13,1.37,1.37,0,0,1-.88-.39,5.48,5.48,0,0,1-2.37.32H547.6a4.73,4.73,0,0,1-.93-.11,5.1,5.1,0,0,1-1.78.18V41.85c1.62,0,2.52-.19,2.7-.56l.22-.51c.21-.71.42-1.06.63-1.06a.33.33,0,0,1,.25.15,1.41,1.41,0,0,1,0,.29.78.78,0,0,1-.05.34,6,6,0,0,0-.21,1.33h1.22a3.89,3.89,0,0,0,2.34-.61c.25-.87.47-1.3.66-1.3s.26.14.26.42a4.1,4.1,0,0,1-.06.49,2.63,2.63,0,0,0-.07.49.81.81,0,0,0,.09.37h.24a.88.88,0,0,0,.69-.3c.11-.38.21-.77.29-1.17a.28.28,0,0,1,.29-.26h0A.59.59,0,0,1,554.69,40.27Z" transform="translate(-4.15 0.36)"/><path class="cls-8" d="M565.59,33.63a2.78,2.78,0,0,1-.19.64,4.34,4.34,0,0,1-.28.62,1.54,1.54,0,0,1-.36.27v.24a12.68,12.68,0,0,1-1,4.29,4.43,4.43,0,0,1,.81,2.19,9.36,9.36,0,0,1-.17,1.06,1.64,1.64,0,0,1-.5.92,17.43,17.43,0,0,1-2.12.46,15.06,15.06,0,0,0-1.79.43c-.19,0-.3-.18-.34-.48a4.33,4.33,0,0,1,0-.72.25.25,0,0,1,0-.17,2,2,0,0,1,.54-.46,3.39,3.39,0,0,0,.56-.37,12.1,12.1,0,0,0,1.81-2.28,19.29,19.29,0,0,0-3.35-4.38,1.62,1.62,0,0,1-.85.25,3.41,3.41,0,0,1-1.34-.31,2.56,2.56,0,0,1-1.08-.84,3.53,3.53,0,0,1,0-.65,5.89,5.89,0,0,1,.26-2c.13-.4.35-.6.68-.6a.55.55,0,0,1,.24.07A13.71,13.71,0,0,1,560.51,35a35.71,35.71,0,0,1,2.77,3.82,12.13,12.13,0,0,0,.62-3.92,4.33,4.33,0,0,1-.69-.73,2.44,2.44,0,0,1,0-.54,5.38,5.38,0,0,1,.25-1.91,6.33,6.33,0,0,1,.52-1h.14a.24.24,0,0,1,.14.05,1.61,1.61,0,0,1,0,.31,2.62,2.62,0,0,1-.09.56,4.34,4.34,0,0,0-.06.88c0,.24.26.44.79.61l.49.08C565.51,33.23,565.59,33.38,565.59,33.63Zm-2.12,8.43c-.06-.15-.18-.44-.37-.85a4.26,4.26,0,0,1-.41.54c-.21.24-.32.4-.32.47v.06a.71.71,0,0,0,.29,0C563.2,42.31,563.47,42.24,563.47,42.06Z" transform="translate(-4.15 0.36)"/><path class="cls-8" d="M569.8,40.63a9.2,9.2,0,0,1-.49,3.08h-.08c-.08,0-.14-.05-.2-.14V41.81a2.62,2.62,0,0,1,0-.56,6.93,6.93,0,0,0-.17-.79c-.44-2.07-.92-4.53-1.43-7.4q.17-.63.21-.75c.13-.39.25-.61.37-.66a.5.5,0,0,1,.3.25c.17.8.3,1.44.38,1.93a14.26,14.26,0,0,0,.27,1.59c0,.19.12.57.23,1.13A29.53,29.53,0,0,1,569.8,40.63Z" transform="translate(-4.15 0.36)"/><path class="cls-9" d="M527.23,17.23h-.43a1.2,1.2,0,0,1-1-.58l-.57-1-.35-.54C523.43,16.4,522.17,17,521.1,17q-.75,0-.93-.48a3.52,3.52,0,0,1-.09-1.12c0-.48.09-.72.26-.72a.27.27,0,0,1,.21.13,1.14,1.14,0,0,0,.15.23.64.64,0,0,0,.62.3,4,4,0,0,0,1.75-.47,4.48,4.48,0,0,0,1.44-1.12l-1.25-2.94a5,5,0,0,1,.11-.66.73.73,0,0,1,.35-.54c.57,1.09,1.08,2.21,1.54,3.35q1,2.46,1.59,2.46h.4Z" transform="translate(-4.15 0.36)"/><path class="cls-9" d="M532.38,17.23h-.46a2,2,0,0,1-1.55-.46l-.52-.62c-.48.72-1.45,1.08-2.9,1.08V15.47a3.68,3.68,0,0,0,2.44-.54,4.35,4.35,0,0,0,.27-1c.14-.66.22-1,.25-1.09a.51.51,0,0,1,.34-.28,1,1,0,0,1,.2.15,1.32,1.32,0,0,1,.06.39v1.37a2.09,2.09,0,0,0,1.92,1ZM530.61,10l-.71,1.38L528,10.32l.77-1.45Z" transform="translate(-4.15 0.36)"/><path class="cls-9" d="M541.14,13.48a3.34,3.34,0,0,1-.36,1.16c-.06.13-.49.33-1.29.61l-1.25.45-1.59.53-1.61.59a7.39,7.39,0,0,1-1.67.4h-1.23V15.46h1.08a1.43,1.43,0,0,0,1-.35,2.53,2.53,0,0,1-.87-1.56,2.36,2.36,0,0,1,.29-1,5.15,5.15,0,0,1,1.77-2.3,1.9,1.9,0,0,1,.94-.41,3.49,3.49,0,0,1,2.32,1c.33.29.5.48.5.57a.65.65,0,0,1-.21.39.59.59,0,0,1-.4.21l-.64-.32a1.92,1.92,0,0,0-2.34.16,3,3,0,0,0-1,1.06,1.76,1.76,0,0,0,1.19,1,4.31,4.31,0,0,0,1.55.29A20.9,20.9,0,0,0,541,13.07.84.84,0,0,1,541.14,13.48Z" transform="translate(-4.15 0.36)"/><path class="cls-9" d="M556.46,22.55a1.51,1.51,0,0,1-.15.28,16,16,0,0,1-2.51,1.57,7.23,7.23,0,0,1-3,.65c-3.72,0-5.58-1.91-5.58-5.71a9.28,9.28,0,0,1,.6-2.95,8.08,8.08,0,0,1,1.32-2.68.46.46,0,0,0-.34-.16h-.31c-.16,0-.24-.09-.24-.28a2.39,2.39,0,0,1,.55-1.72,3.31,3.31,0,0,1,2.15-.47,9,9,0,0,1,1.93.31s.08,0,.12.12v.29a4.57,4.57,0,0,1-.16.82,1.54,1.54,0,0,1-.26.53,1.19,1.19,0,0,1-.53.23,5.66,5.66,0,0,0-1,.36,3.35,3.35,0,0,0,2.09,1.62,25.73,25.73,0,0,0,3.62.14v1.76h-1.83a9.36,9.36,0,0,1-1.59-.08,3.58,3.58,0,0,1-2.52-1.8l-.67-1.14A6.36,6.36,0,0,0,545.8,19a3.75,3.75,0,0,0,1.81,3.38,7.15,7.15,0,0,0,3.84.95A14.54,14.54,0,0,0,554.8,23a5.69,5.69,0,0,0,.86-.34,4.22,4.22,0,0,1,.7-.27C556.42,22.34,556.46,22.4,556.46,22.55Z" transform="translate(-4.15 0.36)"/><path class="cls-9" d="M556.56,5.78l-.69,1.42L554,6.14l.8-1.43Zm3.78,7.77a3.27,3.27,0,0,1-.6,2.16,4.5,4.5,0,0,1-2.1,1.13,8.32,8.32,0,0,1-2.42.43H554v-1.8a23,23,0,0,0,2.49-.1,6.59,6.59,0,0,0,2.35-.78c.31-.18.46-.31.46-.4a2.17,2.17,0,0,0-.59-1.49h-.26a3.36,3.36,0,0,1-1.83,1.19h-.31c-.41,0-.62-.43-.62-1.3v-.2c.33-1.84,1-3,2-3.41.41,0,.95.57,1.62,1.7a5.71,5.71,0,0,1,1,2.3Zm-2.15-2c0-.08-.15-.21-.38-.4a1.5,1.5,0,0,0-.47-.28q-.24,0-.42.42a1.35,1.35,0,0,0-.18.61.54.54,0,0,0,0,.18.87.87,0,0,0,.32.06C557.8,12.13,558.09,11.93,558.19,11.55Z" transform="translate(-4.15 0.36)"/><path class="cls-9" d="M568.66,17.23h-.5a1.2,1.2,0,0,1-1-.58l-.58-1-.34-.54A6.06,6.06,0,0,1,562.46,17q-.75,0-.93-.48a3.52,3.52,0,0,1-.09-1.12c0-.48.09-.72.26-.72a.27.27,0,0,1,.21.13l.14.23a.66.66,0,0,0,.63.3,4,4,0,0,0,1.75-.47,4.48,4.48,0,0,0,1.44-1.12l-1.25-2.94c.07-.4.11-.62.11-.66.08-.32.2-.5.35-.54.57,1.09,1.08,2.21,1.54,3.35.7,1.64,1.22,2.46,1.58,2.46h.41Z" transform="translate(-4.15 0.36)"/><path class="cls-9" d="M571.24,8.22v.09c-.12.43-.2.72-.25.86a1.42,1.42,0,0,1-.46.71,38.22,38.22,0,0,1,.57,4.26v.51a9.59,9.59,0,0,0,.06,1.07,2.05,2.05,0,0,1-.56,1.14,3.09,3.09,0,0,1-1.78.37h-.33V15.47a4.21,4.21,0,0,0,1.69-.17V13.92c0-.1,0-.34-.1-.72q-.18-1.2-.39-3.63l-.66-.7A1.24,1.24,0,0,1,569,8.4a6.76,6.76,0,0,1,.13-1.85,7.64,7.64,0,0,1,.57-1.1h.13c.14,0,.2,0,.18.16A10.78,10.78,0,0,0,569.8,7v.34c0,.13.27.33.73.42a1.15,1.15,0,0,1,.59.19A.4.4,0,0,1,571.24,8.22Z" transform="translate(-4.15 0.36)"/><path class="cls-9" d="M575.36,14.26a9.46,9.46,0,0,1-.49,3.08h-.07a.26.26,0,0,1-.21-.14c0-.4,0-.79,0-1.19a5.23,5.23,0,0,0,0-.56v-.56a7.1,7.1,0,0,0-.17-.8Q573.79,11,573,6.69c.11-.41.19-.66.21-.75.13-.39.26-.61.38-.66a.57.57,0,0,1,.29.26c.17.79.3,1.43.39,1.93a14.06,14.06,0,0,0,.26,1.58c0,.19.12.57.23,1.14A29.39,29.39,0,0,1,575.36,14.26Z" transform="translate(-4.15 0.36)"/><path class="cls-9" d="M525.8,38.55a2.1,2.1,0,0,1-.08.66.68.68,0,0,1-.3.54h-1.93c-.69,0-1.1.23-1.21.68a3,3,0,0,0-.13.66l.56,3.14q.27,1.56.39,3.15V49a7.67,7.67,0,0,1-.29,2.82.42.42,0,0,1-.2.1.38.38,0,0,1-.17-.08c0-.12-.05-.63-.07-1.53a26.67,26.67,0,0,0-.35-4.09l-.5-2.22a10,10,0,0,1-.26-2.25,8.19,8.19,0,0,1,.58-2.85,1.19,1.19,0,0,1,.6-.59l.48-.3c0-.23-.31-.34-1-.34a.58.58,0,0,0-.36.15.86.86,0,0,1-.35.38c-.15,0-.22-.17-.22-.5,0-1.27.5-1.9,1.5-1.9a3.44,3.44,0,0,1,2.08,1,3.23,3.23,0,0,1,1.07,1.33C525.7,38.27,525.75,38.41,525.8,38.55Z" transform="translate(-4.15 0.36)"/><path class="cls-9" d="M540.58,43.25h-.42a1.47,1.47,0,0,1-1.46-1,8.18,8.18,0,0,1-.41-1.89,25.47,25.47,0,0,1-.32-3.59,9.12,9.12,0,0,1-2.23,4A10.8,10.8,0,0,1,532,43.39a15.79,15.79,0,0,1-1.93.3,26.26,26.26,0,0,1-2.8.15.31.31,0,0,1-.36-.24c0-.08.07-.17.23-.26a14.41,14.41,0,0,0,5.7-2.45,6.56,6.56,0,0,0-.62-2.57,7.25,7.25,0,0,0-1.44-2.22,1.62,1.62,0,0,1-.8.24,3,3,0,0,1-1.2-.34,1.75,1.75,0,0,1-1-.83,1.5,1.5,0,0,1,0-.3,7.37,7.37,0,0,1,.12-1.32,5.67,5.67,0,0,1,.18-1c.12-.45.32-.67.59-.67a.42.42,0,0,1,.21.06,9.79,9.79,0,0,1,3,3.3c.19.31.48.84.86,1.6a7.77,7.77,0,0,1,.86,3.57,7.79,7.79,0,0,0,1.1-.89,9.47,9.47,0,0,0,2.08-2.71,6.42,6.42,0,0,0,.82-2.49V32.84c0-.9,0-1.37.15-1.42a.55.55,0,0,1,.29.23,1,1,0,0,1,.17.36v.5c0,.48.07,1.4.21,2.79l.26,1.6c0,.21.17,1.22.41,3,.14,1,.49,1.57,1.06,1.57h.39Z" transform="translate(-4.15 0.36)"/><path class="cls-9" d="M541.94,35.89l-.73,1.41-1.83-1.06.69-1.43Zm3.7,7.36h-.47a2,2,0,0,1-1.54-.47l-.52-.61c-.49.72-1.45,1.08-2.9,1.08V41.48a3.64,3.64,0,0,0,2.43-.54,3.17,3.17,0,0,0,.28-1,10.08,10.08,0,0,1,.24-1.09.58.58,0,0,1,.34-.29,1,1,0,0,1,.2.15,1,1,0,0,1,.07.39v1.38a2.14,2.14,0,0,0,1.93,1Zm-1.17-7.36-.67,1.41-1.86-1.06.74-1.43Z" transform="translate(-4.15 0.36)"/><path class="cls-9" d="M555.16,39.91a8.29,8.29,0,0,1-.14,1.22,3.58,3.58,0,0,0-.14.54c-.07.16-.15.31-.23.46a1.79,1.79,0,0,1-1.59,1.14,1.37,1.37,0,0,1-.88-.39,5.33,5.33,0,0,1-2.37.31h-1.75a4.71,4.71,0,0,1-.92-.1,5.41,5.41,0,0,1-1.79.18V41.55q2.43,0,2.7-.57l.23-.5c.21-.71.42-1.07.63-1.07a.31.31,0,0,1,.24.16,1.41,1.41,0,0,1,0,.29.63.63,0,0,1-.06.33,5.57,5.57,0,0,0-.2,1.34h1.22a3.89,3.89,0,0,0,2.34-.61c.25-.87.46-1.3.65-1.3s.27.14.27.42a4.1,4.1,0,0,1-.06.49,1.59,1.59,0,0,0-.07.48.78.78,0,0,0,.09.37h.24a.91.91,0,0,0,.69-.29c.11-.39.2-.78.28-1.18a.29.29,0,0,1,.31-.25A.4.4,0,0,1,555.16,39.91Z" transform="translate(-4.15 0.36)"/><path class="cls-9" d="M566.06,33.28a4.71,4.71,0,0,1-.19.64,4.34,4.34,0,0,1-.28.62,1.54,1.54,0,0,1-.36.27V35a12.73,12.73,0,0,1-1,4.3,4.46,4.46,0,0,1,.81,2.19c0,.36-.1.71-.17,1.06a1.72,1.72,0,0,1-.51.92,19.38,19.38,0,0,1-2.11.46,13.34,13.34,0,0,0-1.79.43c-.19,0-.31-.18-.34-.49a4.33,4.33,0,0,1,0-.72.25.25,0,0,1,0-.17,2,2,0,0,1,.54-.45,4.49,4.49,0,0,0,.57-.4A12.1,12.1,0,0,0,563,39.85a18.89,18.89,0,0,0-3.24-4.3,1.61,1.61,0,0,1-.85.24,3.45,3.45,0,0,1-1.35-.3,2.56,2.56,0,0,1-1.08-.84V34a6.16,6.16,0,0,1,.27-2c.13-.39.35-.59.68-.59a.53.53,0,0,1,.24.06,13.45,13.45,0,0,1,3.39,3.17,32.66,32.66,0,0,1,2.7,3.8,12,12,0,0,0,.61-3.93,3.91,3.91,0,0,1-.68-.73,2.48,2.48,0,0,1-.06-.54,5.33,5.33,0,0,1,.26-1.9,5.59,5.59,0,0,1,.52-1h.13a.22.22,0,0,1,.15.06,1.5,1.5,0,0,1,0,.3,2.62,2.62,0,0,1-.09.56,3.69,3.69,0,0,0-.07.88c0,.24.27.45.8.62l.48.08C566,32.88,566.06,33,566.06,33.28Zm-2.12,8.43c-.06-.15-.19-.44-.37-.86a3.65,3.65,0,0,1-.41.54c-.21.24-.32.4-.32.48h0a.72.72,0,0,0,.29.06C563.67,42,563.94,41.89,563.94,41.71Z" transform="translate(-4.15 0.36)"/><path class="cls-9" d="M570.27,40.27a9.48,9.48,0,0,1-.52,3.08h0a.22.22,0,0,1-.2-.14V41.46a2.62,2.62,0,0,1,0-.56,6.93,6.93,0,0,0-.17-.79c-.45-2.07-.92-4.54-1.44-7.4.12-.42.19-.67.22-.76.12-.38.25-.6.37-.65a.5.5,0,0,1,.3.25c.17.79.29,1.43.38,1.93a14.62,14.62,0,0,0,.26,1.59l.24,1.13A29.29,29.29,0,0,1,570.27,40.27Z" transform="translate(-4.15 0.36)"/><path class="cls-10" d="M7.49.83H47.16c-.08,1.24-.15,2.42-.24,3.6l-.63,8.73c-.25,3.35-.5,6.71-.74,10.06-.2,2.74-.39,5.48-.59,8.22l-.75,10.34-.6,8.45c-.12,1.67-.24,3.34-.35,5,0,.34-.14.48-.51.48H22.44a37.18,37.18,0,0,1-9.28-1,21.73,21.73,0,0,1-2.84-1,9.35,9.35,0,0,1-5.73-7.43A34.79,34.79,0,0,1,4.26,38c.2-3,.46-6.08.72-9.11.23-2.7.48-5.4.73-8.1.28-3.17.57-6.33.85-9.49.24-2.71.47-5.41.71-8.11C7.34,2.37,7.42,1.6,7.49.83Zm16,40.64h5.35a3.31,3.31,0,0,0,3.22-3c.1-1.27.21-2.55.3-3.83l1.2-16.55A2.8,2.8,0,0,0,31.07,15H20.2A3.29,3.29,0,0,0,17,17.83c-.11.85-.15,1.7-.21,2.55-.21,2.78-.4,5.56-.61,8.33-.24,3.24-.5,6.48-.71,9.72a2.79,2.79,0,0,0,2.57,3,2,2,0,0,0,.34,0Z" transform="translate(-4.15 0.36)"/><path class="cls-10" d="M100,35.66c0-1.14,0-2.21,0-3.28.22-3.65.49-7.3.74-11,.12-1.86.25-3.71.37-5.56v-.63h10.66A7.11,7.11,0,0,1,119,22.12a7.45,7.45,0,0,1-.06,1.06c-.23,2.62-.35,5.26-.55,7.89a26.94,26.94,0,0,1-.43,4.2,8.13,8.13,0,0,1-8,6.28h-2.68a5.72,5.72,0,0,1-4.4-1.55,10.38,10.38,0,0,1-6.67,1.79A8.44,8.44,0,0,1,90,38.88l-.48.45a8.63,8.63,0,0,1-7,2.48c-1.43-.13-2.85-.38-4.34-.58,0,.73-.11,1.57-.16,2.42-.08,1.31-.14,2.63-.23,4a3.18,3.18,0,0,1-2.89,2.92c-1.27.12-2.55,0-3.94,0q1.14-17.67,2.31-35.29c1.41-.07,2.81-.07,4.21,0a2.6,2.6,0,0,1,2.22,2.83c-.1,2.17-.28,4.34-.41,6.51-.12,1.83-.32,3.67-.28,5.5.06,3.1,2,5.07,5.15,5.41a7.5,7.5,0,0,0,3.73-.33c.25-.11.44-.19.36-.56a19,19,0,0,1-.14-5.16c.18-2.54.35-5.08.53-7.61q.24-3.3.45-6.63c1.42,0,2.8-.1,4.16,0A2.62,2.62,0,0,1,95.5,18c-.1,2.23-.27,4.45-.39,6.68-.11,1.94-.26,3.89-.26,5.84a5.18,5.18,0,0,0,1.56,3.93A4.72,4.72,0,0,0,100,35.66Zm9-.76h1.44a1.11,1.11,0,0,0,1.26-.94.81.81,0,0,0,0-.22c.25-3.58.49-7.15.73-10.73a1,1,0,0,0-.88-1.1h-3.85c-.36,0-.49.1-.5.47,0,.85-.09,1.7-.15,2.56-.2,3-.41,5.92-.6,8.89a1,1,0,0,0,.92,1.08H109Z" transform="translate(-4.15 0.36)"/><path class="cls-10" d="M70.88,15.24c-.1,1.67-.19,3.25-.3,4.82-.17,2.56-.34,5.11-.53,7.67-.17,2.29-.2,4.61-.58,6.88a8.07,8.07,0,0,1-8,6.61,29.27,29.27,0,0,1-4.39-.12,7,7,0,0,1-5.84-7.63c.23-2.54.34-5.08.54-7.62a31.9,31.9,0,0,1,.45-4.36,8.14,8.14,0,0,1,8-6.25Zm-7,6.66H59.51a1.06,1.06,0,0,0-1,1.07c-.24,3.49-.49,7-.73,10.49a1,1,0,0,0,.9,1.1H62a1,1,0,0,0,1-.92c.06-.33.07-.67.1-1q.21-3,.41-6.06C63.68,25.06,63.78,23.53,63.88,21.9Z" transform="translate(-4.15 0.36)"/><path class="cls-11" d="M117.72,44.11c-.08,1.07-.11,2.12-.23,3.16a5.4,5.4,0,0,1-.49,1.85,2.73,2.73,0,0,1-2.6,1.51H96.74c-.5,0-.7-.11-.65-.65.11-1.09.13-2.18.24-3.27a3.07,3.07,0,0,1,2.82-2.64h18.34Z" transform="translate(-4.15 0.36)"/><path class="cls-10" d="M93.3,13H91.52c-.12,0-.31-.29-.3-.43.06-1.15.15-2.3.24-3.45S91.24,7.79,90.22,8a.57.57,0,0,0-.37.4c-.11,1.4-.17,2.81-.28,4.22a.58.58,0,0,1-.34.42H87.48c.06-.89.12-1.72.17-2.54s.07-1.32.09-2-.36-.61-.79-.62-.77-.06-.79.55c-.06,1.33-.19,2.66-.26,4,0,.43-.16.62-.59.56h-.17c-1.39,0-1.4,0-1.3-1.37.1-1.58.23-3.15.32-4.73a.56.56,0,0,1,.58-.64A9.34,9.34,0,0,1,89,6.4c.15,0,.35-.05.53-.06a20.34,20.34,0,0,1,2.81-.13,1.36,1.36,0,0,1,1.34,1.38,1.11,1.11,0,0,1,0,.19C93.54,9.48,93.4,11.18,93.3,13Z" transform="translate(-4.15 0.36)"/><path class="cls-11" d="M73.58,6.24h4.69a2.42,2.42,0,0,1,2,2.5,15.1,15.1,0,0,1-.12,2.33,2.45,2.45,0,0,1-2.3,2H76.23a3,3,0,0,1-3-2.88v0C73.34,8.88,73.48,7.59,73.58,6.24Z" transform="translate(-4.15 0.36)"/><path class="cls-10" d="M86.28,43.7c-.12,1.56-.18,3.13-.4,4.66a2.78,2.78,0,0,1-2.74,2.27H81.81a2.44,2.44,0,0,1-2.46-2.42v-.07a16.65,16.65,0,0,1,.13-2,2.8,2.8,0,0,1,2.36-2.37A43.24,43.24,0,0,1,86.28,43.7Z" transform="translate(-4.15 0.36)"/><path class="cls-10" d="M94.24,43.67c-.11,1.52-.17,3-.33,4.48a2.87,2.87,0,0,1-2.79,2.48H89.78a2.46,2.46,0,0,1-2.47-2.37,10.42,10.42,0,0,1,.14-2.16A2.8,2.8,0,0,1,90,43.69C91.38,43.59,92.78,43.67,94.24,43.67Z" transform="translate(-4.15 0.36)"/><path class="cls-10" d="M62.63,6.22c-.14,1.62-.17,3.2-.43,4.75A2.55,2.55,0,0,1,60,13.09a7.52,7.52,0,0,1-2.32,0,2.34,2.34,0,0,1-1.94-2.31,15.7,15.7,0,0,1,.12-2.17,2.83,2.83,0,0,1,2.35-2.37C59.61,6.15,61.06,6.22,62.63,6.22Z" transform="translate(-4.15 0.36)"/><path class="cls-10" d="M70.09,6.2l-.18,3c0,.37-.06.74-.08,1.11a3,3,0,0,1-3,2.89,9.24,9.24,0,0,1-1.66-.09,2.4,2.4,0,0,1-2-2.36,17.49,17.49,0,0,1,.12-2.05,2.89,2.89,0,0,1,2.62-2.48C67.28,6.15,68.65,6.2,70.09,6.2Z" transform="translate(-4.15 0.36)"/><path class="cls-10" d="M106.36,11.24c0,.1.06.11.06.13.09,1.36.06,1.45-1.26,1.57a15.63,15.63,0,0,1-2.56,0,1.7,1.7,0,0,1-1.78-1.61v-.22a17.18,17.18,0,0,1,.24-3.2A2,2,0,0,1,103,6.18a16.87,16.87,0,0,1,2.66,0A1.42,1.42,0,0,1,107,7.6c.07.71,0,1.44,0,2.16,0,.37-.2.46-.53.45h-3.07a1.63,1.63,0,0,0-.55.22c.14.23.23.54.44.69a1.5,1.5,0,0,0,.75.11ZM103,9h1.47a2.11,2.11,0,0,0,.56-.22c-.13-.25-.19-.62-.39-.73C103.91,7.57,103.16,8,103,9Z" transform="translate(-4.15 0.36)"/><path class="cls-10" d="M99.72,11.24v1.24a.51.51,0,0,1-.32.36c-1.25.06-2.51.06-3.77,0-.91-.07-1.28-.59-1.44-1.51a8.9,8.9,0,0,1,.28-3.7A1.76,1.76,0,0,1,96,6.24a15.39,15.39,0,0,1,2.88,0,1.58,1.58,0,0,1,1.51,1.63s0,0,0,.07V9.72c0,.38-.16.53-.54.52H96.76a1.8,1.8,0,0,0-.57.25,2.45,2.45,0,0,0,.47.67,1.39,1.39,0,0,0,.7.1ZM98.28,8.92c.1-.74-.11-1-.78-1s-1.1.28-1.12,1Z" transform="translate(-4.15 0.36)"/><path class="cls-10" d="M114.46,7.87a6.52,6.52,0,0,1,.08-1.29.54.54,0,0,1,.36-.33,32.8,32.8,0,0,1,3.71,0c1,.09,1.37.65,1.33,1.66-.06,1.43-.15,2.86-.27,4.28a.75.75,0,0,1-.45.57,11.28,11.28,0,0,1-4.37.12,1.26,1.26,0,0,1-1.13-1.32V10.9a1.83,1.83,0,0,1,1.65-2,1.31,1.31,0,0,1,.28,0,15.63,15.63,0,0,0,1.67-.06,1.61,1.61,0,0,0,.52-.27,2.38,2.38,0,0,0-.39-.6,1,1,0,0,0-.59-.1Zm3.28,2.23h-1.36a.57.57,0,0,0-.58.57v.09c0,.41.22.56.58.57a3.17,3.17,0,0,0,.87,0,.64.64,0,0,0,.39-.41A3.23,3.23,0,0,0,117.74,10.1Z" transform="translate(-4.15 0.36)"/><path class="cls-10" d="M113.42,6.14a2.34,2.34,0,0,1-.6,2.09c-.81.9-1.55,1.85-2.43,2.92h2.37c.38,0,.52.14.5.54-.08,1.58.08,1.25-1.3,1.27s-2.71,0-4.07,0h-.61a2.2,2.2,0,0,1,.47-1.88c.91-1,1.76-2.05,2.73-3.2h-2.77a14.28,14.28,0,0,1,.11-1.51.34.34,0,0,1,.25-.23Z" transform="translate(-4.15 0.36)"/><path class="cls-12" d="M23.49,41.47H18.31a2.79,2.79,0,0,1-2.91-2.66,1.93,1.93,0,0,1,0-.34c.21-3.24.47-6.48.71-9.72.21-2.77.4-5.55.61-8.33.06-.85.1-1.7.21-2.55A3.28,3.28,0,0,1,20.2,15H30.68a2.81,2.81,0,0,1,2.9,2.7,2.68,2.68,0,0,1,0,.4l-1.2,16.55c-.09,1.28-.2,2.56-.3,3.83a3.31,3.31,0,0,1-3.22,3Zm-5.66-6.61H29.64c.27,0,.55.06.58-.38.17-2.58.37-5.15.56-7.73.2-2.83.41-5.66.61-8.49.06-.81-.23-1.16-1-1.16H20.22a1,1,0,0,0-1.23.83,1.29,1.29,0,0,0,0,.34c-.09,1.11-.16,2.22-.24,3.34-.25,3.44-.51,6.88-.76,10.33C18,32.89,17.89,33.85,17.83,34.86ZM30,37H17.68a9.21,9.21,0,0,1-.12,1.07v.28a.88.88,0,0,0,.83.93H28.75a1,1,0,0,0,1.17-.8,1.34,1.34,0,0,0,0-.2A10.05,10.05,0,0,0,30,37Z" transform="translate(-4.15 0.36)"/><path class="cls-10" d="M17.83,34.86c.06-1,.11-2,.18-2.92.25-3.45.51-6.89.76-10.33.08-1.12.15-2.23.24-3.34a1,1,0,0,1,1.21-1.13H30.37c.79,0,1.08.35,1,1.16q-.32,4.24-.61,8.49c-.19,2.58-.39,5.15-.56,7.73,0,.44-.31.38-.58.38H18.55C18.33,34.9,18.11,34.88,17.83,34.86Z" transform="translate(-4.15 0.36)"/><path class="cls-10" d="M30,37a11.07,11.07,0,0,1-.09,1.23,1,1,0,0,1-1,1l-.2,0H18.44a.88.88,0,0,1-.9-.86V38A10.3,10.3,0,0,1,17.66,37Z" transform="translate(-4.15 0.36)"/><path class="cls-13" d="M172.49,31.67l-1.48.11V23.1h1.42l.07,1.39h1.42V25.9l-1.4.08v1.48h4.37l.07,1.37h0l-1.57.1v2.81l1.4.08.09,1.41h1.38v1.3h4.36V33.24h-2.85V31.8H187v1.39l-1.37.08v1.24h2.83V33.28h1.45l.09,1.27h6.72a.79.79,0,0,0,.61-.29,2.73,2.73,0,0,1,2.84-1.57,2.66,2.66,0,0,1,2.38,2l.07.11v1.28a3.12,3.12,0,0,1-2,2c-1.41.36-2.5-.22-3.41-1.79H187.08v1.26h2.28c.5,0,.67.15.65.65v2.31h-1.54V39.09h-1.36v1.36h1.38v1.39l1.47.09v2.85h-1.44V43.45h-4.36V41.91H187V40.53l-1.41-.08V39.08h-1.4l-.07,1.37h-2.78v1.4h1.35v3h4.41v4.4h-3V46.38h-1.4l-.07,1.38h-1.43V44.87H179.8v4.29l1.39.08V50.6h-1.45V49.26h-2.85v1.32h-1.55V47.81H174V46.4h-1.42l-.07,1.35H171V41.91h2.91V40.46h2.82v-2.8h-1.29l-.09,1.41H174v1.41h-3V36.25h-2.83v1.26h1.33V39H166.6V36.25h-1.4l-.08,1.33h-1.38l-.09-1.32h-2.81v1.16c.5.1,1.07,0,1.39.32s0,.79,0,1.25h-1.45V37.66h-1.43l-.09-1.44h-5.6a3,3,0,0,0-2.4.75,2.49,2.49,0,0,1-3.82-.89c-.1-.18-.19-.37-.28-.56V34.38a2.66,2.66,0,0,1,2.58-2,2.59,2.59,0,0,1,2.49,1.75c.07.18.32.42.49.42h6.56V31.8h1.44v1.37h1.45l.07-1.36h7.22V33.2l-1.36.06v1.25H171l.06-1.3h1.54c0,.43-.06.86-.08,1.29h1.41l.08-1.21,1.33-.11V31.8h-1.38a10.55,10.55,0,0,0,.07,1.5l-1.45-.07V31.66l1.39.11V28.91h-1.37Zm5.82,8.8h-1.46V42l-1.4.07v1.29l1.38.09.08,1.39h1.37V40.45h2.83V39.09h-2.8Zm5.76-4.2h-4.25v1.2h4.25ZM162.28,34.5h2.83V33.28h-2.83Zm13.17,10.36v2.78h1.27V44.86Zm-1.58,0v-1.4h-1.34v1.35ZM187,37.66h-1.3V39H187ZM179.85,42c-.25,1.36-.06,1.53,1.25,1.24V42Z" transform="translate(-4.15 0.36)"/><path class="cls-14" d="M195.4.16a3.27,3.27,0,0,1,.67.86c1.1,3.28,2.16,6.56,3.23,9.85a1.13,1.13,0,0,1,0,.26H190c-.49-2.53-1-5.07-1.46-7.6-.22-1.13-.48-2.25-.71-3.37Z" transform="translate(-4.15 0.36)"/><path class="cls-14" d="M161.75.16c-.52,2.65-1.05,5.3-1.57,8-.2,1-.39,2-.59,3.05h-9.44c.2-.61.38-1.18.57-1.75.89-2.73,1.77-5.46,2.69-8.17a5.13,5.13,0,0,1,.7-1.08Z" transform="translate(-4.15 0.36)"/><path class="cls-14" d="M177.87.16c.16,2.75.33,5.5.49,8.25,0,.89.11,1.78.16,2.73H171c.1-1.53.2-3.05.28-4.57.12-2.13.23-4.27.35-6.41Z" transform="translate(-4.15 0.36)"/><path class="cls-14" d="M186,.16c.35,1.92.69,3.83,1.05,5.75.32,1.73.66,3.46,1,5.24h-7.5c-.12-1.74-.22-3.45-.34-5.15-.14-1.95-.29-3.9-.43-5.84Z" transform="translate(-4.15 0.36)"/><path class="cls-14" d="M169.81.16l-.76,11h-7.47c.18-1,.35-1.92.53-2.87.5-2.52,1-5,1.46-7.54a5.23,5.23,0,0,0,0-.56Z" transform="translate(-4.15 0.36)"/><path class="cls-13" d="M195.26,40h1.93V55.51H152.25V39.94h1.94V53.49h41.07Z" transform="translate(-4.15 0.36)"/><path class="cls-13" d="M159.38,40.5h10.1V50.59h-10.1Zm1.41,1.5v6.8c0,.49.36.4.65.4h5.94c.54,0,.67-.19.66-.69V42Z" transform="translate(-4.15 0.36)"/><path class="cls-13" d="M172.45,49.26V50.6H171V49.26Z" transform="translate(-4.15 0.36)"/><path class="cls-13" d="M187.06,49.23h1.37V50.6h-1.36V49.22Z" transform="translate(-4.15 0.36)"/><path class="cls-13" d="M184.08,49.22V50.6h-1.37V49.24h1.39Z" transform="translate(-4.15 0.36)"/><path class="cls-13" d="M199.54,12.24a5.84,5.84,0,0,1-4.25,4.46c-2.55.87-4.52-.27-6.2-2.21A5.81,5.81,0,0,1,181,15.94a5.75,5.75,0,0,1-1.46-1.45,5.79,5.79,0,0,1-9.52,0,5.9,5.9,0,0,1-9.6,0c-1.76,2.16-4,3.06-6.67,2.12a5.59,5.59,0,0,1-3.78-4.4Z" transform="translate(-4.15 0.36)"/><path class="cls-13" d="M189.9,30.27H179.78V20.17H189.9Zm-1.45-8.62h-7.2V28.8h7.2Z" transform="translate(-4.15 0.36)"/><path class="cls-13" d="M159.37,30.25V20.16h10.1V30.25ZM168,21.64h-7.22V28.8H168Z" transform="translate(-4.15 0.36)"/><path class="cls-13" d="M154.15,30.38h-1.9V16.54c.62.33,1.18.6,1.71.93a.68.68,0,0,1,.25.51V30.12A1.1,1.1,0,0,1,154.15,30.38Z" transform="translate(-4.15 0.36)"/><path class="cls-13" d="M197.2,30.38h-1.95v-12a1.07,1.07,0,0,1,.73-1.18,11.23,11.23,0,0,0,1.24-.65Z" transform="translate(-4.15 0.36)"/><path class="cls-13" d="M173.92,24.49V23.11h3V25.9h-1.58V24.47h-1.41Z" transform="translate(-4.15 0.36)"/><path class="cls-13" d="M174,21.56V20.17h1.36v1.39Z" transform="translate(-4.15 0.36)"/><path class="cls-13" d="M176.87,25.9h1.36v1.48l-1.36.07h0V25.9Z" transform="translate(-4.15 0.36)"/><path class="cls-13" d="M177,28.82l1.3.06v1.37h-1.5c.06-.51.12-1,.18-1.45Z" transform="translate(-4.15 0.36)"/><path class="cls-13" d="M182.72,23.06v4.31H187V23.06Z" transform="translate(-4.15 0.36)"/><path class="cls-13" d="M162.23,43.41h4.4v4.33h-4.4Z" transform="translate(-4.15 0.36)"/><path class="cls-13" d="M182.72,23.06H187v4.31h-4.26Z" transform="translate(-4.15 0.36)"/><path class="cls-13" d="M162.28,23.08h4.29v4.29h-4.29Z" transform="translate(-4.15 0.36)"/><path class="cls-14" d="M171,36.17h8.76l.11,1.24h4.28V36.17h3v1.24l3,.17v2.83h-1.57V39h-1.35v1.4h1.38v1.35l1.54.22v2.82H188.6V43.37h-4.32V41.82h2.82V40.48l-1.4-.07L185.57,39h-1.32l-.08,1.42h-2.78v1.41h1.39v3h4.37v4.36h-3V46.33h-1.43V47.7H181.2V44.83h-1.33v4.28l1.39.07v1.38h-1.53V49.21H177v1.34h-1.6V47.72H174V46.35h-1.41v1.34h-1.45V41.81H174V40.4h2.84V37.61h-1.29L175.45,39H174v1.4h-3Zm7.36,4.26H177v1.46l-1.4.1v1.27l1.38.09.07,1.38h1.37V40.4h2.82V39h-2.79Zm-1.56,4.42h-1.28v2.74h1.28Zm-4.22-.11H174V43.41h-1.32ZM187,38.93V37.62h-1.28v1.31Zm-7.15,4.32h1.29V42h-1.29Z" transform="translate(-4.15 0.36)"/><path class="cls-14" d="M168.2,36.17v1.27h1.37v1.5h-2.93V36.17Z" transform="translate(-4.15 0.36)"/><path class="cls-14" d="M160.84,36.17l.07,1.22c.49.07,1.06,0,1.39.27s0,.79,0,1.27h-1.46V37.61H159.4V36.17Z" transform="translate(-4.15 0.36)"/><path class="cls-14" d="M165.23,36.17v1.36h-1.42V36.17Z" transform="translate(-4.15 0.36)"/><path class="cls-14" d="M169.59,40.45V50.57H159.45V40.45ZM161,42v7.1h7.12V42Z" transform="translate(-4.15 0.36)"/><path class="cls-14" d="M172.54,49.2v1.37h-1.46V49.2Z" transform="translate(-4.15 0.36)"/><path class="cls-14" d="M184.17,49.17v1.38h-1.39V49.19h1.4Z" transform="translate(-4.15 0.36)"/><path class="cls-14" d="M187.15,49.17h1.38v1.38h-1.4V49.19Z" transform="translate(-4.15 0.36)"/><path class="cls-14" d="M162.32,43.31h4.15c.09,0,.26.2.27.31v4h-4.43Z" transform="translate(-4.15 0.36)"/><path class="cls-15" d="M307.2,23.32a30,30,0,0,1-8.72-1.06,1.55,1.55,0,0,0-1,0,12.7,12.7,0,0,1-4.76.75c-9.25,0-18.5,0-27.75-.06q-15.33,0-30.67,0c-1,0-2,.06-3.08,0a.7.7,0,0,0-.78.55A13.2,13.2,0,0,1,226,29.36a1.23,1.23,0,0,1-.83.26c-1.86-.23-3.7-.51-5.62-.78l.13-2c1-.12,1.88-.19,2.79-.34,3-.5,4.74-2.47,5.8-5.16a1.55,1.55,0,0,0,0-1c-.88-2.29-1.8-4.57-2.71-6.85-.1-.23-.22-.45-.36-.75l3.36-1.91a36.71,36.71,0,0,1,2.6,8.63h62.59a5.17,5.17,0,0,1-1.13-4.61,5.75,5.75,0,0,1,2.12-3.22,4.83,4.83,0,0,1,6.05.11c2.18,1.78,2.38,4.16.58,8l3.25.25a7.3,7.3,0,0,0-3.68-8.54,26,26,0,0,0-2.84-1.16c-.82-.3-1-.72-.66-1.54s.7-1.36,1.11-2.14l2.74,1c.48.17,1,.35,1.45.51.67.21,1.32.42,1.32,1.32,0,.19.22.4.38.54,3,2.54,3.81,5.85,3.4,9.59C307.66,20.73,307.4,22,307.2,23.32Zm-9.9-9.59a2.43,2.43,0,0,0-1.88,1.51c-.44.81.1,1.34.54,1.82a9.57,9.57,0,0,0,1.6,1.3.63.63,0,0,0,.61,0A3.18,3.18,0,0,0,299.55,16,2.13,2.13,0,0,0,297.3,13.73Z" transform="translate(-4.15 0.36)"/><path class="cls-15" d="M403.52,6.89l3.55-1.43c.25,4.64.5,9.23.76,13.93H409c2.06,0,4.12,0,6.17,0,1.35,0,1.44-.19,1.6-1.5.2-1.71.41-3.41.63-5.12,0-.2.1-.39.17-.67l3.49.82c-.39,2.06-.76,4-1.16,6.12,2.16.68,4.33.26,6.54.41A24.84,24.84,0,0,0,424.73,11l2.87-1.42c.28.64.54,1.24.79,1.84.5,1.18,1,2.36,1.46,3.56a1.65,1.65,0,0,1-.06.9,12.75,12.75,0,0,0-.38,1.44c-.15,1.68-.22,3.38-.37,5.06,0,.22-.33.58-.5.58-2.69-.05-5.38-.12-8.07-.25a1.78,1.78,0,0,1-1.76-1.17c-2,1.74-4.44,1.42-6.78,1.45-1.64,0-3.29,0-4.93,0a1.52,1.52,0,0,1-1-.49.8.8,0,0,0-1-.29,33.22,33.22,0,0,1-9.21,1.13c-14.49,0-29,0-43.47,0a10.22,10.22,0,0,1-3.38-.58c-2.67-1-3.44-3.15-3.53-5.27a4.63,4.63,0,0,1,.42-1.62c.43-1.26.88-2.5,1.35-3.81l2.1.69c-.26.9-.54,1.74-.74,2.61-.61,2.65.5,4.16,3.22,4.4a17.47,17.47,0,0,0,1.77.08h42.62a36,36,0,0,0,7.95-.82c.58-.13.67-.37.6-.89-.34-2.57-.67-5.14-1-7.71C403.62,9.23,403.6,8.1,403.52,6.89Z" transform="translate(-4.15 0.36)"/><path class="cls-15" d="M327.63,19.39h5.79A46.59,46.59,0,0,0,332,6.79l2.89-1.3c.68,2,1.36,3.91,2,5.85a.55.55,0,0,1-.09.49,1.76,1.76,0,0,0-.39,1.64A35.79,35.79,0,0,1,336,23c-.66,0-1.33,0-2,0a52.19,52.19,0,0,1-7.52-.35,14.13,14.13,0,0,0-5.72,0,35.33,35.33,0,0,1-6.44.34c-1.2,0-2.4,0-3.63,0-.12-1.93-.2-3.78-.35-5.61-.26-3.2-.54-6.4-.87-9.59-.07-.72.06-1.06.78-1.27.93-.27,1.81-.68,2.82-1.07.23,4.66.45,9.23.67,13.88h6c-1.14-1.55-2-3.1-1.56-5.05a6.66,6.66,0,0,1,3-4.31,5,5,0,0,1,6.25.6,6.29,6.29,0,0,1,2,4.3C329.56,16.55,328.77,17.92,327.63,19.39Zm-4-6.58a3,3,0,0,0-2.51,1.89c-.5,1,.32,1.44.74,2.05a2.85,2.85,0,0,0,.47.51c1.77,1.45,1.41,1.49,3.09-.1a7.75,7.75,0,0,0,.73-.88,1.22,1.22,0,0,0,.27-.53A3.21,3.21,0,0,0,323.67,12.81Z" transform="translate(-4.15 0.36)"/><path class="cls-16" d="M223.25,40.16l.84.36a4.18,4.18,0,0,1,.74,7.42,8.54,8.54,0,0,1-3.43,1.2c-2.15.19-4.34,0-6.52.06-.61,0-.53-.42-.53-.8V36c0-.89,0-1.79,0-2.69,0-.44.11-.65.58-.7a22.27,22.27,0,0,1,7.64.06,6.23,6.23,0,0,1,2.08,1,3.5,3.5,0,0,1-.16,5.85C224.14,39.68,223.77,39.86,223.25,40.16Zm-5.88,4.08c0,.69,0,1.39,0,2.08,0,.53.21.79.71.77a20,20,0,0,0,3.2-.25,2.47,2.47,0,0,0,2.19-2.72,2.53,2.53,0,0,0-2.36-2.44c-1-.17-2-.12-3.06-.2-.52,0-.69.2-.68.68C217.39,42.85,217.37,43.55,217.37,44.24Zm1.68-4.77a22.41,22.41,0,0,0,2.84-.77A1.89,1.89,0,0,0,223,36.6a1.76,1.76,0,0,0-1.41-1.71,23.19,23.19,0,0,0-3.64-.25c-.18,0-.51.4-.53.64-.07.79,0,1.59,0,2.38C217.37,39.29,217.37,39.29,219.05,39.47Z" transform="translate(-4.15 0.36)"/><path class="cls-16" d="M331.88,47.14a4.91,4.91,0,0,1-4.24,2.35A5.65,5.65,0,0,1,322,44.82a8.09,8.09,0,0,1,.24-3.94,5.78,5.78,0,0,1,9.44-2.47c0-.35,0-.61,0-.88,0-1.82,0-3.64,0-5.46,0-.51.16-.69.66-.66a13.61,13.61,0,0,0,1.69,0c.6-.05.8.14.8.76,0,2.7,0,5.4,0,8.09s0,5.44,0,8.17c0,.61-.17.83-.78.77s-1.27.17-1.65-.1-.28-1-.4-1.52C332,47.49,332,47.39,331.88,47.14Zm-.18-3.91v-.81a3,3,0,0,0-2.19-3.14,3.4,3.4,0,0,0-3.81,1.3,4.43,4.43,0,0,0-.72,3,3.47,3.47,0,0,0,2,3.18,3.3,3.3,0,0,0,4.67-3.53Z" transform="translate(-4.15 0.36)"/><path class="cls-16" d="M273.51,47.34a5,5,0,0,1-3.31,2.06,5.52,5.52,0,0,1-6.35-4.47,7.64,7.64,0,0,1,.63-5,5.65,5.65,0,0,1,6.94-2.74,11.94,11.94,0,0,1,2.18,1.42,1,1,0,0,0,.09-.29c.08-1.17.08-1.17,1.23-1.17,1.78,0,1.77,0,1.77,1.75,0,4.81,0,9.61,0,14.41,0,.68-.17.94-.86.86s-1.7.17-2.12-.21-.15-1.35-.15-2.06c0-1.21,0-2.42,0-3.62C273.56,48,273.53,47.77,273.51,47.34Zm.08-4.25h0a4.26,4.26,0,0,1,0-.62,3.09,3.09,0,0,0-2.41-3.22,3.39,3.39,0,0,0-3.79,1.69,4.67,4.67,0,0,0,0,4.43,3.3,3.3,0,0,0,3.26,1.75,3.21,3.21,0,0,0,2.86-2.43A8.43,8.43,0,0,0,273.59,43.09Z" transform="translate(-4.15 0.36)"/><path class="cls-16" d="M378,35.34a9.82,9.82,0,0,0-6.36-.33,6.12,6.12,0,0,0,.89,11.83,12,12,0,0,0,5.49-.5l.55,2.38c-.82.19-1.57.42-2.34.55a12.1,12.1,0,0,1-7.79-1,7.45,7.45,0,0,1-4.1-6.11c-.71-6.13,3.72-9.4,7.85-9.89a14.87,14.87,0,0,1,5.79.37c.53.15.78.38.53,1A15.26,15.26,0,0,0,378,35.34Z" transform="translate(-4.15 0.36)"/><path class="cls-15" d="M218.39,11.82l-1.11-1.48,2.2-2.19c1.31,1.57,2.64,3.16,4,4.76.09.11.2.3.16.39-.3.77.18,1.33.44,2,.55,1.3,1.09,2.6,1.6,3.91a3.29,3.29,0,0,1-1.06,3,8.54,8.54,0,0,1-7.19.69c-2.33-.87-4.06-3.09-2.68-6.2a13.75,13.75,0,0,1,3.12-4.25Zm1.88,2.61a10.1,10.1,0,0,0-2.88,3.89.82.82,0,0,0,.26.69,4.49,4.49,0,0,0,4.86.18Z" transform="translate(-4.15 0.36)"/><path class="cls-16" d="M301.68,44a2.66,2.66,0,0,0,1,2.2,4.66,4.66,0,0,0,3.39,1c1.11-.07,2.22-.26,3.43-.4L310,48.7c-2.92.9-5.76,1.35-8.53-.21-2.07-1.17-2.76-3.14-2.73-5.41a6.19,6.19,0,0,1,4.67-6c4.33-1.08,7.75,1.91,7.29,6.35-.06.55-.34.58-.77.58h-7.24C302.35,44,302.05,44,301.68,44Zm6-2.17a2.65,2.65,0,0,0-2.54-3,3.06,3.06,0,0,0-3.41,3Z" transform="translate(-4.15 0.36)"/><path class="cls-16" d="M428.59,46.87c.11.48.25,1.1.4,1.79a11.94,11.94,0,0,1-5.43.78,6.85,6.85,0,0,1-3.46-1.17A6.2,6.2,0,0,1,418,41.59a5.83,5.83,0,0,1,5-4.61,9,9,0,0,1,2.88.1c2.36.56,3.78,2.57,3.9,5.28.07,1.61.07,1.61-1.51,1.61h-6.62c-.92,0-1.05.19-.69,1.05a3.38,3.38,0,0,0,3.23,2.1C425.55,47.16,427,47,428.59,46.87Zm-7.83-5h5.66c.54,0,.41-.42.35-.74a2.83,2.83,0,0,0-3.31-2.28A3.14,3.14,0,0,0,420.76,41.89Z" transform="translate(-4.15 0.36)"/><path class="cls-16" d="M390.28,47.72a5.61,5.61,0,0,1-3.39,1.74,4,4,0,0,1-4.56-2.75,3.78,3.78,0,0,1,2.41-4.46,23.29,23.29,0,0,1,3.72-.83c.5-.1,1-.11,1.48-.16A1.92,1.92,0,0,0,388.28,39a7,7,0,0,0-3.83.5c-.21.08-.41.18-.71.31a16.11,16.11,0,0,1-.49-1.55.64.64,0,0,1,.29-.52,8.65,8.65,0,0,1,7.14-.33,4.21,4.21,0,0,1,2.42,4.07c.06,1.9,0,3.8,0,5.7,0,.63.08,1.26.13,2-.82,0-1.56,0-2.3,0-.17,0-.39-.27-.48-.46A5.26,5.26,0,0,1,390.28,47.72Zm0-3.39c-.18-.36-.35-1-.54-1a5.56,5.56,0,0,0-3.78.89,1.71,1.71,0,0,0-.56,1.94,1.55,1.55,0,0,0,1.3,1.15A2.93,2.93,0,0,0,390.29,44.33Z" transform="translate(-4.15 0.36)"/><path class="cls-16" d="M238.54,41.29A2,2,0,0,0,236.85,39a6.73,6.73,0,0,0-3.76.48l-.78.32a15.42,15.42,0,0,1-.49-1.56.66.66,0,0,1,.31-.51,8.74,8.74,0,0,1,7-.38,4.23,4.23,0,0,1,2.53,4.15c.07,1.9,0,3.8,0,5.7,0,.62.08,1.25.13,2-.84,0-1.58,0-2.31,0-.18,0-.39-.27-.48-.47a4.61,4.61,0,0,1-.19-.95,5.75,5.75,0,0,1-3.33,1.71A4.07,4.07,0,0,1,231,47.07a3.71,3.71,0,0,1,2-4.65,16.49,16.49,0,0,1,3.52-1A14.5,14.5,0,0,1,238.54,41.29Zm.17,3.14c0-1.25,0-1.25-1.27-1.11a2.29,2.29,0,0,0-.53,0,12.31,12.31,0,0,0-2.34.85A1.56,1.56,0,0,0,234,46a1.51,1.51,0,0,0,1.3,1.24C237.42,47.65,239,46,238.71,44.43Z" transform="translate(-4.15 0.36)"/><path class="cls-16" d="M247.21,37.13c.8,0,1.54,0,2.27,0,.15,0,.36.25.4.42a14.08,14.08,0,0,1,.22,1.52l.56-.6a4.79,4.79,0,0,1,4.51-1.57A4.24,4.24,0,0,1,259,41c.14,2.53.1,5.07.16,7.61,0,.39-.14.56-.54.54-.67,0-1.33,0-2,0-.5,0-.6-.21-.6-.65,0-2,0-4,0-6a5.46,5.46,0,0,0-.13-1.14,2.38,2.38,0,0,0-2.61-2.09,2.79,2.79,0,0,0-2.74,2.25,23.15,23.15,0,0,0-.12,2.77c0,1.38,0,2.77,0,4.15,0,.53-.17.75-.71.71-.74-.06-1.74.21-2.14-.17s-.19-1.39-.2-2.12c0-2.85,0-5.7,0-8.55C247.29,38,247.24,37.61,247.21,37.13Z" transform="translate(-4.15 0.36)"/><path class="cls-16" d="M352.1,49.19a20.85,20.85,0,0,1-2.1,0c-.2,0-.47-.34-.53-.57a9.07,9.07,0,0,1-.11-1.41,6,6,0,0,0-.48.45,4.89,4.89,0,0,1-5.4,1.64,4.1,4.1,0,0,1-3-4c-.08-2.49,0-5-.06-7.47,0-.45.13-.63.62-.64,2.41-.09,2.39-.11,2.41,2.29a53.53,53.53,0,0,0,.18,5.38,2.24,2.24,0,0,0,2.62,2.2A2.72,2.72,0,0,0,349,44.52c.12-2.13.09-4.26.11-6.39,0-1,0-1,1-1,2,0,2,0,2,2,0,3.18,0,6.37.05,9.55C352.14,48.82,352.11,49,352.1,49.19Z" transform="translate(-4.15 0.36)"/><path class="cls-16" d="M294,49.19a18.37,18.37,0,0,1-2.11,0c-.21,0-.46-.4-.53-.66a7,7,0,0,1-.11-1.35c-.26.27-.4.41-.52.55A5.08,5.08,0,0,1,285,49.16a4.08,4.08,0,0,1-2.6-3.86c-.12-2.52-.05-5-.08-7.56,0-.45.16-.65.64-.62a12.36,12.36,0,0,0,1.61,0c.6,0,.81.14.8.77,0,1.82,0,3.64,0,5.47a8.62,8.62,0,0,0,.16,1.52A2.34,2.34,0,0,0,288.14,47a2.77,2.77,0,0,0,2.67-2.33c.12-1.38.09-2.77.12-4.15,0-.88,0-1.75,0-2.62,0-.62.21-.83.81-.77a7.91,7.91,0,0,0,1.46,0c.62-.07.79.17.78.78,0,3.26,0,6.52,0,9.79Z" transform="translate(-4.15 0.36)"/><path class="cls-15" d="M341.16,5.43c.24,5.92.48,11.7.73,17.53l-3.11.35c0-.54-.11-1.06-.15-1.58-.36-4.61-.71-9.21-1.09-13.81-.06-.76,0-1.24.88-1.46A28.37,28.37,0,0,0,341.16,5.43Z" transform="translate(-4.15 0.36)"/><path class="cls-16" d="M410.14,39.51a14.61,14.61,0,0,1,1-1.45,3.63,3.63,0,0,1,2.71-1.24c.47,0,.72.14.7.66,0,.69,0,1.39,0,2.13a5.11,5.11,0,0,1-.53,0c-2.29-.07-3.54,1.1-3.58,3.42,0,1.77,0,3.54,0,5.31,0,.65-.2.88-.84.82a7.12,7.12,0,0,0-1.46,0c-.65.07-.76-.22-.76-.8q0-5,0-10.08c0-1.19-.06-1.19,1.15-1.19,1.38,0,1.38,0,1.44,1.35,0,.26,0,.51.06.77A1.15,1.15,0,0,0,410.14,39.51Z" transform="translate(-4.15 0.36)"/><path class="cls-15" d="M379.39,9.41l-1,2.29a3.08,3.08,0,0,0-3.22.15c.3.89.7,1.1,1.55.89l2.69-.63a1.59,1.59,0,0,1,.4,0c-.08,1-.14,2-.24,2.92a.6.6,0,0,1-.39.37c-2.24.6-4.5,1.19-6.86,1.8-.14-.6-.32-1.33-.44-2.08,0-.12.19-.31.34-.42a8.71,8.71,0,0,1,.78-.44,3.84,3.84,0,0,1-.49-2.95,4,4,0,0,1,2.39-2.82,2.59,2.59,0,0,1,2.16,0C377.81,8.8,378.57,9.08,379.39,9.41Z" transform="translate(-4.15 0.36)"/><path class="cls-16" d="M401.79,43.16c0,1.75,0,3.49,0,5.24,0,.56-.12.87-.77.8s-1.7.17-2.12-.21-.15-1.35-.15-2.06c0-3,0-6,0-8.93,0-.64.12-.9.84-.89,2.21,0,2.21,0,2.21,2.2Z" transform="translate(-4.15 0.36)"/><path class="cls-15" d="M323.46,6.39l-1.85,2.1-3-2.67,3.09-2.72,1.93,1.83,2-2.11,2.67,2.78-2.55,2.88Z" transform="translate(-4.15 0.36)"/><path class="cls-15" d="M214.42,5.65l3.06-2.74,2,1.9,2-2.1,2.64,2.83-2.49,2.83L219.3,6.28l-1.85,2.09Z" transform="translate(-4.15 0.36)"/><path class="cls-15" d="M428.79,27.14l-2.62,3-2.95-2.67c.93-1,1.84-1.92,2.82-3Z" transform="translate(-4.15 0.36)"/><path class="cls-15" d="M421.66,7.28l-2.61,3-3-2.67,2.83-3Z" transform="translate(-4.15 0.36)"/><path class="cls-16" d="M400.27,32a1.61,1.61,0,1,1,0,3.2,1.51,1.51,0,0,1-1.69-1.56A1.55,1.55,0,0,1,400.27,32Z" transform="translate(-4.15 0.36)"/><path class="cls-17" d="M491.9,55.92H435.38V-.36H491.9ZM475.37,41.59c0-.27,0-.44,0-.62,0-5.85,0-11.69,0-17.53a23.71,23.71,0,0,0-.43-4.37,13.34,13.34,0,0,0-8.27-10.29,5.57,5.57,0,0,0-3.62-.5,13.7,13.7,0,0,0-8.82,6.55,17.7,17.7,0,0,0-2,8.94c0,5.68,0,11.36,0,17,0,.2,0,.41,0,.71,1-.67,1.83-1.29,2.72-1.85a.94.94,0,0,0,.5-.93c0-4.88,0-9.77,0-14.65a26.85,26.85,0,0,1,.24-3.47,10.77,10.77,0,0,1,6.47-8.7,3.12,3.12,0,0,1,2.13-.3A9.86,9.86,0,0,1,468.59,14a11.55,11.55,0,0,1,3.55,8.86c0,5.33,0,10.66,0,16,0,.2,0,.52.13.61C473.28,40.21,474.29,40.87,475.37,41.59Zm-6.52-4.25v-.55c0-5.07,0-10.13,0-15.2a5.68,5.68,0,0,0-2.64-4.9,3.82,3.82,0,0,0-2.79-.84,5.9,5.9,0,0,0-4.61,5.59q0,7.61,0,15.2c0,.17,0,.34,0,.57,1-.59,2-1.13,2.89-1.7a.83.83,0,0,0,.36-.59c0-4.35,0-8.7,0-13a3.52,3.52,0,0,1,.42-1.62c.69-1.29,1.94-1.32,2.62,0a4.33,4.33,0,0,1,.45,2c.05,4.23,0,8.46,0,12.68,0,.24.06.59.21.69C466.78,36.17,467.77,36.72,468.85,37.34Zm-22.93,9.08c1.08-.87,2.07-1.62,3-2.43a1.15,1.15,0,0,0,.29-.79q0-12,0-24c0-.2,0-.39,0-.67-1,.71-1.87,1.38-2.79,2a1.06,1.06,0,0,0-.5,1q0,12.08,0,24.16Zm32.79-27.84v.84c0,7.58.05,15.15,0,22.73a3,3,0,0,0,1.46,3.08,15,15,0,0,1,1.76,1.38.93.93,0,0,0,0-.13q0-12.63,0-25.24a.6.6,0,0,0-.14-.43C480.83,20.08,479.82,19.37,478.71,18.58Z" transform="translate(-4.15 0.36)"/><path class="cls-12" d="M475.37,41.59c-1.08-.72-2.09-1.38-3.08-2.08-.13-.09-.13-.41-.13-.61,0-5.34,0-10.67,0-16A11.55,11.55,0,0,0,468.59,14a9.86,9.86,0,0,0-4.25-2.42,3.12,3.12,0,0,0-2.13.3,10.77,10.77,0,0,0-6.47,8.7,26.85,26.85,0,0,0-.24,3.47c0,4.88,0,9.77,0,14.65a.94.94,0,0,1-.5.93c-.89.56-1.75,1.18-2.72,1.85,0-.3,0-.51,0-.71,0-5.68,0-11.36,0-17a17.7,17.7,0,0,1,2-8.94,13.7,13.7,0,0,1,8.82-6.55,5.57,5.57,0,0,1,3.62.5A13.34,13.34,0,0,1,475,19.07a23.71,23.71,0,0,1,.43,4.37c.05,5.84,0,11.68,0,17.53C475.4,41.15,475.38,41.32,475.37,41.59Z" transform="translate(-4.15 0.36)"/><path class="cls-12" d="M468.85,37.34c-1.08-.62-2.07-1.17-3-1.77-.15-.1-.21-.45-.21-.69,0-4.22,0-8.45,0-12.68a4.33,4.33,0,0,0-.45-2c-.68-1.29-1.93-1.26-2.62,0a3.52,3.52,0,0,0-.42,1.62c0,4.35,0,8.7,0,13.05a.83.83,0,0,1-.36.59c-.93.57-1.88,1.11-2.89,1.7,0-.23,0-.4,0-.57q0-7.6,0-15.2a5.9,5.9,0,0,1,4.61-5.59,3.82,3.82,0,0,1,2.79.84,5.68,5.68,0,0,1,2.64,4.9c0,5.07,0,10.13,0,15.2Z" transform="translate(-4.15 0.36)"/><path class="cls-12" d="M445.92,46.42v-.7q0-12.07,0-24.16a1.06,1.06,0,0,1,.5-1c.92-.62,1.81-1.29,2.79-2,0,.28,0,.47,0,.67q0,12,0,24a1.15,1.15,0,0,1-.29.79C448,44.8,447,45.55,445.92,46.42Z" transform="translate(-4.15 0.36)"/><path class="cls-12" d="M478.71,18.58c1.11.79,2.12,1.5,3.12,2.23a.6.6,0,0,1,.14.43q0,12.61,0,25.24a.93.93,0,0,1,0,.13,15,15,0,0,0-1.76-1.38,3,3,0,0,1-1.46-3.08c.07-7.58,0-15.15,0-22.73Z" transform="translate(-4.15 0.36)"/></svg>