<svg id="Layer_1" data-name="Layer 1" xmlns="http://www.w3.org/2000/svg" viewBox="0 0 88.12 55.58"><defs><style>.cls-1{fill:#203a70;}.cls-1,.cls-2,.cls-3,.cls-4{fill-rule:evenodd;}.cls-2{fill:#fcb130;}.cls-3{fill:#ec2030;}.cls-4{fill:#fff;}</style></defs><title>mastercard</title><path id="svg_2" data-name="svg 2" class="cls-1" d="M84.2,0H3.78A4.55,4.55,0,0,0,.7.77,4.55,4.55,0,0,0,0,3.64V51.85c0,2.46,1.27,3.73,3.76,3.73H84.2c2.61,0,3.92-1.27,3.92-3.73V3.63C88.12,1.2,86.81,0,84.2,0Z"/><g id="svg_36" data-name="svg 36"><path id="svg_13" data-name="svg 13" class="cls-2" d="M44,40.08a16.62,16.62,0,1,0-1-1C43.34,39.41,43.68,39.75,44,40.08Z"/><path id="svg_14" data-name="svg 14" class="cls-2" d="M69.34,37a.54.54,0,1,1,.54.54h0a.53.53,0,0,1-.53-.53Zm.52.4a.41.41,0,0,0,.35-.48h0a.36.36,0,1,0-.7.13h0A.42.42,0,0,0,69.86,37.43Zm-.07-.17h-.11v-.47H70a.14.14,0,0,1,.06.12A.13.13,0,0,1,70,37l.09.21H70l-.1-.21h0m0-.05h-.12v.4Z"/><path id="svg_15" data-name="svg 15" class="cls-3" d="M49.36,26c-.07-.6-.16-1.19-.28-1.75H39a15.39,15.39,0,0,1,.49-1.73h9.11c-.21-.6-.43-1.18-.69-1.75H40.2c.3-.6.64-1.19,1-1.76H47a12.72,12.72,0,0,0-1.26-1.75H42.39c.52-.6,1.06-1.17,1.63-1.71a16.33,16.33,0,0,0-11-4.29,16.55,16.55,0,0,0,0,33.09A16.29,16.29,0,0,0,44,40.1h0a19.85,19.85,0,0,0,1.67-1.76h-3.3a13.66,13.66,0,0,1-1.25-1.76H47A16.34,16.34,0,0,0,48,34.83H40.2a17.9,17.9,0,0,1-.7-1.76h9.1c.19-.57.34-1.15.48-1.75a14.34,14.34,0,0,0,.28-1.74c0-.56.08-1.15.08-1.75a14.15,14.15,0,0,0-.08-1.72Z"/><path id="svg_16" data-name="svg 16" class="cls-4" d="M69.34,31.65a.54.54,0,0,1,.53-.55.54.54,0,0,1,.55.53.53.53,0,0,1-.53.55h0a.52.52,0,0,1-.53-.51h0Zm.52.39a.4.4,0,0,0,.39-.41h0a.4.4,0,0,0-.41-.39.41.41,0,0,0-.39.41A.4.4,0,0,0,69.86,32Zm-.07-.17h-.11v-.46H70a.2.2,0,0,1,.06.12.13.13,0,0,1-.09.12l.09.2H70l-.07-.19H69.8v-.08h.12v-.11c0-.06,0,0-.07,0h0v.38Z"/><path id="svg_17" data-name="svg 17" class="cls-1" d="M38.45,32.58a4.64,4.64,0,0,1-1.34.22,1.32,1.32,0,0,1-1.37-1.27h0v-.22a4.32,4.32,0,0,1,0-.62L35.9,30l.08-.54.78-4.66h1.72l-.21,1h1.07l-.26,1.76H38l-.46,2.78a1.31,1.31,0,0,0,0,.28c0,.34.19.5.61.5a2.07,2.07,0,0,0,.55-.11Z"/><path id="svg_18" data-name="svg 18" class="cls-1" d="M44,32.58a6.29,6.29,0,0,1-1.83.27,2.75,2.75,0,0,1-3-2.45,3.11,3.11,0,0,1,0-.61c0-2.34,1.32-4.08,3.11-4.08a2.29,2.29,0,0,1,2.41,2.16,1.71,1.71,0,0,1,0,.32,7.4,7.4,0,0,1-.23,1.69H40.86a.67.67,0,0,0,0,.2c0,.79.54,1.21,1.57,1.21a4.26,4.26,0,0,0,1.86-.43Zm-1-4.06v-.35a.78.78,0,0,0-.68-.87h-.16c-.57,0-1,.43-1.13,1.22Z"/><polygon id="svg_19" data-name="svg 19" class="cls-1" points="24.84 32.66 23.05 32.66 24.06 26.21 21.79 32.66 20.57 32.66 20.42 26.25 19.35 32.66 17.61 32.66 19.01 24.27 21.57 24.27 21.66 29.46 23.37 24.27 26.2 24.27 24.84 32.66"/><path id="svg_20" data-name="svg 20" class="cls-1" d="M29.11,29.64h-.34c-1,0-1.53.4-1.53,1a.63.63,0,0,0,.55.69h.09c.86,0,1.2-.69,1.23-1.68Zm1.42,3H29v-.7a2.09,2.09,0,0,1-1.87.82A1.69,1.69,0,0,1,25.56,31v-.07a3.07,3.07,0,0,1,.14-.9C26,29,27,28.29,28.7,28.28h.79a2.22,2.22,0,0,0,.07-.45c0-.44-.38-.6-1.2-.6a5.29,5.29,0,0,0-1.48.21l-.24.07h-.11l.2-1.48a6.8,6.8,0,0,1,2.09-.36c1.53,0,2.33.69,2.33,2A5.62,5.62,0,0,1,31.07,29l-.38,2.43-.07.43-.05.34v.41Z"/><path id="svg_21" data-name="svg 21" class="cls-1" d="M52.56,25.91a3.54,3.54,0,0,1,1.59.44l.3-1.82L54,24.36l-.74-.19a3.48,3.48,0,0,0-.79-.09,3.38,3.38,0,0,0-2,.35,4.52,4.52,0,0,0-1.06.89l-.21-.07-1.82,1.33.08-.74H45.64l-1.08,6.83h1.79L47,29s.26-.5.38-.66a1,1,0,0,1,1-.43h.12a9.32,9.32,0,0,0-.09,1.29c0,2.24,1.26,3.63,3.18,3.63a6.21,6.21,0,0,0,1.61-.24l.31-1.91a3.33,3.33,0,0,1-1.51.43c-1,0-1.67-.77-1.67-2,0-1.84.91-3.13,2.26-3.13Z"/><path id="svg_22" data-name="svg 22" class="cls-1" d="M67.64,24.27l-.44,2.39a1.85,1.85,0,0,0-1.63-1,2.66,2.66,0,0,0-2.34,1.55h0l-1.1-.63.09-.74H60.33l-1.08,6.83H61l.6-3.64s.46-.52.57-.67a1,1,0,0,1,.79-.43,6.21,6.21,0,0,0-.33,2c0,1.7.88,2.83,2.18,2.83A2.08,2.08,0,0,0,66.49,32l-.09.67h1.68l1.36-8.4h-1.8ZM65.45,31c-.6,0-.91-.44-.91-1.34,0-1.34.57-2.28,1.4-2.28.61,0,.94.46.94,1.34C66.88,30.12,66.3,31,65.45,31Z"/><path id="svg_23" data-name="svg 23" class="cls-1" d="M57.2,29.64h-.34c-1,0-1.53.4-1.53,1a.63.63,0,0,0,.55.69H56c.88,0,1.23-.69,1.24-1.68Zm1.41,3H57.1v-.7a2.09,2.09,0,0,1-1.87.82A1.72,1.72,0,0,1,53.58,31h0a.11.11,0,0,0,0-.08c0-1.62,1.22-2.63,3.15-2.63h.79a2.13,2.13,0,0,0,.07-.44c0-.45-.36-.61-1.21-.61a5.22,5.22,0,0,0-1.47.21l-.24.07h-.11L54.8,26a6.68,6.68,0,0,1,2.08-.36c1.53,0,2.34.69,2.34,2a5.78,5.78,0,0,1,0,1.44l-.38,2.42-.07.43v.77Z"/><path id="svg_24" data-name="svg 24" class="cls-1" d="M34.2,27.3a11.9,11.9,0,0,1,1.34.1l.26-1.58a12.19,12.19,0,0,0-1.6-.14c-2,0-2.65,1.07-2.65,2.34a2,2,0,0,0,1.34,1.88c.73.34.85.41.85.72s-.37.67-1.07.67a4.65,4.65,0,0,1-1.6-.28l-.17,1.57h0l.32.07a1.49,1.49,0,0,1,.47.07c.43,0,.77.06,1,.06,2,0,2.81-.77,2.81-2.27a2,2,0,0,0-1.3-1.93c-.74-.34-.85-.39-.83-.7s.33-.6.86-.62Z"/><path id="svg_25" data-name="svg 25" class="cls-4" d="M54.93,24l-.29,1.83a3.44,3.44,0,0,0-1.6-.45c-1.33,0-2.27,1.29-2.27,3.15,0,1.27.63,2,1.66,2A3.34,3.34,0,0,0,54,30.13L53.64,32a6,6,0,0,1-1.58.24c-1.93,0-3.12-1.39-3.12-3.63,0-3,1.65-5.09,4-5.09a3.48,3.48,0,0,1,.79.09l.74.19a3.12,3.12,0,0,1,.43.15Z"/><path id="svg_26" data-name="svg 26" class="cls-4" d="M49.2,25.25H49c-.58,0-.91.31-1.46,1.11l.16-1H46.09L45,32.19H46.8c.64-4.18.81-4.9,1.67-4.9h.14a6.47,6.47,0,0,1,.67-2Z"/><path id="svg_27" data-name="svg 27" class="cls-4" d="M38.9,32a3.77,3.77,0,0,1-1.29.23,1.32,1.32,0,0,1-1.42-1.21,1.4,1.4,0,0,1,0-.29v-.62l.11-.67.08-.53.81-4.66H39l-.21,1h.91L39.43,27h-.91l-.5,2.8v.28c0,.34.19.5.6.5a1.1,1.1,0,0,0,.48-.07L38.91,32Z"/><path id="svg_28" data-name="svg 28" class="cls-4" d="M32,27.47a2,2,0,0,0,1.35,1.91c.73.34.83.45.83.76s-.33.62-1,.62a4.65,4.65,0,0,1-1.6-.28L31.39,32h.09l.33.07h.46c.43,0,.76,0,1,0,1.88,0,2.75-.72,2.75-2.27A1.84,1.84,0,0,0,34.77,28c-.74-.34-.83-.43-.83-.74s.3-.55.88-.55a10.69,10.69,0,0,1,1.27.1l.26-1.58a11.59,11.59,0,0,0-1.56-.14c-2,0-2.72,1-2.7,2.29Z"/><path id="svg_29" data-name="svg 29" class="cls-4" d="M68.55,32.15H66.86l.09-.67a2.09,2.09,0,0,1-1.65.75c-1.29,0-2.15-1.13-2.15-2.83,0-2.27,1.32-4.18,2.91-4.18a2,2,0,0,1,1.7.93l.44-2.39H70L68.6,32.15Zm-2.63-1.57c.82,0,1.41-.94,1.41-2.3,0-.86-.33-1.34-1-1.34s-1.39.94-1.39,2.28C65,30.13,65.32,30.58,65.92,30.58Z"/><path id="svg_30" data-name="svg 30" class="cls-4" d="M44.35,32a5.91,5.91,0,0,1-1.82.28,2.72,2.72,0,0,1-3-2.38,3.86,3.86,0,0,1,0-.68c0-2.34,1.33-4.08,3.12-4.08A2.27,2.27,0,0,1,45,27.31a1.22,1.22,0,0,1,0,.27,7.3,7.3,0,0,1-.22,1.68H41.26a.74.74,0,0,0,0,.21c0,.79.53,1.2,1.56,1.2a4.26,4.26,0,0,0,1.86-.43L44.37,32Zm-1-4.06a1.93,1.93,0,0,0,0-.34.8.8,0,0,0-.69-.88h-.15c-.57,0-1,.43-1.14,1.22Z"/><polygon id="svg_31" data-name="svg 31" class="cls-4" points="25.28 32.15 23.5 32.15 24.53 25.7 22.24 32.15 21.02 32.15 20.88 25.73 19.8 32.15 18.13 32.15 19.52 23.75 22.09 23.75 22.17 28.95 23.89 23.75 26.66 23.75 25.28 32.15"/><path id="svg_32" data-name="svg 32" class="cls-4" d="M29.68,29.1h-.39c-1,0-1.53.34-1.53,1a.63.63,0,0,0,.55.69h.08C29.11,30.79,29.65,30.12,29.68,29.1Zm1.29,3H29.49v-.71a2.2,2.2,0,0,1-1.88.83A1.68,1.68,0,0,1,26,30.55v-.14c0-1.67,1.15-2.63,3.13-2.63a5.81,5.81,0,0,1,.72,0,2.22,2.22,0,0,0,.07-.45c0-.44-.31-.61-1.15-.61a5.27,5.27,0,0,0-1.48.18L27,27h-.16l.33-1.44a7.86,7.86,0,0,1,2.14-.36c1.53,0,2.34.69,2.34,2a8.9,8.9,0,0,1-.19,1.36L31.11,31l-.09.4-.05.35v.32Z"/><path id="svg_33" data-name="svg 33" class="cls-4" d="M57.8,29.1h-.39c-1,0-1.54.34-1.54,1a.63.63,0,0,0,.55.69h.09C57.25,30.79,57.77,30.12,57.8,29.1Zm1.31,3H57.63v-.71a2.19,2.19,0,0,1-1.87.83,1.68,1.68,0,0,1-1.57-1.78h0a.08.08,0,0,0,0-.07c0-1.67,1.16-2.63,3.13-2.63a5.84,5.84,0,0,1,.73.05,2.22,2.22,0,0,0,.07-.45c0-.44-.31-.61-1.16-.61a5.27,5.27,0,0,0-1.48.18l-.24.07h-.15l.19-1.44a7.73,7.73,0,0,1,2.13-.36c1.53,0,2.34.69,2.34,2a8.83,8.83,0,0,1-.14,1.36L59.25,31l-.07.43-.06.35v.29Z"/><path id="svg_34" data-name="svg 34" class="cls-4" d="M63.89,25.25h-.17c-.59,0-.91.31-1.47,1.11l.16-1H60.79l-1.08,6.83H61.5c.63-4.18.81-4.9,1.67-4.9h.12a6.47,6.47,0,0,1,.67-2Z"/></g></svg>