<svg id="Layer_1" data-name="Layer 1" xmlns="http://www.w3.org/2000/svg" viewBox="0 0 115.79 54.88"><defs><style>.cls-1{fill:#4c2770;}.cls-2{fill:#e7630d;}.cls-3{fill:#fff;}</style></defs><title>Meeza</title><path class="cls-1" d="M3.35,0H43c-.08,1.25-.16,2.43-.24,3.61-.21,2.91-.42,5.81-.64,8.72-.24,3.36-.49,6.71-.73,10.06l-.6,8.23c-.25,3.44-.5,6.89-.74,10.33q-.32,4.23-.6,8.45c-.12,1.67-.24,3.34-.35,5,0,.34-.14.47-.51.47H18.3a37.66,37.66,0,0,1-9.28-1,24.07,24.07,0,0,1-2.85-1A9.32,9.32,0,0,1,.45,45.48a33.67,33.67,0,0,1-.33-8.33c.2-3,.46-6.07.72-9.11.23-2.7.48-5.4.72-8.1.29-3.16.57-6.33.86-9.49.24-2.7.47-5.4.71-8.1C3.2,1.54,3.28.77,3.35,0Zm16,40.64H24.7a3.32,3.32,0,0,0,3.21-3c.11-1.28.21-2.56.31-3.83q.6-8.28,1.19-16.56A2.79,2.79,0,0,0,27,14.17a2.82,2.82,0,0,0-.41,0H16.06A3.26,3.26,0,0,0,12.79,17c-.11.85-.15,1.7-.21,2.55q-.32,4.17-.61,8.34c-.24,3.24-.5,6.48-.71,9.72a2.8,2.8,0,0,0,2.59,3h.31Z"/><path class="cls-1" d="M95.85,34.83V31.55c.22-3.65.49-7.3.73-10.95.13-1.85.25-3.71.38-5.56v-.62h10.66a7.1,7.1,0,0,1,7.26,6.94,8.21,8.21,0,0,1,0,1c-.24,2.63-.35,5.26-.55,7.89a27.33,27.33,0,0,1-.33,4.24,8.16,8.16,0,0,1-8,6.27h-2.68a5.77,5.77,0,0,1-4.45-1.5A10.33,10.33,0,0,1,92.15,41a8.39,8.39,0,0,1-6.26-3l-.48.46a8.71,8.71,0,0,1-7,2.48c-1.43-.14-2.85-.39-4.34-.59,0,.73-.11,1.58-.16,2.42-.08,1.32-.15,2.63-.24,4a3.2,3.2,0,0,1-2.88,2.93c-1.27.11-2.55,0-3.94,0,.77-11.77,1.54-23.5,2.32-35.26,1.43,0,2.83-.11,4.21,0a2.61,2.61,0,0,1,2.22,2.84c-.11,2.17-.28,4.33-.42,6.5-.11,1.84-.31,3.67-.27,5.5.06,3.11,2,5.08,5.15,5.41a7.35,7.35,0,0,0,3.72-.33c.26-.1.45-.19.37-.55A19.05,19.05,0,0,1,84,28.62q.27-3.8.52-7.61c.16-2.2.31-4.4.46-6.63,1.42,0,2.79-.1,4.15,0a2.62,2.62,0,0,1,2.27,2.8c-.09,2.22-.26,4.44-.38,6.67-.11,2-.27,3.89-.26,5.84a5.13,5.13,0,0,0,1.55,3.93A4.72,4.72,0,0,0,95.85,34.83Zm9-.76h1.45a1.11,1.11,0,0,0,1.26-.94,1.62,1.62,0,0,0,0-.22c.25-3.57.49-7.15.73-10.72a1,1,0,0,0-.87-1.11h-3.86c-.36,0-.49.1-.5.47,0,.85-.1,1.71-.15,2.56-.2,3-.41,5.93-.6,8.89a1,1,0,0,0,.9,1.09h1.63Z"/><path class="cls-1" d="M66.74,14.42c-.1,1.67-.19,3.24-.3,4.81-.17,2.56-.34,5.12-.53,7.67-.17,2.3-.21,4.62-.58,6.88a8.1,8.1,0,0,1-8,6.62,32.2,32.2,0,0,1-4.39-.13,7,7,0,0,1-5.84-7.63c.22-2.53.34-5.08.54-7.61a29,29,0,0,1,.45-4.37A8.13,8.13,0,0,1,56,14.42h10.7Zm-7,6.66H55.36a1.06,1.06,0,0,0-1,1.06c-.24,3.5-.49,7-.72,10.5a1,1,0,0,0,.78,1.08h3.43a1,1,0,0,0,1-.92c0-.33.07-.66.1-1,.14-2,.27-4,.41-6C59.54,24.23,59.64,22.7,59.74,21.08Z"/><path class="cls-2" d="M113.57,43.28c-.07,1.07-.1,2.12-.23,3.17a5.33,5.33,0,0,1-.48,1.84,2.73,2.73,0,0,1-2.6,1.51H92.59c-.49,0-.7-.12-.64-.66.11-1.08.13-2.18.24-3.27A3.06,3.06,0,0,1,95,43.23h18.33Z"/><path class="cls-1" d="M89.16,12.14H87.38c-.12,0-.31-.29-.3-.44.06-1.15.15-2.3.24-3.44S87.1,6.92,86.07,7.1a.6.6,0,0,0-.36.4c-.11,1.4-.17,2.81-.28,4.22a.56.56,0,0,1-.35.42H83.34c.06-.89.12-1.71.17-2.54,0-.65.07-1.29.09-1.94S83.24,7,82.81,7,82,7,82,7.58c-.05,1.34-.18,2.67-.25,4,0,.43-.16.63-.6.56H81c-1.4,0-1.4,0-1.31-1.37.11-1.58.24-3.15.33-4.72a.56.56,0,0,1,.58-.65,9.51,9.51,0,0,1,4.18.17,1.72,1.72,0,0,0,.54-.06,21.86,21.86,0,0,1,2.8-.12,1.34,1.34,0,0,1,1.34,1.34,1.64,1.64,0,0,1,0,.22C89.4,8.66,89.26,10.36,89.16,12.14Z"/><path class="cls-2" d="M69.44,5.41h4.69a2.39,2.39,0,0,1,2,2.5A15.28,15.28,0,0,1,76,10.25a2.46,2.46,0,0,1-2.31,2H72.1a2.93,2.93,0,0,1-2.95-2.91h0C69.19,8.05,69.34,6.76,69.44,5.41Z"/><path class="cls-1" d="M82.14,42.87C82,44.44,82,46,81.74,47.54A2.79,2.79,0,0,1,79,49.8H77.66a2.43,2.43,0,0,1-2.45-2.41v-.08a14.82,14.82,0,0,1,.13-2A2.79,2.79,0,0,1,77.69,43,43.41,43.41,0,0,1,82.14,42.87Z"/><path class="cls-1" d="M90.09,42.84c-.1,1.53-.16,3-.32,4.48A2.89,2.89,0,0,1,87,49.8H85.64a2.43,2.43,0,0,1-2.47-2.32,10.42,10.42,0,0,1,.14-2.16,2.75,2.75,0,0,1,2.55-2.41A39.45,39.45,0,0,1,90.09,42.84Z"/><path class="cls-1" d="M58.49,5.39c-.14,1.62-.17,3.21-.43,4.75a2.57,2.57,0,0,1-2.24,2.13,8.2,8.2,0,0,1-2.32,0,2.36,2.36,0,0,1-2-2.32,17.39,17.39,0,0,1,.13-2.16A2.81,2.81,0,0,1,54,5.42C55.47,5.32,57,5.39,58.49,5.39Z"/><path class="cls-1" d="M66,5.37l-.18,3c0,.37-.06.74-.08,1.11a3,3,0,0,1-3,2.89A10.26,10.26,0,0,1,61,12.29a2.41,2.41,0,0,1-2-2.36,17.66,17.66,0,0,1,.12-2.06,2.88,2.88,0,0,1,2.62-2.48C63.14,5.32,64.51,5.37,66,5.37Z"/><path class="cls-1" d="M102.22,10.41a.31.31,0,0,0,.06.13c.09,1.36,0,1.45-1.27,1.58a15.51,15.51,0,0,1-2.55,0,1.7,1.7,0,0,1-1.79-1.6.81.81,0,0,1,0-.22A18.15,18.15,0,0,1,97,7.09a1.94,1.94,0,0,1,1.9-1.73,14.77,14.77,0,0,1,2.66,0,1.43,1.43,0,0,1,1.37,1.38c.07.72,0,1.44.05,2.16,0,.38-.21.46-.54.46H99.33a1.82,1.82,0,0,0-.56.22c.15.24.24.55.44.69a1.52,1.52,0,0,0,.76.11ZM98.84,8.14h1.48a2.21,2.21,0,0,0,.55-.23c-.12-.25-.18-.61-.38-.73-.72-.44-1.47,0-1.65,1Z"/><path class="cls-1" d="M95.58,10.41a8.55,8.55,0,0,1,0,1.24c0,.14-.2.36-.31.36-1.26.06-2.51.06-3.77,0-.91-.07-1.29-.59-1.44-1.51a8.85,8.85,0,0,1,.28-3.69,1.77,1.77,0,0,1,1.55-1.42,13.77,13.77,0,0,1,2.87,0A1.57,1.57,0,0,1,96.25,7V8.87c0,.37-.16.52-.54.52H92.64a2.06,2.06,0,0,0-.57.25,2.61,2.61,0,0,0,.47.67,1.33,1.33,0,0,0,.71.1ZM94.13,8.09c.11-.73-.1-1-.77-1s-1.11.29-1.12,1Z"/><path class="cls-1" d="M110.32,7a11.17,11.17,0,0,1,.08-1.29.51.51,0,0,1,.36-.32,32.8,32.8,0,0,1,3.71,0c1,.1,1.36.65,1.32,1.66-.05,1.43-.14,2.86-.26,4.28a.81.81,0,0,1-.45.58,11.48,11.48,0,0,1-4.37.11,1.24,1.24,0,0,1-1.13-1.31c0-.22,0-.45,0-.67a1.8,1.8,0,0,1,1.61-2,1.61,1.61,0,0,1,.31,0A13.25,13.25,0,0,0,113.17,8c.18,0,.35-.17.53-.27a2.38,2.38,0,0,0-.39-.6,1.09,1.09,0,0,0-.59-.1Zm3.27,2.24h-1.35a.58.58,0,0,0-.59.59v.07c0,.41.22.56.58.58a3.24,3.24,0,0,0,.88,0,.7.7,0,0,0,.39-.4A3,3,0,0,0,113.59,9.28Z"/><path class="cls-1" d="M109.27,5.31a2.35,2.35,0,0,1-.59,2.1c-.81.89-1.55,1.84-2.43,2.91h2.37c.38,0,.52.15.5.54-.09,1.58.08,1.26-1.3,1.28s-2.71,0-4.07,0h-.61a2.12,2.12,0,0,1,.47-1.87c.9-1,1.75-2.06,2.73-3.2h-2.77a14.48,14.48,0,0,1,.11-1.52.34.34,0,0,1,.25-.23Z"/><path class="cls-3" d="M19.35,40.64H14.16A2.8,2.8,0,0,1,11.25,38c0-.1,0-.21,0-.31.21-3.24.47-6.48.71-9.72q.3-4.17.61-8.34c.06-.85.1-1.7.21-2.55a3.26,3.26,0,0,1,3.27-2.83H26.54a2.76,2.76,0,0,1,2.87,3.1q-.59,8.28-1.19,16.56c-.1,1.27-.2,2.55-.31,3.83a3.32,3.32,0,0,1-3.21,3C23,40.65,21.13,40.64,19.35,40.64ZM13.69,34H25.5c.27,0,.55.06.58-.38.17-2.58.37-5.15.55-7.72.21-2.84.4-5.67.62-8.5.06-.8-.23-1.15-1-1.15H16.1a1,1,0,0,0-1.22.71,1,1,0,0,0,0,.48c-.09,1.11-.16,2.22-.24,3.33-.26,3.44-.51,6.89-.76,10.33C13.8,32.07,13.75,33,13.69,34Zm12.19,2.18H13.54a9,9,0,0,1-.12,1.06v.28a.88.88,0,0,0,.81.93h10.4a1,1,0,0,0,1.16-.82,1.09,1.09,0,0,0,0-.18C25.83,37.06,25.84,36.67,25.88,36.22Z"/><path class="cls-1" d="M13.69,34c.06-1,.11-2,.18-2.93.25-3.44.5-6.89.76-10.33.08-1.11.15-2.22.24-3.33a1,1,0,0,1,.83-1.14,1,1,0,0,1,.38,0H26.23c.79,0,1.08.35,1,1.15-.22,2.83-.41,5.66-.62,8.5-.18,2.57-.38,5.14-.55,7.72,0,.44-.31.38-.58.38H14.38Z"/><path class="cls-1" d="M25.88,36.22a9,9,0,0,1-.1,1.22,1,1,0,0,1-1,1,.55.55,0,0,1-.18,0H14.29a.87.87,0,0,1-.89-.85v-.36a10.12,10.12,0,0,1,.12-1.06Z"/></svg>