<svg id="Layer_1" data-name="Layer 1" xmlns="http://www.w3.org/2000/svg" viewBox="0 0 55.46 55.39"><defs><style>.cls-1{fill:#58585a;}.cls-2{fill:#f26232;}</style></defs><title>Wallet</title><path class="cls-1" d="M25.31,31.52l-1.48.11V23h1.43l.06,1.39h1.42v1.4l-1.4.08v1.49h4.39l.07,1.37h0l-1.56.1v2.8l1.4.08.08,1.41H31.1v1.32h4.36v-1.3H32.61V31.65h7.23V33l-1.38.09v1.27h2.83V33.13h1.46l.08,1.27h6.72a.78.78,0,0,0,.62-.29A2.71,2.71,0,0,1,53,32.54a2.66,2.66,0,0,1,2.38,2,.83.83,0,0,0,.08.12v1.27a3.07,3.07,0,0,1-2,2c-1.41.37-2.51-.21-3.41-1.79H39.91v1.25h2.28c.5,0,.66.15.64.64v2.32H41.28V38.94H39.93V40.3h1.38v1.39l1.46.08v2.86H41.34V43.29H37V41.75h2.82V40.39l-1.41-.09V38.93H37l-.07,1.37H34.18v1.4h1.35v3h4.4v4.4h-3V46.23h-1.4l-.06,1.37H34V44.72H32.64V49l1.39.08v1.36H32.57V49.1H29.73v1.29H28.18V47.66h-1.4V46.24H25.35l-.07,1.35H23.83V41.75h2.91V40.3h2.83V37.5H28.28l-.1,1.41H26.76v1.41h-3V36.1H20.93v1.29h1.33v1.47H19.39V36.1H18l0,1.29H16.56l-.1-1.33h-2.8v1.17c.49.09,1.06,0,1.38.31s0,.79,0,1.25H13.58V37.5h-1.4l-.08-1.44H6.49a3,3,0,0,0-2.39.74,2.48,2.48,0,0,1-3.49-.34,2.34,2.34,0,0,1-.34-.54L0,35.36V34.22a2.65,2.65,0,0,1,2.58-2A2.59,2.59,0,0,1,5.06,34c.08.18.32.42.49.42h6.56V31.65h1.45V33H15l.08-1.35h7.21v1.39l-1.35.06v1.28h2.81l.07-1.29h1.53c0,.43-.05.85-.08,1.29h1.41l.09-1.22,1.33-.11V31.65H26.71a10.55,10.55,0,0,0,.07,1.5l-1.45-.07V31.5l1.38.11V28.75H25.34Zm5.82,8.8H29.68v1.47l-1.4.07v1.29l1.37.09.08,1.4h1.38V40.29h2.82V38.93H31.18Zm5.77-4.2H32.64v1.19H36.9ZM15.1,34.39h2.83V33.12H15.1ZM28.28,44.7v2.79h1.27V44.7Zm-1.58,0V43.31H25.36v1.35Zm13.09-7.16H38.5v1.3h1.29ZM32.67,41.9c-.24,1.35-.06,1.53,1.25,1.23V41.86Z"/><path class="cls-2" d="M48.23,0a3.32,3.32,0,0,1,.67.87c1.1,3.27,2.16,6.56,3.23,9.84a1.22,1.22,0,0,1,0,.27H42.74c-.49-2.54-1-5.07-1.47-7.6-.22-1.13-.47-2.25-.71-3.38Z"/><path class="cls-2" d="M14.57,0,13,8l-.6,3H3c.2-.6.39-1.18.57-1.75.9-2.72,1.77-5.45,2.69-8.17A5.17,5.17,0,0,1,6.94,0Z"/><path class="cls-2" d="M30.69,0c.17,2.75.33,5.51.49,8.26.06.89.11,1.78.17,2.72h-7.5c.09-1.52.19-3,.28-4.56q.18-3.21.34-6.42Z"/><path class="cls-2" d="M38.75,0l1,5.75c.33,1.74.66,3.46,1,5.24H33.3c-.11-1.73-.22-3.44-.34-5.15C32.83,3.89,32.68,2,32.53,0Z"/><path class="cls-2" d="M22.63,0l-.75,11H14.4c.18-1,.35-1.91.54-2.87.48-2.51,1-5,1.45-7.54a2.62,2.62,0,0,0,0-.56Z"/><path class="cls-1" d="M48.09,39.79H50v15.6H5.08V39.78H7V53.39H48.09Z"/><path class="cls-1" d="M12.18,40.39h10.1v10H12.18Zm1.4,1.51v6.78c0,.49.37.4.66.4h5.93c.55,0,.68-.19.67-.7v-6.5Z"/><path class="cls-1" d="M25.28,49.1v1.34H23.83V49.1Z"/><path class="cls-1" d="M39.88,49.08h1.38v1.37H39.9V49.07Z"/><path class="cls-1" d="M36.91,49.07v1.37H35.53V49.08h1.38Z"/><path class="cls-1" d="M52.37,12.08a5.86,5.86,0,0,1-4.25,4.46c-2.56.87-4.52-.26-6.2-2.21a5.81,5.81,0,0,1-8.07,1.47,6,6,0,0,1-1.47-1.47,5.81,5.81,0,0,1-4.76,2.51,5.73,5.73,0,0,1-4.77-2.45,5.88,5.88,0,0,1-8.2,1.39,5.73,5.73,0,0,1-1.39-1.39c-1.77,2.15-4,3.06-6.68,2.12a5.59,5.59,0,0,1-3.76-4.38Z"/><path class="cls-1" d="M42.72,30.12H32.6V20H42.72Zm-1.45-8.63H34.08v7.15h7.19Z"/><path class="cls-1" d="M12.18,30.1V20H22.29V30.1Zm8.68-8.61H13.63v7.16h7.23Z"/><path class="cls-1" d="M7,30.23H5.07V16.39c.62.33,1.18.61,1.71.94a.67.67,0,0,1,.26.51V30A1.22,1.22,0,0,1,7,30.23Z"/><path class="cls-1" d="M50,30.22H48.08v-12A1,1,0,0,1,48.8,17,11.23,11.23,0,0,0,50,16.39Z"/><path class="cls-1" d="M26.74,24.39V23h3v2.79H28.18V24.32H26.77Z"/><path class="cls-1" d="M26.76,21.39V20h1.42v1.38Z"/><path class="cls-1" d="M29.7,25.74h1.36v1.49l-1.36.06h0V25.73Z"/><path class="cls-1" d="M29.77,28.66l1.3.07v1.36H29.61c.06-.5.11-1,.17-1.44Z"/><path class="cls-1" d="M35.54,22.91v4.31h4.27V22.91Z"/><path class="cls-1" d="M15.06,43.25h4.4v4.33h-4.4Z"/><path class="cls-1" d="M35.54,22.91h4.27v4.31H35.54Z"/><path class="cls-1" d="M15.11,22.93H19.4v4.29H15.11Z"/><path class="cls-2" d="M23.85,36h8.77l.11,1.25H37V36h3v1.24l3,.18v2.83H41.38V38.89H40v1.35H41.4V41.6l1.54.21v2.83H41.37V43.21H37V41.67h2.82V40.33l-1.4-.08-.06-1.37H37.07L37,40.29H34.18v1.42h1.4v3H40v4.35H37V46.18H35.51v1.36H34V44.68H32.66V49l1.4.07v1.37H32.53V49.06H29.71v1.33H28.18V47.57H26.83l-.08-1.38H25.34v1.34H23.9V41.65h2.88v-1.4h2.84v-2.8H28.33l-.08,1.36-1.44.07v1.39h-3Zm7.33,4.26H29.74v1.47l-1.41.09V43.1l1.38.09.08,1.39h1.39V40.25H34V38.89H31.18Zm-1.56,4.42H28.34v2.7h1.28Zm-4.22-.1h1.33V43.26H25.4Zm14.44-5.82V37.46H38.58v1.31ZM32.69,43.1H34V41.81H32.69Z"/><path class="cls-2" d="M21,36v1.28h1.37v1.5H19.47V36Z"/><path class="cls-2" d="M13.67,36l.07,1.22c.48.08,1,0,1.38.27s0,.8,0,1.28H13.66V37.45H12.22V36Z"/><path class="cls-2" d="M18.05,36v1.38H16.64V36Z"/><path class="cls-2" d="M22.42,40.3V50.39H12.27V40.3Zm-8.65,1.52v7.12h7.11V41.82Z"/><path class="cls-2" d="M25.36,49v1.35H23.91V49Z"/><path class="cls-2" d="M37,49v1.37H35.6V49H37Z"/><path class="cls-2" d="M40,49h1.38v1.38H40V49Z"/><path class="cls-2" d="M15.18,43.16h4.14c.1,0,.27.21.27.32v4H15.18Z"/></svg>